<mxfile host="app.diagrams.net" agent="Mozilla/5.0 (Macintosh; Intel Mac OS X 10.15; rv:130.0) Gecko/20100101 Firefox/130.0" version="24.7.16" pages="8">
  <diagram name="Page-1" id="C5Rluev8gDHUuXHZYuUx">
    <mxGraphModel dx="617" dy="646" grid="1" gridSize="10" guides="1" tooltips="1" connect="1" arrows="1" fold="1" page="1" pageScale="1" pageWidth="827" pageHeight="1169" math="0" shadow="0">
      <root>
        <mxCell id="0" />
        <mxCell id="1" parent="0" />
      </root>
    </mxGraphModel>
  </diagram>
  <diagram id="nxN1Qa2fMbHFzz96RSI6" name="task-1-cd">
    <mxGraphModel grid="1" page="1" gridSize="10" guides="1" tooltips="1" connect="1" arrows="1" fold="1" pageScale="1" pageWidth="827" pageHeight="1169" math="0" shadow="0">
      <root>
        <mxCell id="0" />
        <mxCell id="1" parent="0" />
        <mxCell id="tk3_r2uyEiqzYExMzTs2-6" value="service " style="html=1;whiteSpace=wrap;" vertex="1" parent="1">
          <mxGeometry x="200" y="372" width="110" height="50" as="geometry" />
        </mxCell>
        <mxCell id="tk3_r2uyEiqzYExMzTs2-7" value="result" style="html=1;whiteSpace=wrap;" vertex="1" parent="1">
          <mxGeometry x="478" y="228" width="122" height="50" as="geometry" />
        </mxCell>
        <mxCell id="tk3_r2uyEiqzYExMzTs2-8" value="therapist" style="html=1;whiteSpace=wrap;" vertex="1" parent="1">
          <mxGeometry x="478" y="372" width="122" height="50" as="geometry" />
        </mxCell>
        <mxCell id="tk3_r2uyEiqzYExMzTs2-9" value="controller" style="html=1;whiteSpace=wrap;" vertex="1" parent="1">
          <mxGeometry x="479" y="524" width="122" height="66" as="geometry" />
        </mxCell>
        <mxCell id="tk3_r2uyEiqzYExMzTs2-10" value="video recorder" style="html=1;whiteSpace=wrap;" vertex="1" parent="1">
          <mxGeometry x="200" y="524" width="120" height="70" as="geometry" />
        </mxCell>
        <mxCell id="tk3_r2uyEiqzYExMzTs2-11" value="partners" style="html=1;whiteSpace=wrap;" vertex="1" parent="1">
          <mxGeometry x="200" y="690" width="120" height="50" as="geometry" />
        </mxCell>
        <mxCell id="tk3_r2uyEiqzYExMzTs2-12" value="partner B" style="html=1;whiteSpace=wrap;" vertex="1" parent="1">
          <mxGeometry x="320" y="844" width="110" height="50" as="geometry" />
        </mxCell>
        <mxCell id="tk3_r2uyEiqzYExMzTs2-13" value="partner A" style="html=1;whiteSpace=wrap;" vertex="1" parent="1">
          <mxGeometry x="90" y="844" width="110" height="50" as="geometry" />
        </mxCell>
        <mxCell id="tk3_r2uyEiqzYExMzTs2-14" value="Extends" style="endArrow=block;endSize=16;endFill=0;html=1;rounded=0;entryX=0.627;entryY=1.02;entryDx=0;entryDy=0;entryPerimeter=0;" edge="1" parent="1" target="tk3_r2uyEiqzYExMzTs2-11">
          <mxGeometry x="-0.15" width="160" relative="1" as="geometry">
            <mxPoint x="360" y="840" as="sourcePoint" />
            <mxPoint x="461" y="784" as="targetPoint" />
            <mxPoint as="offset" />
          </mxGeometry>
        </mxCell>
        <mxCell id="tk3_r2uyEiqzYExMzTs2-15" value="Extends" style="endArrow=block;endSize=16;endFill=0;html=1;rounded=0;" edge="1" parent="1">
          <mxGeometry width="160" relative="1" as="geometry">
            <mxPoint x="150" y="840" as="sourcePoint" />
            <mxPoint x="240.25" y="742" as="targetPoint" />
            <Array as="points">
              <mxPoint x="232.25" y="750" />
            </Array>
          </mxGeometry>
        </mxCell>
        <mxCell id="tk3_r2uyEiqzYExMzTs2-16" value="" style="endArrow=none;html=1;rounded=0;entryX=0.45;entryY=1.014;entryDx=0;entryDy=0;exitX=0.45;exitY=0;exitDx=0;exitDy=0;entryPerimeter=0;exitPerimeter=0;" edge="1" parent="1" source="tk3_r2uyEiqzYExMzTs2-11" target="tk3_r2uyEiqzYExMzTs2-10">
          <mxGeometry width="50" height="50" relative="1" as="geometry">
            <mxPoint x="260" y="680" as="sourcePoint" />
            <mxPoint x="253" y="590" as="targetPoint" />
            <Array as="points" />
          </mxGeometry>
        </mxCell>
        <mxCell id="tk3_r2uyEiqzYExMzTs2-17" value="&lt;font style=&quot;font-size: 14px;&quot;&gt;0..*&lt;/font&gt;" style="text;html=1;align=center;verticalAlign=middle;resizable=0;points=[];autosize=1;strokeColor=none;fillColor=none;" vertex="1" parent="1">
          <mxGeometry x="255.5" y="594" width="40" height="30" as="geometry" />
        </mxCell>
        <mxCell id="tk3_r2uyEiqzYExMzTs2-18" value="&lt;font style=&quot;font-size: 14px;&quot;&gt;1&lt;/font&gt;" style="text;html=1;align=center;verticalAlign=middle;resizable=0;points=[];autosize=1;strokeColor=none;fillColor=none;" vertex="1" parent="1">
          <mxGeometry x="253.5" y="662" width="30" height="30" as="geometry" />
        </mxCell>
        <mxCell id="tk3_r2uyEiqzYExMzTs2-19" value="" style="endArrow=diamondThin;endFill=0;endSize=24;html=1;rounded=0;exitX=0.5;exitY=1;exitDx=0;exitDy=0;entryX=0.45;entryY=-0.014;entryDx=0;entryDy=0;entryPerimeter=0;" edge="1" parent="1" source="tk3_r2uyEiqzYExMzTs2-6" target="tk3_r2uyEiqzYExMzTs2-10">
          <mxGeometry width="160" relative="1" as="geometry">
            <mxPoint x="319" y="666" as="sourcePoint" />
            <mxPoint x="303" y="517" as="targetPoint" />
          </mxGeometry>
        </mxCell>
        <mxCell id="tk3_r2uyEiqzYExMzTs2-20" value="&lt;font style=&quot;font-size: 14px;&quot;&gt;0..*&lt;/font&gt;" style="text;html=1;align=center;verticalAlign=middle;resizable=0;points=[];autosize=1;strokeColor=none;fillColor=none;" vertex="1" parent="1">
          <mxGeometry x="253.5" y="420" width="40" height="30" as="geometry" />
        </mxCell>
        <mxCell id="tk3_r2uyEiqzYExMzTs2-21" value="&lt;font style=&quot;font-size: 14px;&quot;&gt;1&lt;/font&gt;" style="text;html=1;align=center;verticalAlign=middle;resizable=0;points=[];autosize=1;strokeColor=none;fillColor=none;" vertex="1" parent="1">
          <mxGeometry x="253.5" y="496" width="30" height="30" as="geometry" />
        </mxCell>
        <mxCell id="tk3_r2uyEiqzYExMzTs2-22" value="" style="endArrow=none;html=1;rounded=0;entryX=0.917;entryY=0.846;entryDx=0;entryDy=0;exitX=0.991;exitY=0.436;exitDx=0;exitDy=0;exitPerimeter=0;entryPerimeter=0;" edge="1" parent="1" source="tk3_r2uyEiqzYExMzTs2-10" target="tk3_r2uyEiqzYExMzTs2-23">
          <mxGeometry width="50" height="50" relative="1" as="geometry">
            <mxPoint x="441" y="606.5" as="sourcePoint" />
            <mxPoint x="444" y="534.5" as="targetPoint" />
          </mxGeometry>
        </mxCell>
        <mxCell id="tk3_r2uyEiqzYExMzTs2-23" value="&lt;font style=&quot;font-size: 14px;&quot;&gt;1..*&lt;/font&gt;" style="text;html=1;align=center;verticalAlign=middle;resizable=0;points=[];autosize=1;strokeColor=none;fillColor=none;" vertex="1" parent="1">
          <mxGeometry x="438" y="530" width="40" height="30" as="geometry" />
        </mxCell>
        <mxCell id="tk3_r2uyEiqzYExMzTs2-24" value="&lt;font style=&quot;font-size: 14px;&quot;&gt;1&lt;/font&gt;" style="text;html=1;align=center;verticalAlign=middle;resizable=0;points=[];autosize=1;strokeColor=none;fillColor=none;" vertex="1" parent="1">
          <mxGeometry x="318" y="528" width="30" height="30" as="geometry" />
        </mxCell>
        <mxCell id="tk3_r2uyEiqzYExMzTs2-25" value="steers" style="text;html=1;align=center;verticalAlign=middle;resizable=0;points=[];autosize=1;strokeColor=none;fillColor=none;" vertex="1" parent="1">
          <mxGeometry x="373" y="554" width="51" height="26" as="geometry" />
        </mxCell>
        <mxCell id="tk3_r2uyEiqzYExMzTs2-27" value="" style="endArrow=none;html=1;rounded=0;entryX=0;entryY=0.5;entryDx=0;entryDy=0;exitX=1;exitY=0.5;exitDx=0;exitDy=0;" edge="1" parent="1" source="tk3_r2uyEiqzYExMzTs2-6" target="tk3_r2uyEiqzYExMzTs2-8">
          <mxGeometry width="50" height="50" relative="1" as="geometry">
            <mxPoint x="361" y="404.5" as="sourcePoint" />
            <mxPoint x="483" y="401.5" as="targetPoint" />
          </mxGeometry>
        </mxCell>
        <mxCell id="tk3_r2uyEiqzYExMzTs2-30" value="&lt;font style=&quot;font-size: 14px;&quot;&gt;1..*&lt;/font&gt;" style="text;html=1;align=center;verticalAlign=middle;resizable=0;points=[];autosize=1;strokeColor=none;fillColor=none;" vertex="1" parent="1">
          <mxGeometry x="308" y="370" width="40" height="30" as="geometry" />
        </mxCell>
        <mxCell id="tk3_r2uyEiqzYExMzTs2-31" value="&lt;font style=&quot;font-size: 14px;&quot;&gt;1&lt;/font&gt;" style="text;html=1;align=center;verticalAlign=middle;resizable=0;points=[];autosize=1;strokeColor=none;fillColor=none;" vertex="1" parent="1">
          <mxGeometry x="449" y="370" width="30" height="30" as="geometry" />
        </mxCell>
        <mxCell id="tk3_r2uyEiqzYExMzTs2-32" value="" style="endArrow=none;html=1;rounded=0;entryX=0.5;entryY=0;entryDx=0;entryDy=0;exitX=0.5;exitY=1;exitDx=0;exitDy=0;" edge="1" parent="1" source="tk3_r2uyEiqzYExMzTs2-7" target="tk3_r2uyEiqzYExMzTs2-8">
          <mxGeometry width="50" height="50" relative="1" as="geometry">
            <mxPoint x="431" y="315" as="sourcePoint" />
            <mxPoint x="558" y="316.5" as="targetPoint" />
          </mxGeometry>
        </mxCell>
        <mxCell id="tk3_r2uyEiqzYExMzTs2-34" value="&lt;font style=&quot;font-size: 14px;&quot;&gt;0..*&lt;/font&gt;" style="edgeLabel;html=1;align=center;verticalAlign=middle;resizable=0;points=[];" vertex="1" connectable="0" parent="tk3_r2uyEiqzYExMzTs2-32">
          <mxGeometry x="0.785" y="4" relative="1" as="geometry">
            <mxPoint x="14" y="-3" as="offset" />
          </mxGeometry>
        </mxCell>
        <mxCell id="tk3_r2uyEiqzYExMzTs2-33" value="" style="endArrow=none;html=1;rounded=0;entryX=1.025;entryY=0.64;entryDx=0;entryDy=0;entryPerimeter=0;" edge="1" parent="1" target="tk3_r2uyEiqzYExMzTs2-11">
          <mxGeometry width="50" height="50" relative="1" as="geometry">
            <mxPoint x="600" y="400" as="sourcePoint" />
            <mxPoint x="330" y="720" as="targetPoint" />
            <Array as="points">
              <mxPoint x="640" y="400" />
              <mxPoint x="640" y="720" />
            </Array>
          </mxGeometry>
        </mxCell>
        <mxCell id="tk3_r2uyEiqzYExMzTs2-35" value="&lt;font style=&quot;font-size: 14px;&quot;&gt;1..*&lt;/font&gt;" style="text;html=1;align=center;verticalAlign=middle;resizable=0;points=[];autosize=1;strokeColor=none;fillColor=none;" vertex="1" parent="1">
          <mxGeometry x="531" y="276" width="40" height="30" as="geometry" />
        </mxCell>
        <mxCell id="tk3_r2uyEiqzYExMzTs2-37" value="1" style="text;html=1;align=center;verticalAlign=middle;resizable=0;points=[];autosize=1;strokeColor=none;fillColor=none;" vertex="1" parent="1">
          <mxGeometry x="600" y="372" width="25" height="26" as="geometry" />
        </mxCell>
        <mxCell id="tk3_r2uyEiqzYExMzTs2-38" value="&lt;font style=&quot;font-size: 14px;&quot;&gt;1..*&lt;/font&gt;" style="text;html=1;align=center;verticalAlign=middle;resizable=0;points=[];autosize=1;strokeColor=none;fillColor=none;" vertex="1" parent="1">
          <mxGeometry x="325" y="688" width="40" height="30" as="geometry" />
        </mxCell>
        <mxCell id="tk3_r2uyEiqzYExMzTs2-39" value="" style="endArrow=diamondThin;endFill=0;endSize=24;html=1;rounded=0;exitX=0;exitY=0.25;exitDx=0;exitDy=0;" edge="1" parent="1" source="tk3_r2uyEiqzYExMzTs2-7">
          <mxGeometry width="160" relative="1" as="geometry">
            <mxPoint x="306" y="289" as="sourcePoint" />
            <mxPoint x="250" y="370" as="targetPoint" />
            <Array as="points">
              <mxPoint x="250" y="240" />
            </Array>
          </mxGeometry>
        </mxCell>
        <mxCell id="tk3_r2uyEiqzYExMzTs2-40" value="&lt;font style=&quot;font-size: 14px;&quot;&gt;1..*&lt;/font&gt;" style="text;html=1;align=center;verticalAlign=middle;resizable=0;points=[];autosize=1;strokeColor=none;fillColor=none;" vertex="1" parent="1">
          <mxGeometry x="438" y="218" width="40" height="30" as="geometry" />
        </mxCell>
        <mxCell id="tk3_r2uyEiqzYExMzTs2-41" value="&lt;font style=&quot;font-size: 14px;&quot;&gt;1&lt;/font&gt;" style="text;html=1;align=center;verticalAlign=middle;resizable=0;points=[];autosize=1;strokeColor=none;fillColor=none;" vertex="1" parent="1">
          <mxGeometry x="254" y="342" width="30" height="30" as="geometry" />
        </mxCell>
        <mxCell id="tk3_r2uyEiqzYExMzTs2-42" value="" style="endArrow=diamondThin;endFill=1;endSize=24;html=1;rounded=0;entryX=0.5;entryY=1;entryDx=0;entryDy=0;exitX=0.02;exitY=0.885;exitDx=0;exitDy=0;exitPerimeter=0;" edge="1" parent="1" source="tk3_r2uyEiqzYExMzTs2-44" target="tk3_r2uyEiqzYExMzTs2-8">
          <mxGeometry width="160" relative="1" as="geometry">
            <mxPoint x="539" y="530" as="sourcePoint" />
            <mxPoint x="543" y="435" as="targetPoint" />
          </mxGeometry>
        </mxCell>
        <mxCell id="tk3_r2uyEiqzYExMzTs2-43" value="1" style="text;html=1;align=center;verticalAlign=middle;resizable=0;points=[];autosize=1;strokeColor=none;fillColor=none;" vertex="1" parent="1">
          <mxGeometry x="544" y="439" width="25" height="26" as="geometry" />
        </mxCell>
        <mxCell id="tk3_r2uyEiqzYExMzTs2-44" value="1" style="text;html=1;align=center;verticalAlign=middle;resizable=0;points=[];autosize=1;strokeColor=none;fillColor=none;" vertex="1" parent="1">
          <mxGeometry x="538.5" y="500" width="25" height="26" as="geometry" />
        </mxCell>
      </root>
    </mxGraphModel>
  </diagram>
  <diagram id="hJTdhT4ztenGCs18m5h2" name="task-2-sd">
    <mxGraphModel grid="0" page="1" gridSize="10" guides="1" tooltips="1" connect="1" arrows="1" fold="1" pageScale="1" pageWidth="827" pageHeight="1169" background="none" math="0" shadow="0">
      <root>
        <mxCell id="0" />
        <mxCell id="1" parent="0" />
        <mxCell id="wgqo_BjnbtqxxB7jQF8x-1" value="&lt;font style=&quot;font-size: 14px;&quot;&gt;&lt;b&gt;SD Therapy Session&lt;/b&gt;&lt;/font&gt;" style="shape=umlFrame;whiteSpace=wrap;html=1;pointerEvents=0;recursiveResize=0;container=1;collapsible=0;width=160;movable=1;resizable=1;rotatable=1;deletable=1;editable=1;locked=0;connectable=1;labelBackgroundColor=none;" vertex="1" parent="1">
          <mxGeometry x="24" y="77" width="803" height="1589" as="geometry" />
        </mxCell>
        <mxCell id="wgqo_BjnbtqxxB7jQF8x-2" value="&lt;font style=&quot;font-size: 14px;&quot;&gt;&lt;b&gt;:Therapsit&lt;/b&gt;&lt;/font&gt;" style="shape=umlLifeline;perimeter=lifelinePerimeter;whiteSpace=wrap;html=1;container=1;dropTarget=0;collapsible=0;recursiveResize=0;outlineConnect=0;portConstraint=eastwest;newEdgeStyle={&quot;curved&quot;:0,&quot;rounded&quot;:0};labelBackgroundColor=none;" vertex="1" parent="wgqo_BjnbtqxxB7jQF8x-1">
          <mxGeometry x="27" y="66" width="100" height="1498" as="geometry" />
        </mxCell>
        <mxCell id="7fY5sP91VnXdCJbbnflD-54" value="" style="shape=umlDestroy;whiteSpace=wrap;html=1;strokeWidth=3;targetShapes=umlLifeline;labelBackgroundColor=none;" vertex="1" parent="wgqo_BjnbtqxxB7jQF8x-2">
          <mxGeometry x="29.5" y="1336" width="43" height="59" as="geometry" />
        </mxCell>
        <mxCell id="wgqo_BjnbtqxxB7jQF8x-3" value="&lt;font style=&quot;font-size: 14px;&quot;&gt;&lt;b&gt;:Controller&lt;/b&gt;&lt;/font&gt;" style="shape=umlLifeline;perimeter=lifelinePerimeter;whiteSpace=wrap;html=1;container=1;dropTarget=0;collapsible=0;recursiveResize=0;outlineConnect=0;portConstraint=eastwest;newEdgeStyle={&quot;curved&quot;:0,&quot;rounded&quot;:0};labelBackgroundColor=none;" vertex="1" parent="wgqo_BjnbtqxxB7jQF8x-1">
          <mxGeometry x="148" y="66" width="100" height="1511" as="geometry" />
        </mxCell>
        <mxCell id="7fY5sP91VnXdCJbbnflD-55" value="" style="shape=umlDestroy;whiteSpace=wrap;html=1;strokeWidth=3;targetShapes=umlLifeline;labelBackgroundColor=none;" vertex="1" parent="wgqo_BjnbtqxxB7jQF8x-3">
          <mxGeometry x="35" y="761" width="30" height="30" as="geometry" />
        </mxCell>
        <mxCell id="wgqo_BjnbtqxxB7jQF8x-4" value="&lt;font style=&quot;font-size: 14px;&quot;&gt;&lt;b&gt;:Video Recorder&lt;/b&gt;&lt;/font&gt;" style="shape=umlLifeline;perimeter=lifelinePerimeter;whiteSpace=wrap;html=1;container=1;dropTarget=0;collapsible=0;recursiveResize=0;outlineConnect=0;portConstraint=eastwest;newEdgeStyle={&quot;curved&quot;:0,&quot;rounded&quot;:0};labelBackgroundColor=none;" vertex="1" parent="wgqo_BjnbtqxxB7jQF8x-1">
          <mxGeometry x="269" y="66" width="100" height="1503" as="geometry" />
        </mxCell>
        <mxCell id="wgqo_BjnbtqxxB7jQF8x-5" value="&lt;font style=&quot;font-size: 14px;&quot;&gt;&lt;b&gt;:Partner A&lt;/b&gt;&lt;/font&gt;" style="shape=umlLifeline;perimeter=lifelinePerimeter;whiteSpace=wrap;html=1;container=1;dropTarget=0;collapsible=0;recursiveResize=0;outlineConnect=0;portConstraint=eastwest;newEdgeStyle={&quot;curved&quot;:0,&quot;rounded&quot;:0};labelBackgroundColor=none;" vertex="1" parent="wgqo_BjnbtqxxB7jQF8x-1">
          <mxGeometry x="388" y="66" width="100" height="1518" as="geometry" />
        </mxCell>
        <mxCell id="wgqo_BjnbtqxxB7jQF8x-6" value="&lt;font style=&quot;font-size: 14px;&quot;&gt;&lt;b&gt;:Partner B&lt;/b&gt;&lt;/font&gt;" style="shape=umlLifeline;perimeter=lifelinePerimeter;whiteSpace=wrap;html=1;container=1;dropTarget=0;collapsible=0;recursiveResize=0;outlineConnect=0;portConstraint=eastwest;newEdgeStyle={&quot;curved&quot;:0,&quot;rounded&quot;:0};labelBackgroundColor=none;" vertex="1" parent="wgqo_BjnbtqxxB7jQF8x-1">
          <mxGeometry x="515" y="66" width="100" height="1508" as="geometry" />
        </mxCell>
        <mxCell id="wgqo_BjnbtqxxB7jQF8x-7" value="&lt;font style=&quot;font-size: 14px;&quot;&gt;&lt;b&gt;:Service&lt;/b&gt;&lt;/font&gt;" style="shape=umlLifeline;perimeter=lifelinePerimeter;whiteSpace=wrap;html=1;container=1;dropTarget=0;collapsible=0;recursiveResize=0;outlineConnect=0;portConstraint=eastwest;newEdgeStyle={&quot;curved&quot;:0,&quot;rounded&quot;:0};labelBackgroundColor=none;" vertex="1" parent="wgqo_BjnbtqxxB7jQF8x-1">
          <mxGeometry x="627" y="66" width="100" height="1523" as="geometry" />
        </mxCell>
        <mxCell id="7fY5sP91VnXdCJbbnflD-60" value="" style="html=1;points=[[0,0,0,0,5],[0,1,0,0,-5],[1,0,0,0,5],[1,1,0,0,-5]];perimeter=orthogonalPerimeter;outlineConnect=0;targetShapes=umlLifeline;portConstraint=eastwest;newEdgeStyle={&quot;curved&quot;:0,&quot;rounded&quot;:0};labelBackgroundColor=none;" vertex="1" parent="wgqo_BjnbtqxxB7jQF8x-7">
          <mxGeometry x="39" y="1236" width="10" height="80" as="geometry" />
        </mxCell>
        <mxCell id="wgqo_BjnbtqxxB7jQF8x-9" value="" style="endArrow=open;endFill=1;endSize=12;html=1;rounded=0;labelBackgroundColor=none;fontColor=default;" edge="1" parent="wgqo_BjnbtqxxB7jQF8x-1">
          <mxGeometry width="160" relative="1" as="geometry">
            <mxPoint x="75" y="144" as="sourcePoint" />
            <mxPoint x="200" y="144" as="targetPoint" />
          </mxGeometry>
        </mxCell>
        <mxCell id="wgqo_BjnbtqxxB7jQF8x-17" value="Opt" style="shape=umlFrame;whiteSpace=wrap;html=1;pointerEvents=0;recursiveResize=0;container=1;collapsible=0;width=50;movable=1;resizable=1;rotatable=1;deletable=1;editable=1;locked=0;connectable=1;labelBackgroundColor=none;" vertex="1" parent="wgqo_BjnbtqxxB7jQF8x-1">
          <mxGeometry x="52.5" y="181" width="244.5" height="138" as="geometry" />
        </mxCell>
        <mxCell id="7fY5sP91VnXdCJbbnflD-5" value="" style="endArrow=open;endFill=1;endSize=12;html=1;rounded=0;exitX=-0.012;exitY=0.28;exitDx=0;exitDy=0;exitPerimeter=0;labelBackgroundColor=none;fontColor=default;" edge="1" parent="wgqo_BjnbtqxxB7jQF8x-17" target="wgqo_BjnbtqxxB7jQF8x-2">
          <mxGeometry width="160" relative="1" as="geometry">
            <mxPoint x="471.3359999999998" y="842.3399999999997" as="sourcePoint" />
            <mxPoint x="72" y="422" as="targetPoint" />
          </mxGeometry>
        </mxCell>
        <mxCell id="7fY5sP91VnXdCJbbnflD-6" value="fail to process" style="text;html=1;align=center;verticalAlign=middle;resizable=0;points=[];autosize=1;strokeColor=none;fillColor=none;labelBackgroundColor=none;" vertex="1" parent="wgqo_BjnbtqxxB7jQF8x-17">
          <mxGeometry x="93" y="815" width="92" height="26" as="geometry" />
        </mxCell>
        <mxCell id="7fY5sP91VnXdCJbbnflD-7" value="process completed" style="text;html=1;align=center;verticalAlign=middle;resizable=0;points=[];autosize=1;strokeColor=none;fillColor=none;labelBackgroundColor=none;" vertex="1" parent="wgqo_BjnbtqxxB7jQF8x-17">
          <mxGeometry x="77" y="932" width="119" height="26" as="geometry" />
        </mxCell>
        <mxCell id="7fY5sP91VnXdCJbbnflD-13" value="" style="endArrow=open;endFill=1;endSize=12;html=1;rounded=0;labelBackgroundColor=none;fontColor=default;" edge="1" parent="wgqo_BjnbtqxxB7jQF8x-17">
          <mxGeometry width="160" relative="1" as="geometry">
            <mxPoint x="72" y="866" as="sourcePoint" />
            <mxPoint x="195" y="866" as="targetPoint" />
          </mxGeometry>
        </mxCell>
        <mxCell id="7fY5sP91VnXdCJbbnflD-15" value="" style="endArrow=open;endFill=1;endSize=12;html=1;rounded=0;labelBackgroundColor=none;fontColor=default;" edge="1" parent="wgqo_BjnbtqxxB7jQF8x-17">
          <mxGeometry width="160" relative="1" as="geometry">
            <mxPoint x="190" y="877" as="sourcePoint" />
            <mxPoint x="313" y="877" as="targetPoint" />
          </mxGeometry>
        </mxCell>
        <mxCell id="7fY5sP91VnXdCJbbnflD-16" value="resend recording" style="text;html=1;align=center;verticalAlign=middle;resizable=0;points=[];autosize=1;strokeColor=none;fillColor=none;labelBackgroundColor=none;" vertex="1" parent="wgqo_BjnbtqxxB7jQF8x-17">
          <mxGeometry x="196" y="844" width="108" height="26" as="geometry" />
        </mxCell>
        <mxCell id="7fY5sP91VnXdCJbbnflD-22" value="analysis again" style="text;html=1;align=center;verticalAlign=middle;resizable=0;points=[];autosize=1;strokeColor=none;fillColor=none;labelBackgroundColor=none;" vertex="1" parent="wgqo_BjnbtqxxB7jQF8x-17">
          <mxGeometry x="352" y="856" width="94" height="26" as="geometry" />
        </mxCell>
        <mxCell id="7fY5sP91VnXdCJbbnflD-14" value="resend video" style="text;html=1;align=center;verticalAlign=middle;resizable=0;points=[];autosize=1;strokeColor=none;fillColor=none;labelBackgroundColor=none;" vertex="1" parent="wgqo_BjnbtqxxB7jQF8x-17">
          <mxGeometry x="86" y="841" width="87" height="26" as="geometry" />
        </mxCell>
        <mxCell id="s34lRMNUB2OJTxqoYaER-14" value="Alt" style="shape=umlFrame;whiteSpace=wrap;html=1;pointerEvents=0;recursiveResize=0;container=1;collapsible=0;width=50;movable=1;resizable=1;rotatable=1;deletable=1;editable=1;locked=0;connectable=1;labelBackgroundColor=none;" vertex="1" parent="wgqo_BjnbtqxxB7jQF8x-17">
          <mxGeometry x="474" y="779" width="222" height="190.5" as="geometry" />
        </mxCell>
        <mxCell id="s34lRMNUB2OJTxqoYaER-16" value="fail to process" style="text;html=1;align=center;verticalAlign=middle;resizable=0;points=[];autosize=1;strokeColor=none;fillColor=none;labelBackgroundColor=none;" vertex="1" parent="s34lRMNUB2OJTxqoYaER-14">
          <mxGeometry x="87" y="20" width="92" height="26" as="geometry" />
        </mxCell>
        <mxCell id="s34lRMNUB2OJTxqoYaER-15" value="" style="endArrow=none;dashed=1;html=1;dashPattern=1 3;strokeWidth=2;rounded=0;exitX=0.02;exitY=0.568;exitDx=0;exitDy=0;exitPerimeter=0;labelBackgroundColor=none;fontColor=default;" edge="1" parent="s34lRMNUB2OJTxqoYaER-14" target="wgqo_BjnbtqxxB7jQF8x-7">
          <mxGeometry width="50" height="50" relative="1" as="geometry">
            <mxPoint x="1.8500000000001364" y="133.1719999999999" as="sourcePoint" />
            <mxPoint x="132.00199999999995" y="132.99799999999993" as="targetPoint" />
            <Array as="points">
              <mxPoint x="65.21000000000004" y="133.34000000000003" />
            </Array>
          </mxGeometry>
        </mxCell>
        <mxCell id="7fY5sP91VnXdCJbbnflD-18" value="Ref" style="shape=umlFrame;whiteSpace=wrap;html=1;pointerEvents=0;recursiveResize=0;container=1;collapsible=0;width=50;labelBackgroundColor=none;" vertex="1" parent="s34lRMNUB2OJTxqoYaER-14">
          <mxGeometry x="21" y="65" width="183" height="49" as="geometry" />
        </mxCell>
        <mxCell id="7fY5sP91VnXdCJbbnflD-20" value="&lt;font style=&quot;font-size: 14px;&quot;&gt;EmotionAnalysis&lt;/font&gt;" style="text;html=1;align=center;verticalAlign=middle;resizable=0;points=[];autosize=1;strokeColor=none;fillColor=none;labelBackgroundColor=none;" vertex="1" parent="7fY5sP91VnXdCJbbnflD-18">
          <mxGeometry x="35" y="10.5" width="121" height="29" as="geometry" />
        </mxCell>
        <mxCell id="7fY5sP91VnXdCJbbnflD-23" value="" style="endArrow=open;endFill=1;endSize=12;html=1;rounded=0;entryX=0.026;entryY=0.405;entryDx=0;entryDy=0;entryPerimeter=0;labelBackgroundColor=none;fontColor=default;" edge="1" parent="s34lRMNUB2OJTxqoYaER-14" source="wgqo_BjnbtqxxB7jQF8x-7">
          <mxGeometry width="160" relative="1" as="geometry">
            <mxPoint x="181.40999999999997" y="166" as="sourcePoint" />
            <mxPoint x="2.004000000000076" y="166" as="targetPoint" />
            <Array as="points" />
          </mxGeometry>
        </mxCell>
        <mxCell id="7fY5sP91VnXdCJbbnflD-3" value="process completed" style="text;html=1;align=center;verticalAlign=middle;resizable=0;points=[];autosize=1;strokeColor=none;fillColor=none;labelBackgroundColor=none;" vertex="1" parent="s34lRMNUB2OJTxqoYaER-14">
          <mxGeometry x="35" y="144" width="119" height="26" as="geometry" />
        </mxCell>
        <mxCell id="7fY5sP91VnXdCJbbnflD-63" value="" style="endArrow=open;endFill=1;endSize=12;html=1;rounded=0;exitX=-0.003;exitY=0.94;exitDx=0;exitDy=0;exitPerimeter=0;labelBackgroundColor=none;fontColor=default;" edge="1" parent="wgqo_BjnbtqxxB7jQF8x-17" target="wgqo_BjnbtqxxB7jQF8x-2">
          <mxGeometry width="160" relative="1" as="geometry">
            <mxPoint x="471.05399999999986" y="961.0000000000002" as="sourcePoint" />
            <mxPoint x="66.99777777777783" y="961.0000000000002" as="targetPoint" />
          </mxGeometry>
        </mxCell>
        <mxCell id="7fY5sP91VnXdCJbbnflD-39" value="" style="endArrow=open;endFill=1;endSize=12;html=1;rounded=0;labelBackgroundColor=none;fontColor=default;" edge="1" parent="wgqo_BjnbtqxxB7jQF8x-17">
          <mxGeometry width="160" relative="1" as="geometry">
            <mxPoint x="28" y="53" as="sourcePoint" />
            <mxPoint x="148" y="53" as="targetPoint" />
          </mxGeometry>
        </mxCell>
        <mxCell id="7fY5sP91VnXdCJbbnflD-42" value="both partner selected" style="edgeLabel;html=1;align=center;verticalAlign=middle;resizable=0;points=[];labelBackgroundColor=none;" connectable="0" vertex="1" parent="7fY5sP91VnXdCJbbnflD-39">
          <mxGeometry x="-0.3765" y="4" relative="1" as="geometry">
            <mxPoint x="21" y="32" as="offset" />
          </mxGeometry>
        </mxCell>
        <mxCell id="7fY5sP91VnXdCJbbnflD-44" value="check partner focus" style="text;html=1;align=center;verticalAlign=middle;resizable=0;points=[];autosize=1;strokeColor=none;fillColor=none;labelBackgroundColor=none;" vertex="1" parent="wgqo_BjnbtqxxB7jQF8x-17">
          <mxGeometry x="26" y="28" width="123" height="26" as="geometry" />
        </mxCell>
        <mxCell id="7fY5sP91VnXdCJbbnflD-43" value="" style="endArrow=open;endFill=1;endSize=12;html=1;rounded=0;labelBackgroundColor=none;fontColor=default;" edge="1" parent="wgqo_BjnbtqxxB7jQF8x-17">
          <mxGeometry width="160" relative="1" as="geometry">
            <mxPoint x="145.68" y="97.41" as="sourcePoint" />
            <mxPoint x="26" y="97" as="targetPoint" />
            <Array as="points">
              <mxPoint x="120" y="97" />
              <mxPoint x="85" y="97" />
            </Array>
          </mxGeometry>
        </mxCell>
        <mxCell id="wgqo_BjnbtqxxB7jQF8x-25" value="start recording" style="text;html=1;align=center;verticalAlign=middle;resizable=0;points=[];autosize=1;strokeColor=none;fillColor=none;labelBackgroundColor=none;" vertex="1" parent="wgqo_BjnbtqxxB7jQF8x-1">
          <mxGeometry x="88" y="121" width="95" height="26" as="geometry" />
        </mxCell>
        <mxCell id="7fY5sP91VnXdCJbbnflD-1" value="" style="endArrow=open;endFill=1;endSize=12;html=1;rounded=0;entryX=0.005;entryY=0.264;entryDx=0;entryDy=0;entryPerimeter=0;labelBackgroundColor=none;fontColor=default;" edge="1" parent="wgqo_BjnbtqxxB7jQF8x-1" source="wgqo_BjnbtqxxB7jQF8x-7" target="s34lRMNUB2OJTxqoYaER-14">
          <mxGeometry width="160" relative="1" as="geometry">
            <mxPoint x="649.07" y="577" as="sourcePoint" />
            <mxPoint x="564.0020000000001" y="577" as="targetPoint" />
          </mxGeometry>
        </mxCell>
        <mxCell id="7fY5sP91VnXdCJbbnflD-21" value="" style="endArrow=open;endFill=1;endSize=12;html=1;rounded=0;entryX=-0.005;entryY=0.796;entryDx=0;entryDy=0;entryPerimeter=0;labelBackgroundColor=none;fontColor=default;" edge="1" parent="wgqo_BjnbtqxxB7jQF8x-1" source="wgqo_BjnbtqxxB7jQF8x-4" target="7fY5sP91VnXdCJbbnflD-18">
          <mxGeometry width="160" relative="1" as="geometry">
            <mxPoint x="322" y="633" as="sourcePoint" />
            <mxPoint x="482" y="623" as="targetPoint" />
          </mxGeometry>
        </mxCell>
        <mxCell id="7fY5sP91VnXdCJbbnflD-59" value="fetchResult " style="text;html=1;align=center;verticalAlign=middle;resizable=0;points=[];autosize=1;strokeColor=none;fillColor=none;labelBackgroundColor=none;" vertex="1" parent="wgqo_BjnbtqxxB7jQF8x-1">
          <mxGeometry x="328" y="1284" width="78" height="26" as="geometry" />
        </mxCell>
        <mxCell id="7fY5sP91VnXdCJbbnflD-61" value="" style="html=1;verticalAlign=bottom;endArrow=block;curved=0;rounded=0;entryX=0;entryY=0;entryDx=0;entryDy=5;labelBackgroundColor=none;fontColor=default;" edge="1" parent="wgqo_BjnbtqxxB7jQF8x-1" source="wgqo_BjnbtqxxB7jQF8x-2" target="7fY5sP91VnXdCJbbnflD-60">
          <mxGeometry relative="1" as="geometry">
            <mxPoint x="204" y="1029" as="sourcePoint" />
            <Array as="points" />
          </mxGeometry>
        </mxCell>
        <mxCell id="7fY5sP91VnXdCJbbnflD-62" value="return" style="html=1;verticalAlign=bottom;endArrow=open;dashed=1;endSize=8;curved=0;rounded=0;exitX=0;exitY=1;exitDx=0;exitDy=-5;labelBackgroundColor=none;fontColor=default;" edge="1" parent="wgqo_BjnbtqxxB7jQF8x-1" source="7fY5sP91VnXdCJbbnflD-60" target="wgqo_BjnbtqxxB7jQF8x-2">
          <mxGeometry relative="1" as="geometry">
            <mxPoint x="204" y="1099" as="targetPoint" />
            <Array as="points" />
          </mxGeometry>
        </mxCell>
        <mxCell id="7fY5sP91VnXdCJbbnflD-66" value="Loop" style="shape=umlFrame;whiteSpace=wrap;html=1;pointerEvents=0;recursiveResize=0;container=1;collapsible=0;width=50;labelBackgroundColor=none;" vertex="1" parent="wgqo_BjnbtqxxB7jQF8x-1">
          <mxGeometry x="38" y="946" width="718" height="306" as="geometry" />
        </mxCell>
        <mxCell id="wgqo_BjnbtqxxB7jQF8x-19" value="Loop(2)" style="shape=umlFrame;whiteSpace=wrap;html=1;pointerEvents=0;recursiveResize=0;container=1;collapsible=0;width=50;labelBackgroundColor=none;" vertex="1" parent="wgqo_BjnbtqxxB7jQF8x-1">
          <mxGeometry x="36" y="393" width="716" height="362" as="geometry" />
        </mxCell>
        <mxCell id="7fY5sP91VnXdCJbbnflD-10" value="Seq" style="shape=umlFrame;whiteSpace=wrap;html=1;pointerEvents=0;recursiveResize=0;container=1;collapsible=0;width=50;labelBackgroundColor=none;" vertex="1" parent="wgqo_BjnbtqxxB7jQF8x-19">
          <mxGeometry x="244" y="203" width="296" height="125" as="geometry" />
        </mxCell>
        <mxCell id="wgqo_BjnbtqxxB7jQF8x-13" value="" style="endArrow=open;endFill=1;endSize=12;html=1;rounded=0;labelBackgroundColor=none;fontColor=default;" edge="1" parent="7fY5sP91VnXdCJbbnflD-10">
          <mxGeometry width="160" relative="1" as="geometry">
            <mxPoint x="33" y="106" as="sourcePoint" />
            <mxPoint x="278.5" y="106" as="targetPoint" />
            <Array as="points" />
          </mxGeometry>
        </mxCell>
        <mxCell id="wgqo_BjnbtqxxB7jQF8x-31" value="record b" style="text;html=1;align=center;verticalAlign=middle;resizable=0;points=[];autosize=1;strokeColor=none;fillColor=none;labelBackgroundColor=none;" vertex="1" parent="7fY5sP91VnXdCJbbnflD-10">
          <mxGeometry x="161" y="82" width="62" height="26" as="geometry" />
        </mxCell>
        <mxCell id="wgqo_BjnbtqxxB7jQF8x-27" value="record a" style="text;html=1;align=center;verticalAlign=middle;resizable=0;points=[];autosize=1;strokeColor=none;fillColor=none;labelBackgroundColor=none;" vertex="1" parent="7fY5sP91VnXdCJbbnflD-10">
          <mxGeometry x="53" y="17" width="62" height="26" as="geometry" />
        </mxCell>
        <mxCell id="wgqo_BjnbtqxxB7jQF8x-11" value="" style="endArrow=open;endFill=1;endSize=12;html=1;rounded=0;movable=1;resizable=1;rotatable=1;deletable=1;editable=1;locked=0;connectable=1;labelBackgroundColor=none;fontColor=default;" edge="1" parent="7fY5sP91VnXdCJbbnflD-10" target="wgqo_BjnbtqxxB7jQF8x-5">
          <mxGeometry width="160" relative="1" as="geometry">
            <mxPoint x="33" y="40" as="sourcePoint" />
            <mxPoint x="126.5" y="40.41" as="targetPoint" />
            <Array as="points">
              <mxPoint x="76" y="40" />
            </Array>
          </mxGeometry>
        </mxCell>
        <mxCell id="7fY5sP91VnXdCJbbnflD-12" value="" style="endArrow=none;html=1;rounded=0;exitX=0.003;exitY=0.589;exitDx=0;exitDy=0;exitPerimeter=0;entryX=0.992;entryY=0.587;entryDx=0;entryDy=0;entryPerimeter=0;labelBackgroundColor=none;fontColor=default;" edge="1" parent="wgqo_BjnbtqxxB7jQF8x-19" source="7fY5sP91VnXdCJbbnflD-10" target="7fY5sP91VnXdCJbbnflD-10">
          <mxGeometry width="50" height="50" relative="1" as="geometry">
            <mxPoint x="303" y="257" as="sourcePoint" />
            <mxPoint x="529" y="160" as="targetPoint" />
          </mxGeometry>
        </mxCell>
        <mxCell id="wgqo_BjnbtqxxB7jQF8x-21" value="Alt" style="shape=umlFrame;whiteSpace=wrap;html=1;pointerEvents=0;recursiveResize=0;container=1;collapsible=0;width=50;labelBackgroundColor=none;" vertex="1" parent="wgqo_BjnbtqxxB7jQF8x-19">
          <mxGeometry x="116" y="33" width="430" height="152" as="geometry" />
        </mxCell>
        <mxCell id="s34lRMNUB2OJTxqoYaER-6" value="cannot record" style="text;html=1;align=center;verticalAlign=middle;resizable=0;points=[];autosize=1;strokeColor=none;fillColor=none;labelBackgroundColor=none;" vertex="1" parent="wgqo_BjnbtqxxB7jQF8x-21">
          <mxGeometry x="66" y="19" width="91" height="26" as="geometry" />
        </mxCell>
        <mxCell id="s34lRMNUB2OJTxqoYaER-9" value="" style="endArrow=open;endFill=1;endSize=12;html=1;rounded=0;labelBackgroundColor=none;fontColor=default;" edge="1" parent="wgqo_BjnbtqxxB7jQF8x-21">
          <mxGeometry width="160" relative="1" as="geometry">
            <mxPoint x="163" y="131" as="sourcePoint" />
            <mxPoint x="45" y="131" as="targetPoint" />
          </mxGeometry>
        </mxCell>
        <mxCell id="s34lRMNUB2OJTxqoYaER-12" value="" style="endArrow=open;endFill=1;endSize=12;html=1;rounded=0;labelBackgroundColor=none;fontColor=default;" edge="1" parent="wgqo_BjnbtqxxB7jQF8x-21">
          <mxGeometry width="160" relative="1" as="geometry">
            <mxPoint x="45.5" y="50" as="sourcePoint" />
            <mxPoint x="-3" y="50" as="targetPoint" />
            <Array as="points">
              <mxPoint x="17" y="50" />
            </Array>
          </mxGeometry>
        </mxCell>
        <mxCell id="7fY5sP91VnXdCJbbnflD-24" value="record activated" style="text;html=1;align=center;verticalAlign=middle;resizable=0;points=[];autosize=1;strokeColor=none;fillColor=none;labelBackgroundColor=none;" vertex="1" parent="wgqo_BjnbtqxxB7jQF8x-21">
          <mxGeometry x="56" y="102" width="103" height="26" as="geometry" />
        </mxCell>
        <mxCell id="s34lRMNUB2OJTxqoYaER-8" value="" style="endArrow=open;endFill=1;endSize=12;html=1;rounded=0;labelBackgroundColor=none;fontColor=default;" edge="1" parent="wgqo_BjnbtqxxB7jQF8x-21">
          <mxGeometry width="160" relative="1" as="geometry">
            <mxPoint x="169.5" y="39" as="sourcePoint" />
            <mxPoint x="50.5" y="39" as="targetPoint" />
          </mxGeometry>
        </mxCell>
        <mxCell id="s34lRMNUB2OJTxqoYaER-5" value="" style="endArrow=none;dashed=1;html=1;dashPattern=1 3;strokeWidth=2;rounded=0;exitX=0.006;exitY=0.625;exitDx=0;exitDy=0;exitPerimeter=0;entryX=1.007;entryY=0.639;entryDx=0;entryDy=0;entryPerimeter=0;labelBackgroundColor=none;fontColor=default;" edge="1" parent="wgqo_BjnbtqxxB7jQF8x-21">
          <mxGeometry width="50" height="50" relative="1" as="geometry">
            <mxPoint x="-0.43000000000007255" y="88.00499999999977" as="sourcePoint" />
            <mxPoint x="430" y="90.37099999999975" as="targetPoint" />
          </mxGeometry>
        </mxCell>
        <mxCell id="s34lRMNUB2OJTxqoYaER-13" value="failure" style="text;html=1;align=center;verticalAlign=middle;resizable=0;points=[];autosize=1;strokeColor=none;fillColor=none;labelBackgroundColor=none;" vertex="1" parent="wgqo_BjnbtqxxB7jQF8x-19">
          <mxGeometry x="39" y="64" width="51" height="26" as="geometry" />
        </mxCell>
        <mxCell id="7fY5sP91VnXdCJbbnflD-53" value="" style="endArrow=open;endFill=1;endSize=12;html=1;rounded=0;exitX=0.009;exitY=0.486;exitDx=0;exitDy=0;exitPerimeter=0;labelBackgroundColor=none;fontColor=default;" edge="1" parent="wgqo_BjnbtqxxB7jQF8x-19">
          <mxGeometry width="160" relative="1" as="geometry">
            <mxPoint x="113.36999999999989" y="98.00400000000002" as="sourcePoint" />
            <mxPoint x="37" y="99.77999999999997" as="targetPoint" />
            <Array as="points" />
          </mxGeometry>
        </mxCell>
        <mxCell id="wgqo_BjnbtqxxB7jQF8x-26" value="activate record" style="text;html=1;align=center;verticalAlign=middle;resizable=0;points=[];autosize=1;strokeColor=none;fillColor=none;labelBackgroundColor=none;" vertex="1" parent="wgqo_BjnbtqxxB7jQF8x-1">
          <mxGeometry x="205" y="326" width="97" height="26" as="geometry" />
        </mxCell>
        <mxCell id="wgqo_BjnbtqxxB7jQF8x-10" value="" style="endArrow=open;endFill=1;endSize=12;html=1;rounded=0;labelBackgroundColor=none;fontColor=default;" edge="1" parent="wgqo_BjnbtqxxB7jQF8x-1">
          <mxGeometry width="160" relative="1" as="geometry">
            <mxPoint x="195" y="360" as="sourcePoint" />
            <mxPoint x="320" y="360" as="targetPoint" />
          </mxGeometry>
        </mxCell>
        <mxCell id="wgqo_BjnbtqxxB7jQF8x-24" value="Ref" style="shape=umlFrame;whiteSpace=wrap;html=1;pointerEvents=0;recursiveResize=0;container=1;collapsible=0;width=50;labelBackgroundColor=none;" vertex="1" parent="wgqo_BjnbtqxxB7jQF8x-1">
          <mxGeometry x="40" y="870" width="672" height="59" as="geometry" />
        </mxCell>
        <mxCell id="wgqo_BjnbtqxxB7jQF8x-62" value="&lt;font style=&quot;font-size: 18px;&quot;&gt;EmotionAnalysis&lt;/font&gt;" style="text;html=1;align=center;verticalAlign=middle;resizable=0;points=[];autosize=1;strokeColor=none;fillColor=none;labelBackgroundColor=none;" vertex="1" parent="wgqo_BjnbtqxxB7jQF8x-24">
          <mxGeometry x="115" y="16" width="151" height="34" as="geometry" />
        </mxCell>
        <mxCell id="7fY5sP91VnXdCJbbnflD-68" value="" style="endArrow=open;endFill=1;endSize=12;html=1;rounded=0;labelBackgroundColor=none;fontColor=default;" edge="1" parent="wgqo_BjnbtqxxB7jQF8x-1">
          <mxGeometry width="160" relative="1" as="geometry">
            <mxPoint x="196" y="814.38" as="sourcePoint" />
            <mxPoint x="672.5" y="814.3799999999999" as="targetPoint" />
          </mxGeometry>
        </mxCell>
        <mxCell id="7fY5sP91VnXdCJbbnflD-69" value="destruction" style="text;html=1;align=center;verticalAlign=middle;resizable=0;points=[];autosize=1;strokeColor=none;fillColor=none;labelBackgroundColor=none;" vertex="1" parent="wgqo_BjnbtqxxB7jQF8x-1">
          <mxGeometry x="347" y="791" width="77" height="26" as="geometry" />
        </mxCell>
        <mxCell id="7fY5sP91VnXdCJbbnflD-71" value="" style="endArrow=open;endFill=1;endSize=12;html=1;rounded=0;labelBackgroundColor=none;fontColor=default;" edge="1" parent="wgqo_BjnbtqxxB7jQF8x-1">
          <mxGeometry width="160" relative="1" as="geometry">
            <mxPoint x="199" y="790" as="sourcePoint" />
            <mxPoint x="72" y="789.75" as="targetPoint" />
          </mxGeometry>
        </mxCell>
        <mxCell id="7fY5sP91VnXdCJbbnflD-72" value="failure notification" style="text;html=1;align=center;verticalAlign=middle;resizable=0;points=[];autosize=1;strokeColor=none;fillColor=none;labelBackgroundColor=none;" vertex="1" parent="wgqo_BjnbtqxxB7jQF8x-1">
          <mxGeometry x="80" y="765" width="111" height="26" as="geometry" />
        </mxCell>
        <mxCell id="wgqo_BjnbtqxxB7jQF8x-36" value="&lt;font style=&quot;font-size: 14px;&quot;&gt;&lt;b&gt;SD EmotionAnalysis&lt;/b&gt;&lt;/font&gt;" style="shape=umlFrame;whiteSpace=wrap;html=1;pointerEvents=0;recursiveResize=0;container=1;collapsible=0;width=160;movable=1;resizable=1;rotatable=1;deletable=1;editable=1;locked=0;connectable=1;labelBackgroundColor=none;" vertex="1" parent="1">
          <mxGeometry x="37" y="1980.5" width="457" height="349" as="geometry" />
        </mxCell>
        <mxCell id="wgqo_BjnbtqxxB7jQF8x-37" value="&lt;b&gt;:Video Recorder&lt;/b&gt;" style="shape=umlLifeline;perimeter=lifelinePerimeter;whiteSpace=wrap;html=1;container=1;dropTarget=0;collapsible=0;recursiveResize=0;outlineConnect=0;portConstraint=eastwest;newEdgeStyle={&quot;edgeStyle&quot;:&quot;elbowEdgeStyle&quot;,&quot;elbow&quot;:&quot;vertical&quot;,&quot;curved&quot;:0,&quot;rounded&quot;:0};labelBackgroundColor=none;" vertex="1" parent="wgqo_BjnbtqxxB7jQF8x-36">
          <mxGeometry x="20" y="37" width="100" height="306" as="geometry" />
        </mxCell>
        <mxCell id="wgqo_BjnbtqxxB7jQF8x-38" value="&lt;b&gt;:Service&lt;/b&gt;" style="shape=umlLifeline;perimeter=lifelinePerimeter;whiteSpace=wrap;html=1;container=1;dropTarget=0;collapsible=0;recursiveResize=0;outlineConnect=0;portConstraint=eastwest;newEdgeStyle={&quot;edgeStyle&quot;:&quot;elbowEdgeStyle&quot;,&quot;elbow&quot;:&quot;vertical&quot;,&quot;curved&quot;:0,&quot;rounded&quot;:0};labelBackgroundColor=none;" vertex="1" parent="wgqo_BjnbtqxxB7jQF8x-36">
          <mxGeometry x="161" y="37" width="100" height="309" as="geometry" />
        </mxCell>
        <mxCell id="wgqo_BjnbtqxxB7jQF8x-39" value="&lt;b&gt;:Therapist&lt;/b&gt;" style="shape=umlLifeline;perimeter=lifelinePerimeter;whiteSpace=wrap;html=1;container=1;dropTarget=0;collapsible=0;recursiveResize=0;outlineConnect=0;portConstraint=eastwest;newEdgeStyle={&quot;edgeStyle&quot;:&quot;elbowEdgeStyle&quot;,&quot;elbow&quot;:&quot;vertical&quot;,&quot;curved&quot;:0,&quot;rounded&quot;:0};labelBackgroundColor=none;" vertex="1" parent="wgqo_BjnbtqxxB7jQF8x-36">
          <mxGeometry x="298" y="37" width="100" height="308" as="geometry" />
        </mxCell>
        <mxCell id="wgqo_BjnbtqxxB7jQF8x-40" value="" style="endArrow=open;endFill=1;endSize=12;html=1;rounded=0;labelBackgroundColor=none;fontColor=default;" edge="1" parent="wgqo_BjnbtqxxB7jQF8x-36" target="wgqo_BjnbtqxxB7jQF8x-38">
          <mxGeometry width="160" relative="1" as="geometry">
            <mxPoint x="69" y="118" as="sourcePoint" />
            <mxPoint x="229" y="118" as="targetPoint" />
          </mxGeometry>
        </mxCell>
        <mxCell id="wgqo_BjnbtqxxB7jQF8x-42" value="" style="endArrow=open;endFill=1;endSize=12;html=1;rounded=0;labelBackgroundColor=none;fontColor=default;" edge="1" parent="wgqo_BjnbtqxxB7jQF8x-36" target="wgqo_BjnbtqxxB7jQF8x-39">
          <mxGeometry width="160" relative="1" as="geometry">
            <mxPoint x="210" y="206" as="sourcePoint" />
            <mxPoint x="236" y="206" as="targetPoint" />
          </mxGeometry>
        </mxCell>
        <mxCell id="wgqo_BjnbtqxxB7jQF8x-48" value="process video A" style="text;html=1;align=center;verticalAlign=middle;resizable=0;points=[];autosize=1;strokeColor=none;fillColor=none;movable=0;rotatable=0;deletable=0;editable=0;locked=1;connectable=0;labelBackgroundColor=none;" vertex="1" parent="wgqo_BjnbtqxxB7jQF8x-36">
          <mxGeometry x="207" y="108" width="103" height="26" as="geometry" />
        </mxCell>
        <mxCell id="wgqo_BjnbtqxxB7jQF8x-41" value="send video for partner A" style="text;html=1;align=center;verticalAlign=middle;resizable=0;points=[];autosize=1;strokeColor=none;fillColor=none;labelBackgroundColor=none;" vertex="1" parent="wgqo_BjnbtqxxB7jQF8x-36">
          <mxGeometry x="68" y="93" width="146" height="26" as="geometry" />
        </mxCell>
        <mxCell id="wgqo_BjnbtqxxB7jQF8x-51" value="" style="endArrow=open;endFill=1;endSize=12;html=1;rounded=0;labelBackgroundColor=none;fontColor=default;" edge="1" parent="wgqo_BjnbtqxxB7jQF8x-36">
          <mxGeometry width="160" relative="1" as="geometry">
            <mxPoint x="72" y="234" as="sourcePoint" />
            <mxPoint x="213" y="234" as="targetPoint" />
          </mxGeometry>
        </mxCell>
        <mxCell id="wgqo_BjnbtqxxB7jQF8x-52" value="send video for partner B" style="text;html=1;align=center;verticalAlign=middle;resizable=0;points=[];autosize=1;strokeColor=none;fillColor=none;labelBackgroundColor=none;" vertex="1" parent="wgqo_BjnbtqxxB7jQF8x-36">
          <mxGeometry x="68" y="209" width="146" height="26" as="geometry" />
        </mxCell>
        <mxCell id="wgqo_BjnbtqxxB7jQF8x-58" value="" style="endArrow=open;endFill=1;endSize=12;html=1;rounded=0;labelBackgroundColor=none;fontColor=default;" edge="1" parent="wgqo_BjnbtqxxB7jQF8x-36">
          <mxGeometry width="160" relative="1" as="geometry">
            <mxPoint x="210" y="323" as="sourcePoint" />
            <mxPoint x="349" y="325" as="targetPoint" />
          </mxGeometry>
        </mxCell>
        <mxCell id="wgqo_BjnbtqxxB7jQF8x-59" value="send analysis result" style="text;html=1;align=center;verticalAlign=middle;resizable=0;points=[];autosize=1;strokeColor=none;fillColor=none;labelBackgroundColor=none;" vertex="1" parent="wgqo_BjnbtqxxB7jQF8x-36">
          <mxGeometry x="217" y="301" width="123" height="26" as="geometry" />
        </mxCell>
        <mxCell id="wgqo_BjnbtqxxB7jQF8x-49" value="sends analysis result" style="text;html=1;align=center;verticalAlign=middle;resizable=0;points=[];autosize=1;strokeColor=none;fillColor=none;labelBackgroundColor=none;" vertex="1" parent="wgqo_BjnbtqxxB7jQF8x-36">
          <mxGeometry x="207" y="183" width="129" height="26" as="geometry" />
        </mxCell>
        <mxCell id="7fY5sP91VnXdCJbbnflD-34" value="process video B" style="text;html=1;align=center;verticalAlign=middle;resizable=0;points=[];autosize=1;strokeColor=none;fillColor=none;labelBackgroundColor=none;" vertex="1" parent="wgqo_BjnbtqxxB7jQF8x-36">
          <mxGeometry x="214" y="217" width="103" height="26" as="geometry" />
        </mxCell>
        <mxCell id="7fY5sP91VnXdCJbbnflD-27" value="" style="html=1;points=[[0,0,0,0,5],[0,1,0,0,-5],[1,0,0,0,5],[1,1,0,0,-5]];perimeter=orthogonalPerimeter;outlineConnect=0;targetShapes=umlLifeline;portConstraint=eastwest;newEdgeStyle={&quot;curved&quot;:0,&quot;rounded&quot;:0};movable=0;resizable=0;rotatable=0;deletable=0;editable=0;locked=1;connectable=0;labelBackgroundColor=none;" vertex="1" parent="1">
          <mxGeometry x="241" y="2135" width="10" height="40" as="geometry" />
        </mxCell>
        <mxCell id="7fY5sP91VnXdCJbbnflD-28" value="self call" style="html=1;align=left;spacingLeft=2;endArrow=block;rounded=0;edgeStyle=orthogonalEdgeStyle;curved=0;rounded=0;labelBackgroundColor=none;fontColor=default;" edge="1" parent="1" target="7fY5sP91VnXdCJbbnflD-27">
          <mxGeometry relative="1" as="geometry">
            <mxPoint x="246" y="2115" as="sourcePoint" />
            <Array as="points">
              <mxPoint x="276" y="2145" />
            </Array>
          </mxGeometry>
        </mxCell>
        <mxCell id="7fY5sP91VnXdCJbbnflD-32" value="" style="html=1;points=[[0,0,0,0,5],[0,1,0,0,-5],[1,0,0,0,5],[1,1,0,0,-5]];perimeter=orthogonalPerimeter;outlineConnect=0;targetShapes=umlLifeline;portConstraint=eastwest;newEdgeStyle={&quot;curved&quot;:0,&quot;rounded&quot;:0};movable=0;resizable=0;rotatable=0;deletable=0;editable=0;locked=1;connectable=0;labelBackgroundColor=none;" vertex="1" parent="1">
          <mxGeometry x="241" y="2244" width="10" height="40" as="geometry" />
        </mxCell>
        <mxCell id="7fY5sP91VnXdCJbbnflD-33" value="self call" style="html=1;align=left;spacingLeft=2;endArrow=block;rounded=0;edgeStyle=orthogonalEdgeStyle;curved=0;rounded=0;movable=0;resizable=0;rotatable=0;deletable=0;editable=0;locked=1;connectable=0;labelBackgroundColor=none;fontColor=default;" edge="1" parent="1" target="7fY5sP91VnXdCJbbnflD-32">
          <mxGeometry relative="1" as="geometry">
            <mxPoint x="246" y="2224" as="sourcePoint" />
            <Array as="points">
              <mxPoint x="276" y="2254" />
            </Array>
          </mxGeometry>
        </mxCell>
      </root>
    </mxGraphModel>
  </diagram>
  <diagram id="nbGf52sVQURP1hSzE5dZ" name="task-3-sm">
    <mxGraphModel dx="1026" dy="575" grid="1" gridSize="10" guides="1" tooltips="1" connect="1" arrows="1" fold="1" page="1" pageScale="1" pageWidth="827" pageHeight="1169" math="0" shadow="0">
      <root>
        <mxCell id="0" />
        <mxCell id="1" parent="0" />
      </root>
    </mxGraphModel>
  </diagram>
  <diagram id="M6x1b6NVa6k-G8GQgagW" name="Task-I-oblig-1-cd">
    <mxGraphModel grid="0" page="1" gridSize="10" guides="1" tooltips="1" connect="1" arrows="1" fold="1" pageScale="1" pageWidth="827" pageHeight="1169" math="0" shadow="0">
      <root>
        <mxCell id="0" />
        <mxCell id="1" parent="0" />
        <mxCell id="VXFFvyp7Jk-jwuBDLO0F-6" value="&lt;b&gt;&lt;font style=&quot;font-size: 14px;&quot;&gt;:Event&lt;/font&gt;&lt;/b&gt;" style="html=1;whiteSpace=wrap;" vertex="1" parent="1">
          <mxGeometry x="560" y="240" width="160" height="80" as="geometry" />
        </mxCell>
        <mxCell id="VXFFvyp7Jk-jwuBDLO0F-7" value=":EventOrganizer" style="html=1;whiteSpace=wrap;" vertex="1" parent="1">
          <mxGeometry x="619" y="53" width="130" height="50" as="geometry" />
        </mxCell>
        <mxCell id="nLFiPMIi8x7Z5SYmup_8-3" value=":Third-PartyProvider" style="html=1;whiteSpace=wrap;movable=1;resizable=1;rotatable=1;deletable=1;editable=1;locked=0;connectable=1;" vertex="1" parent="1">
          <mxGeometry x="240" y="240" width="120" height="60" as="geometry" />
        </mxCell>
        <mxCell id="nLFiPMIi8x7Z5SYmup_8-4" value=":OrganizerDashboard" style="html=1;whiteSpace=wrap;" vertex="1" parent="1">
          <mxGeometry x="417" y="53" width="120" height="50.5" as="geometry" />
        </mxCell>
        <mxCell id="nLFiPMIi8x7Z5SYmup_8-5" value=":EventDatabase" style="html=1;whiteSpace=wrap;movable=1;resizable=1;rotatable=1;deletable=1;editable=1;locked=0;connectable=1;" vertex="1" parent="1">
          <mxGeometry x="213" y="53" width="150" height="50" as="geometry" />
        </mxCell>
        <mxCell id="nLFiPMIi8x7Z5SYmup_8-6" value=":ThirdPartyService" style="html=1;whiteSpace=wrap;movable=1;resizable=1;rotatable=1;deletable=1;editable=1;locked=0;connectable=1;" vertex="1" parent="1">
          <mxGeometry x="220" y="340" width="170" height="50" as="geometry" />
        </mxCell>
        <mxCell id="nLFiPMIi8x7Z5SYmup_8-7" value=":PaymentGateway" style="html=1;whiteSpace=wrap;movable=1;resizable=1;rotatable=1;deletable=1;editable=1;locked=0;connectable=1;" vertex="1" parent="1">
          <mxGeometry x="40" y="520" width="110" height="50" as="geometry" />
        </mxCell>
        <mxCell id="nLFiPMIi8x7Z5SYmup_8-8" value=":Coustmer (ticket buyer)" style="html=1;whiteSpace=wrap;movable=1;resizable=1;rotatable=1;deletable=1;editable=1;locked=0;connectable=1;" vertex="1" parent="1">
          <mxGeometry x="850" y="240" width="110" height="50" as="geometry" />
        </mxCell>
        <mxCell id="nLFiPMIi8x7Z5SYmup_8-9" value=":TicketSystem" style="html=1;whiteSpace=wrap;movable=1;resizable=1;rotatable=1;deletable=1;editable=1;locked=0;connectable=1;" vertex="1" parent="1">
          <mxGeometry x="560" y="400" width="120" height="50" as="geometry" />
        </mxCell>
        <mxCell id="nLFiPMIi8x7Z5SYmup_8-10" value=":Ticket" style="html=1;whiteSpace=wrap;movable=1;resizable=1;rotatable=1;deletable=1;editable=1;locked=0;connectable=1;" vertex="1" parent="1">
          <mxGeometry x="850" y="400" width="110" height="50" as="geometry" />
        </mxCell>
        <mxCell id="nLFiPMIi8x7Z5SYmup_8-11" value=":EmailService" style="html=1;whiteSpace=wrap;movable=1;resizable=1;rotatable=1;deletable=1;editable=1;locked=0;connectable=1;" vertex="1" parent="1">
          <mxGeometry x="220" y="520" width="100" height="50" as="geometry" />
        </mxCell>
        <mxCell id="nLFiPMIi8x7Z5SYmup_8-12" value=":DatabaseService" style="html=1;whiteSpace=wrap;movable=1;resizable=1;rotatable=1;deletable=1;editable=1;locked=0;connectable=1;" vertex="1" parent="1">
          <mxGeometry x="380" y="520" width="100" height="50" as="geometry" />
        </mxCell>
        <mxCell id="nLFiPMIi8x7Z5SYmup_8-13" value=":AccountingService" style="html=1;whiteSpace=wrap;movable=1;resizable=1;rotatable=1;deletable=1;editable=1;locked=0;connectable=1;" vertex="1" parent="1">
          <mxGeometry x="40" y="340" width="110" height="50" as="geometry" />
        </mxCell>
        <mxCell id="nLFiPMIi8x7Z5SYmup_8-14" value=":PaymentSystem" style="html=1;whiteSpace=wrap;movable=1;resizable=1;rotatable=1;deletable=1;editable=1;locked=0;connectable=1;" vertex="1" parent="1">
          <mxGeometry x="560" y="520" width="110" height="50" as="geometry" />
        </mxCell>
        <mxCell id="nLFiPMIi8x7Z5SYmup_8-18" value="" style="endArrow=none;html=1;rounded=0;entryX=0;entryY=0.5;entryDx=0;entryDy=0;" edge="1" parent="1" target="nLFiPMIi8x7Z5SYmup_8-8">
          <mxGeometry width="50" height="50" relative="1" as="geometry">
            <mxPoint x="724" y="265" as="sourcePoint" />
            <mxPoint x="650" y="300" as="targetPoint" />
          </mxGeometry>
        </mxCell>
        <mxCell id="nLFiPMIi8x7Z5SYmup_8-19" value="" style="endArrow=none;html=1;rounded=0;exitX=0.5;exitY=0;exitDx=0;exitDy=0;entryX=0.5;entryY=1;entryDx=0;entryDy=0;" edge="1" parent="1" source="nLFiPMIi8x7Z5SYmup_8-10" target="nLFiPMIi8x7Z5SYmup_8-8">
          <mxGeometry width="50" height="50" relative="1" as="geometry">
            <mxPoint x="880" y="400" as="sourcePoint" />
            <mxPoint x="879" y="290" as="targetPoint" />
          </mxGeometry>
        </mxCell>
        <mxCell id="nLFiPMIi8x7Z5SYmup_8-20" value="" style="endArrow=none;html=1;rounded=0;entryX=0.363;entryY=1.05;entryDx=0;entryDy=0;entryPerimeter=0;" edge="1" parent="1" target="VXFFvyp7Jk-jwuBDLO0F-6">
          <mxGeometry width="50" height="50" relative="1" as="geometry">
            <mxPoint x="618" y="400" as="sourcePoint" />
            <mxPoint x="650" y="300" as="targetPoint" />
          </mxGeometry>
        </mxCell>
        <mxCell id="nLFiPMIi8x7Z5SYmup_8-21" value="" style="endArrow=none;html=1;rounded=0;" edge="1" parent="1">
          <mxGeometry width="50" height="50" relative="1" as="geometry">
            <mxPoint x="620" y="520" as="sourcePoint" />
            <mxPoint x="620" y="451" as="targetPoint" />
          </mxGeometry>
        </mxCell>
        <mxCell id="nLFiPMIi8x7Z5SYmup_8-43" value="&lt;font style=&quot;font-size: 14px;&quot;&gt;works&lt;/font&gt;" style="edgeLabel;html=1;align=center;verticalAlign=middle;resizable=0;points=[];" connectable="0" vertex="1" parent="nLFiPMIi8x7Z5SYmup_8-21">
          <mxGeometry x="0.0531" y="-5" relative="1" as="geometry">
            <mxPoint x="-28" y="-24" as="offset" />
          </mxGeometry>
        </mxCell>
        <mxCell id="nLFiPMIi8x7Z5SYmup_8-22" value="" style="endArrow=none;html=1;rounded=0;entryX=0;entryY=0.5;entryDx=0;entryDy=0;exitX=1;exitY=0.5;exitDx=0;exitDy=0;" edge="1" parent="1" source="nLFiPMIi8x7Z5SYmup_8-9" target="nLFiPMIi8x7Z5SYmup_8-10">
          <mxGeometry width="50" height="50" relative="1" as="geometry">
            <mxPoint x="630" y="390" as="sourcePoint" />
            <mxPoint x="680" y="340" as="targetPoint" />
          </mxGeometry>
        </mxCell>
        <mxCell id="nLFiPMIi8x7Z5SYmup_8-24" value="" style="endArrow=none;html=1;rounded=0;exitX=1;exitY=0.5;exitDx=0;exitDy=0;" edge="1" parent="1" source="nLFiPMIi8x7Z5SYmup_8-14">
          <mxGeometry width="50" height="50" relative="1" as="geometry">
            <mxPoint x="700" y="532.5" as="sourcePoint" />
            <mxPoint x="960" y="260" as="targetPoint" />
            <Array as="points">
              <mxPoint x="1000" y="545" />
              <mxPoint x="1000" y="260" />
            </Array>
          </mxGeometry>
        </mxCell>
        <mxCell id="nLFiPMIi8x7Z5SYmup_8-26" value="" style="endArrow=none;html=1;rounded=0;entryX=0.5;entryY=1;entryDx=0;entryDy=0;exitX=0.465;exitY=0.02;exitDx=0;exitDy=0;exitPerimeter=0;" edge="1" parent="1" source="nLFiPMIi8x7Z5SYmup_8-6" target="nLFiPMIi8x7Z5SYmup_8-3">
          <mxGeometry width="50" height="50" relative="1" as="geometry">
            <mxPoint x="430" y="400" as="sourcePoint" />
            <mxPoint x="480" y="350" as="targetPoint" />
          </mxGeometry>
        </mxCell>
        <mxCell id="nLFiPMIi8x7Z5SYmup_8-27" value="" style="endArrow=block;endSize=16;endFill=0;html=1;rounded=0;exitX=1;exitY=0.5;exitDx=0;exitDy=0;" edge="1" parent="1" source="nLFiPMIi8x7Z5SYmup_8-13" target="nLFiPMIi8x7Z5SYmup_8-6">
          <mxGeometry width="160" relative="1" as="geometry">
            <mxPoint x="140" y="360" as="sourcePoint" />
            <mxPoint x="440" y="360" as="targetPoint" />
          </mxGeometry>
        </mxCell>
        <mxCell id="nLFiPMIi8x7Z5SYmup_8-28" value="Extends" style="endArrow=block;endSize=16;endFill=0;html=1;rounded=0;exitX=0.367;exitY=0;exitDx=0;exitDy=0;exitPerimeter=0;entryX=0.182;entryY=1.08;entryDx=0;entryDy=0;entryPerimeter=0;" edge="1" parent="1" source="nLFiPMIi8x7Z5SYmup_8-7" target="nLFiPMIi8x7Z5SYmup_8-6">
          <mxGeometry width="160" relative="1" as="geometry">
            <mxPoint x="280" y="360" as="sourcePoint" />
            <mxPoint x="440" y="360" as="targetPoint" />
          </mxGeometry>
        </mxCell>
        <mxCell id="nLFiPMIi8x7Z5SYmup_8-29" value="Extends" style="endArrow=block;endSize=16;endFill=0;html=1;rounded=0;entryX=0.365;entryY=1.06;entryDx=0;entryDy=0;entryPerimeter=0;exitX=0.615;exitY=0.05;exitDx=0;exitDy=0;exitPerimeter=0;" edge="1" parent="1" source="nLFiPMIi8x7Z5SYmup_8-11" target="nLFiPMIi8x7Z5SYmup_8-6">
          <mxGeometry width="160" relative="1" as="geometry">
            <mxPoint x="280" y="510" as="sourcePoint" />
            <mxPoint x="440" y="360" as="targetPoint" />
          </mxGeometry>
        </mxCell>
        <mxCell id="nLFiPMIi8x7Z5SYmup_8-30" value="Extends" style="endArrow=block;endSize=16;endFill=0;html=1;rounded=0;exitX=0.5;exitY=0;exitDx=0;exitDy=0;entryX=0.865;entryY=1.04;entryDx=0;entryDy=0;entryPerimeter=0;" edge="1" parent="1" source="nLFiPMIi8x7Z5SYmup_8-12" target="nLFiPMIi8x7Z5SYmup_8-6">
          <mxGeometry width="160" relative="1" as="geometry">
            <mxPoint x="280" y="360" as="sourcePoint" />
            <mxPoint x="440" y="360" as="targetPoint" />
          </mxGeometry>
        </mxCell>
        <mxCell id="nLFiPMIi8x7Z5SYmup_8-31" value="" style="endArrow=diamondThin;endFill=1;endSize=24;html=1;rounded=0;entryX=0.328;entryY=0.967;entryDx=0;entryDy=0;entryPerimeter=0;exitX=0.627;exitY=0.046;exitDx=0;exitDy=0;exitPerimeter=0;" edge="1" parent="1" source="VXFFvyp7Jk-jwuBDLO0F-6" target="VXFFvyp7Jk-jwuBDLO0F-7">
          <mxGeometry width="160" relative="1" as="geometry">
            <mxPoint x="662" y="234" as="sourcePoint" />
            <mxPoint x="650" y="280" as="targetPoint" />
          </mxGeometry>
        </mxCell>
        <mxCell id="nLFiPMIi8x7Z5SYmup_8-32" value="&lt;font style=&quot;font-size: 14px;&quot;&gt;1..*&lt;/font&gt;" style="text;html=1;align=center;verticalAlign=middle;resizable=0;points=[];autosize=1;strokeColor=none;fillColor=none;" vertex="1" parent="1">
          <mxGeometry x="656" y="212" width="39" height="29" as="geometry" />
        </mxCell>
        <mxCell id="nLFiPMIi8x7Z5SYmup_8-33" value="&lt;font style=&quot;font-size: 14px;&quot;&gt;1&lt;/font&gt;" style="text;html=1;align=center;verticalAlign=middle;resizable=0;points=[];autosize=1;strokeColor=none;fillColor=none;" vertex="1" parent="1">
          <mxGeometry x="667" y="103.5" width="26" height="29" as="geometry" />
        </mxCell>
        <mxCell id="nLFiPMIi8x7Z5SYmup_8-35" value="&lt;font style=&quot;font-size: 14px;&quot;&gt;0..*&lt;/font&gt;" style="text;html=1;align=center;verticalAlign=middle;resizable=0;points=[];autosize=1;strokeColor=none;fillColor=none;" vertex="1" parent="1">
          <mxGeometry x="900" y="378" width="40" height="30" as="geometry" />
        </mxCell>
        <mxCell id="nLFiPMIi8x7Z5SYmup_8-36" value="&lt;font style=&quot;font-size: 14px;&quot;&gt;1&lt;/font&gt;" style="text;html=1;align=center;verticalAlign=middle;resizable=0;points=[];autosize=1;strokeColor=none;fillColor=none;" vertex="1" parent="1">
          <mxGeometry x="900" y="290" width="30" height="30" as="geometry" />
        </mxCell>
        <mxCell id="nLFiPMIi8x7Z5SYmup_8-37" value="&lt;font style=&quot;font-size: 14px;&quot;&gt;1..*&lt;/font&gt;" style="text;html=1;align=center;verticalAlign=middle;resizable=0;points=[];autosize=1;strokeColor=none;fillColor=none;" vertex="1" parent="1">
          <mxGeometry x="831" y="371" width="39" height="29" as="geometry" />
        </mxCell>
        <mxCell id="nLFiPMIi8x7Z5SYmup_8-38" value="&lt;font style=&quot;font-size: 18px;&quot;&gt;*&lt;/font&gt;" style="text;html=1;align=center;verticalAlign=middle;resizable=0;points=[];autosize=1;strokeColor=none;fillColor=none;" vertex="1" parent="1">
          <mxGeometry x="360" y="245" width="30" height="40" as="geometry" />
        </mxCell>
        <mxCell id="nLFiPMIi8x7Z5SYmup_8-40" value="&lt;font style=&quot;font-size: 14px;&quot;&gt;1&lt;/font&gt;" style="text;html=1;align=center;verticalAlign=middle;resizable=0;points=[];autosize=1;strokeColor=none;fillColor=none;" vertex="1" parent="1">
          <mxGeometry x="612" y="379" width="26" height="29" as="geometry" />
        </mxCell>
        <mxCell id="nLFiPMIi8x7Z5SYmup_8-41" value="&lt;font style=&quot;font-size: 14px;&quot;&gt;use&lt;/font&gt;" style="text;html=1;align=center;verticalAlign=middle;resizable=0;points=[];autosize=1;strokeColor=none;fillColor=none;" vertex="1" parent="1">
          <mxGeometry x="615" y="348" width="50" height="30" as="geometry" />
        </mxCell>
        <mxCell id="nLFiPMIi8x7Z5SYmup_8-42" value="&lt;font style=&quot;font-size: 14px;&quot;&gt;1..*&lt;/font&gt;" style="text;html=1;align=center;verticalAlign=middle;resizable=0;points=[];autosize=1;strokeColor=none;fillColor=none;" vertex="1" parent="1">
          <mxGeometry x="618" y="448" width="39" height="29" as="geometry" />
        </mxCell>
        <mxCell id="nLFiPMIi8x7Z5SYmup_8-44" value="&lt;font style=&quot;font-size: 14px;&quot;&gt;1..*&lt;/font&gt;" style="text;html=1;align=center;verticalAlign=middle;resizable=0;points=[];autosize=1;strokeColor=none;fillColor=none;" vertex="1" parent="1">
          <mxGeometry x="522" y="204" width="40" height="30" as="geometry" />
        </mxCell>
        <mxCell id="nLFiPMIi8x7Z5SYmup_8-45" value="&lt;font style=&quot;font-size: 14px;&quot;&gt;1&lt;/font&gt;" style="text;html=1;align=center;verticalAlign=middle;resizable=0;points=[];autosize=1;strokeColor=none;fillColor=none;" vertex="1" parent="1">
          <mxGeometry x="269" y="109" width="30" height="30" as="geometry" />
        </mxCell>
        <mxCell id="nLFiPMIi8x7Z5SYmup_8-46" value="" style="endArrow=diamondThin;endFill=1;endSize=24;html=1;rounded=0;" edge="1" parent="1" source="VXFFvyp7Jk-jwuBDLO0F-6">
          <mxGeometry width="160" relative="1" as="geometry">
            <mxPoint x="390" y="480" as="sourcePoint" />
            <mxPoint x="296" y="109" as="targetPoint" />
          </mxGeometry>
        </mxCell>
        <mxCell id="nLFiPMIi8x7Z5SYmup_8-47" value="" style="endArrow=diamondThin;endFill=0;endSize=24;html=1;rounded=0;entryX=1;entryY=1;entryDx=0;entryDy=0;exitX=0;exitY=0;exitDx=0;exitDy=0;" edge="1" parent="1" source="nLFiPMIi8x7Z5SYmup_8-10" target="VXFFvyp7Jk-jwuBDLO0F-6">
          <mxGeometry width="160" relative="1" as="geometry">
            <mxPoint x="760" y="470" as="sourcePoint" />
            <mxPoint x="640" y="460" as="targetPoint" />
          </mxGeometry>
        </mxCell>
        <mxCell id="nLFiPMIi8x7Z5SYmup_8-48" value="&lt;font style=&quot;font-size: 14px;&quot;&gt;1&lt;/font&gt;" style="text;html=1;align=center;verticalAlign=middle;resizable=0;points=[];autosize=1;strokeColor=none;fillColor=none;" vertex="1" parent="1">
          <mxGeometry x="717" y="331" width="26" height="29" as="geometry" />
        </mxCell>
        <mxCell id="nLFiPMIi8x7Z5SYmup_8-49" value="&lt;font style=&quot;font-size: 14px;&quot;&gt;1&lt;/font&gt;" style="text;html=1;align=center;verticalAlign=middle;resizable=0;points=[];autosize=1;strokeColor=none;fillColor=none;" vertex="1" parent="1">
          <mxGeometry x="617" y="319" width="26" height="29" as="geometry" />
        </mxCell>
        <mxCell id="nLFiPMIi8x7Z5SYmup_8-50" value="interact" style="text;html=1;align=center;verticalAlign=middle;resizable=0;points=[];autosize=1;strokeColor=none;fillColor=none;" vertex="1" parent="1">
          <mxGeometry x="410" y="245" width="60" height="30" as="geometry" />
        </mxCell>
        <mxCell id="nLFiPMIi8x7Z5SYmup_8-51" value="&lt;font style=&quot;font-size: 14px;&quot;&gt;1&lt;/font&gt;" style="text;html=1;align=center;verticalAlign=middle;resizable=0;points=[];autosize=1;strokeColor=none;fillColor=none;" vertex="1" parent="1">
          <mxGeometry x="522" y="246" width="26" height="29" as="geometry" />
        </mxCell>
        <mxCell id="p5UBoh67olgGvw_-wk7U-1" value="&lt;font style=&quot;font-size: 18px;&quot;&gt;*&lt;/font&gt;" style="text;html=1;align=center;verticalAlign=middle;resizable=0;points=[];autosize=1;strokeColor=none;fillColor=none;" vertex="1" parent="1">
          <mxGeometry x="825" y="423" width="25" height="34" as="geometry" />
        </mxCell>
        <mxCell id="p5UBoh67olgGvw_-wk7U-2" value="&lt;font style=&quot;font-size: 14px;&quot;&gt;1&lt;/font&gt;" style="text;html=1;align=center;verticalAlign=middle;resizable=0;points=[];autosize=1;strokeColor=none;fillColor=none;" vertex="1" parent="1">
          <mxGeometry x="681" y="423" width="26" height="29" as="geometry" />
        </mxCell>
        <mxCell id="p5UBoh67olgGvw_-wk7U-3" value="&lt;font style=&quot;font-size: 18px;&quot;&gt;*&lt;/font&gt;" style="text;html=1;align=center;verticalAlign=middle;resizable=0;points=[];autosize=1;strokeColor=none;fillColor=none;" vertex="1" parent="1">
          <mxGeometry x="670" y="544" width="25" height="34" as="geometry" />
        </mxCell>
        <mxCell id="p5UBoh67olgGvw_-wk7U-4" value="&lt;font style=&quot;font-size: 18px;&quot;&gt;*&lt;/font&gt;" style="text;html=1;align=center;verticalAlign=middle;resizable=0;points=[];autosize=1;strokeColor=none;fillColor=none;" vertex="1" parent="1">
          <mxGeometry x="963" y="240" width="25" height="34" as="geometry" />
        </mxCell>
        <mxCell id="p5UBoh67olgGvw_-wk7U-6" value="&lt;font style=&quot;font-size: 14px;&quot;&gt;interacts&lt;/font&gt;" style="text;html=1;align=center;verticalAlign=middle;resizable=0;points=[];autosize=1;strokeColor=none;fillColor=none;rotation=270;" vertex="1" parent="1">
          <mxGeometry x="956" y="343" width="71" height="29" as="geometry" />
        </mxCell>
        <mxCell id="p5UBoh67olgGvw_-wk7U-7" value="&lt;font style=&quot;font-size: 14px;&quot;&gt;uses&lt;/font&gt;" style="text;html=1;align=center;verticalAlign=middle;resizable=0;points=[];autosize=1;strokeColor=none;fillColor=none;" vertex="1" parent="1">
          <mxGeometry x="758" y="522" width="48" height="29" as="geometry" />
        </mxCell>
        <mxCell id="p5UBoh67olgGvw_-wk7U-8" value="&lt;font style=&quot;font-size: 14px;&quot;&gt;1&lt;/font&gt;" style="text;html=1;align=center;verticalAlign=middle;resizable=0;points=[];autosize=1;strokeColor=none;fillColor=none;" vertex="1" parent="1">
          <mxGeometry x="619" y="498" width="26" height="29" as="geometry" />
        </mxCell>
        <mxCell id="p5UBoh67olgGvw_-wk7U-12" value="&lt;font style=&quot;font-size: 14px;&quot;&gt;1..*&lt;/font&gt;" style="text;html=1;align=center;verticalAlign=middle;resizable=0;points=[];autosize=1;strokeColor=none;fillColor=none;" vertex="1" parent="1">
          <mxGeometry x="296" y="316" width="39" height="29" as="geometry" />
        </mxCell>
        <mxCell id="p5UBoh67olgGvw_-wk7U-13" value="&lt;font style=&quot;font-size: 14px;&quot;&gt;1&lt;/font&gt;" style="text;html=1;align=center;verticalAlign=middle;resizable=0;points=[];autosize=1;strokeColor=none;fillColor=none;" vertex="1" parent="1">
          <mxGeometry x="278" y="296" width="26" height="29" as="geometry" />
        </mxCell>
        <mxCell id="p5UBoh67olgGvw_-wk7U-15" value="&lt;font style=&quot;font-size: 18px;&quot;&gt;*&lt;/font&gt;" style="text;html=1;align=center;verticalAlign=middle;resizable=0;points=[];autosize=1;strokeColor=none;fillColor=none;" vertex="1" parent="1">
          <mxGeometry x="821" y="241" width="25" height="34" as="geometry" />
        </mxCell>
        <mxCell id="p5UBoh67olgGvw_-wk7U-16" value="&lt;font style=&quot;font-size: 14px;&quot;&gt;0..*&lt;/font&gt;" style="text;html=1;align=center;verticalAlign=middle;resizable=0;points=[];autosize=1;strokeColor=none;fillColor=none;" vertex="1" parent="1">
          <mxGeometry x="718" y="242" width="39" height="29" as="geometry" />
        </mxCell>
        <mxCell id="p5UBoh67olgGvw_-wk7U-17" value="have" style="text;html=1;align=center;verticalAlign=middle;resizable=0;points=[];autosize=1;strokeColor=none;fillColor=none;" vertex="1" parent="1">
          <mxGeometry x="803" y="271" width="44" height="26" as="geometry" />
        </mxCell>
        <mxCell id="p5UBoh67olgGvw_-wk7U-18" value="attend" style="text;html=1;align=center;verticalAlign=middle;resizable=0;points=[];autosize=1;strokeColor=none;fillColor=none;" vertex="1" parent="1">
          <mxGeometry x="712" y="273" width="51" height="26" as="geometry" />
        </mxCell>
        <mxCell id="p5UBoh67olgGvw_-wk7U-19" value="linked" style="text;html=1;align=center;verticalAlign=middle;resizable=0;points=[];autosize=1;strokeColor=none;fillColor=none;" vertex="1" parent="1">
          <mxGeometry x="570" y="498" width="49" height="26" as="geometry" />
        </mxCell>
        <mxCell id="p5UBoh67olgGvw_-wk7U-20" value="belongs" style="text;html=1;align=center;verticalAlign=middle;resizable=0;points=[];autosize=1;strokeColor=none;fillColor=none;" vertex="1" parent="1">
          <mxGeometry x="673" y="400" width="60" height="26" as="geometry" />
        </mxCell>
        <mxCell id="p5UBoh67olgGvw_-wk7U-21" value="manages" style="text;html=1;align=center;verticalAlign=middle;resizable=0;points=[];autosize=1;strokeColor=none;fillColor=none;" vertex="1" parent="1">
          <mxGeometry x="778" y="404" width="67" height="26" as="geometry" />
        </mxCell>
        <mxCell id="p5UBoh67olgGvw_-wk7U-22" value="generates" style="text;html=1;align=center;verticalAlign=middle;resizable=0;points=[];autosize=1;strokeColor=none;fillColor=none;" vertex="1" parent="1">
          <mxGeometry x="786" y="352" width="71" height="26" as="geometry" />
        </mxCell>
        <mxCell id="p5UBoh67olgGvw_-wk7U-23" value="manage" style="text;html=1;align=center;verticalAlign=middle;resizable=0;points=[];autosize=1;strokeColor=none;fillColor=none;" vertex="1" parent="1">
          <mxGeometry x="653.5" y="190" width="61" height="26" as="geometry" />
        </mxCell>
        <mxCell id="p5UBoh67olgGvw_-wk7U-24" value="belongs" style="text;html=1;align=center;verticalAlign=middle;resizable=0;points=[];autosize=1;strokeColor=none;fillColor=none;" vertex="1" parent="1">
          <mxGeometry x="597" y="131" width="60" height="26" as="geometry" />
        </mxCell>
        <mxCell id="p5UBoh67olgGvw_-wk7U-26" value="stores" style="text;html=1;align=center;verticalAlign=middle;resizable=0;points=[];autosize=1;strokeColor=none;fillColor=none;" vertex="1" parent="1">
          <mxGeometry x="480" y="182" width="51" height="26" as="geometry" />
        </mxCell>
        <mxCell id="p5UBoh67olgGvw_-wk7U-30" value="&lt;font style=&quot;font-size: 14px;&quot;&gt;1&lt;/font&gt;" style="text;html=1;align=center;verticalAlign=middle;resizable=0;points=[];autosize=1;strokeColor=none;fillColor=none;" vertex="1" parent="1">
          <mxGeometry x="594" y="55" width="26" height="29" as="geometry" />
        </mxCell>
        <mxCell id="p5UBoh67olgGvw_-wk7U-31" value="&lt;font style=&quot;font-size: 18px;&quot;&gt;*&lt;/font&gt;" style="text;html=1;align=center;verticalAlign=middle;resizable=0;points=[];autosize=1;strokeColor=none;fillColor=none;" vertex="1" parent="1">
          <mxGeometry x="535" y="57" width="25" height="34" as="geometry" />
        </mxCell>
        <mxCell id="p5UBoh67olgGvw_-wk7U-33" value=":Frontend" style="html=1;whiteSpace=wrap;" vertex="1" parent="1">
          <mxGeometry x="857" y="55" width="130" height="50" as="geometry" />
        </mxCell>
        <mxCell id="p5UBoh67olgGvw_-wk7U-34" value="" style="endArrow=open;endFill=1;endSize=12;html=1;rounded=0;exitX=0.169;exitY=1.02;exitDx=0;exitDy=0;exitPerimeter=0;" edge="1" parent="1" source="p5UBoh67olgGvw_-wk7U-33">
          <mxGeometry width="160" relative="1" as="geometry">
            <mxPoint x="580" y="202" as="sourcePoint" />
            <mxPoint x="710" y="237" as="targetPoint" />
          </mxGeometry>
        </mxCell>
        <mxCell id="p5UBoh67olgGvw_-wk7U-35" value="" style="endArrow=open;endFill=1;endSize=12;html=1;rounded=0;exitX=0.5;exitY=1;exitDx=0;exitDy=0;" edge="1" parent="1" source="p5UBoh67olgGvw_-wk7U-33">
          <mxGeometry width="160" relative="1" as="geometry">
            <mxPoint x="646" y="280" as="sourcePoint" />
            <mxPoint x="920" y="238" as="targetPoint" />
          </mxGeometry>
        </mxCell>
        <mxCell id="p5UBoh67olgGvw_-wk7U-38" value="&lt;font style=&quot;font-size: 14px;&quot;&gt;1..*&lt;/font&gt;" style="text;html=1;align=center;verticalAlign=middle;resizable=0;points=[];autosize=1;strokeColor=none;fillColor=none;" vertex="1" parent="1">
          <mxGeometry x="721" y="215" width="39" height="29" as="geometry" />
        </mxCell>
        <mxCell id="p5UBoh67olgGvw_-wk7U-39" value="&lt;font style=&quot;font-size: 14px;&quot;&gt;1..*&lt;/font&gt;" style="text;html=1;align=center;verticalAlign=middle;resizable=0;points=[];autosize=1;strokeColor=none;fillColor=none;" vertex="1" parent="1">
          <mxGeometry x="748" y="55" width="39" height="29" as="geometry" />
        </mxCell>
        <mxCell id="p5UBoh67olgGvw_-wk7U-40" value="&lt;font style=&quot;font-size: 14px;&quot;&gt;0..*&lt;/font&gt;" style="text;html=1;align=center;verticalAlign=middle;resizable=0;points=[];autosize=1;strokeColor=none;fillColor=none;" vertex="1" parent="1">
          <mxGeometry x="919" y="203" width="39" height="29" as="geometry" />
        </mxCell>
        <mxCell id="p5UBoh67olgGvw_-wk7U-41" value="&lt;font style=&quot;font-size: 14px;&quot;&gt;1..*&lt;/font&gt;" style="text;html=1;align=center;verticalAlign=middle;resizable=0;points=[];autosize=1;strokeColor=none;fillColor=none;" vertex="1" parent="1">
          <mxGeometry x="914" y="105" width="39" height="29" as="geometry" />
        </mxCell>
        <mxCell id="p5UBoh67olgGvw_-wk7U-42" value="&lt;font style=&quot;font-size: 14px;&quot;&gt;1&lt;/font&gt;" style="text;html=1;align=center;verticalAlign=middle;resizable=0;points=[];autosize=1;strokeColor=none;fillColor=none;" vertex="1" parent="1">
          <mxGeometry x="831" y="57" width="26" height="29" as="geometry" />
        </mxCell>
        <mxCell id="p5UBoh67olgGvw_-wk7U-44" value="&lt;font style=&quot;font-size: 14px;&quot;&gt;1&lt;/font&gt;" style="text;html=1;align=center;verticalAlign=middle;resizable=0;points=[];autosize=1;strokeColor=none;fillColor=none;" vertex="1" parent="1">
          <mxGeometry x="836" y="100" width="26" height="29" as="geometry" />
        </mxCell>
        <mxCell id="p5UBoh67olgGvw_-wk7U-46" value="" style="endArrow=none;html=1;rounded=0;entryX=1.026;entryY=0.828;entryDx=0;entryDy=0;entryPerimeter=0;exitX=0.009;exitY=0.851;exitDx=0;exitDy=0;exitPerimeter=0;" edge="1" parent="1" source="p5UBoh67olgGvw_-wk7U-39" target="p5UBoh67olgGvw_-wk7U-42">
          <mxGeometry width="50" height="50" relative="1" as="geometry">
            <mxPoint x="429" y="381" as="sourcePoint" />
            <mxPoint x="479" y="331" as="targetPoint" />
          </mxGeometry>
        </mxCell>
        <mxCell id="p5UBoh67olgGvw_-wk7U-47" value="" style="endArrow=open;endFill=1;endSize=12;html=1;rounded=0;entryX=0.056;entryY=0.867;entryDx=0;entryDy=0;entryPerimeter=0;" edge="1" parent="1" target="nLFiPMIi8x7Z5SYmup_8-38">
          <mxGeometry width="160" relative="1" as="geometry">
            <mxPoint x="558" y="284" as="sourcePoint" />
            <mxPoint x="666" y="340" as="targetPoint" />
          </mxGeometry>
        </mxCell>
        <mxCell id="p5UBoh67olgGvw_-wk7U-49" value="" style="endArrow=diamondThin;endFill=1;endSize=24;html=1;rounded=0;entryX=1.013;entryY=0.989;entryDx=0;entryDy=0;exitX=0.107;exitY=0.745;exitDx=0;exitDy=0;exitPerimeter=0;entryPerimeter=0;" edge="1" parent="1" source="p5UBoh67olgGvw_-wk7U-31" target="p5UBoh67olgGvw_-wk7U-30">
          <mxGeometry width="160" relative="1" as="geometry">
            <mxPoint x="506" y="340" as="sourcePoint" />
            <mxPoint x="666" y="340" as="targetPoint" />
          </mxGeometry>
        </mxCell>
      </root>
    </mxGraphModel>
  </diagram>
  <diagram id="P-5uD8rKxpVhpWGTvOPs" name="Task-II-oblig-1-sd">
    <mxGraphModel dx="1959" dy="646" grid="0" gridSize="10" guides="1" tooltips="1" connect="1" arrows="1" fold="1" page="1" pageScale="1" pageWidth="1169" pageHeight="827" math="0" shadow="0">
      <root>
        <mxCell id="0" />
        <mxCell id="1" parent="0" />
        <mxCell id="BKERUurbVguedBVbvwuX-13" value=":TicketBuyer" style="shape=umlLifeline;perimeter=lifelinePerimeter;whiteSpace=wrap;html=1;container=1;dropTarget=0;collapsible=0;recursiveResize=0;outlineConnect=0;portConstraint=eastwest;newEdgeStyle={&quot;curved&quot;:0,&quot;rounded&quot;:0};" parent="1" vertex="1">
          <mxGeometry y="80" width="100" height="1410" as="geometry" />
        </mxCell>
        <mxCell id="0X0zc3NJvCH1A_uaoeNw-38" value="" style="shape=umlDestroy;whiteSpace=wrap;html=1;strokeWidth=3;targetShapes=umlLifeline;" parent="BKERUurbVguedBVbvwuX-13" vertex="1">
          <mxGeometry y="1330" width="100" height="80" as="geometry" />
        </mxCell>
        <mxCell id="BKERUurbVguedBVbvwuX-14" value=":Frontend" style="shape=umlLifeline;perimeter=lifelinePerimeter;whiteSpace=wrap;html=1;container=1;dropTarget=0;collapsible=0;recursiveResize=0;outlineConnect=0;portConstraint=eastwest;newEdgeStyle={&quot;curved&quot;:0,&quot;rounded&quot;:0};" parent="1" vertex="1">
          <mxGeometry x="160" y="80" width="100" height="1370" as="geometry" />
        </mxCell>
        <mxCell id="BKERUurbVguedBVbvwuX-15" value=":EventDatabase" style="shape=umlLifeline;perimeter=lifelinePerimeter;whiteSpace=wrap;html=1;container=1;dropTarget=0;collapsible=0;recursiveResize=0;outlineConnect=0;portConstraint=eastwest;newEdgeStyle={&quot;curved&quot;:0,&quot;rounded&quot;:0};" parent="1" vertex="1">
          <mxGeometry x="320" y="80" width="100" height="1400" as="geometry" />
        </mxCell>
        <mxCell id="BKERUurbVguedBVbvwuX-16" value=":Event" style="shape=umlLifeline;perimeter=lifelinePerimeter;whiteSpace=wrap;html=1;container=1;dropTarget=0;collapsible=0;recursiveResize=0;outlineConnect=0;portConstraint=eastwest;newEdgeStyle={&quot;curved&quot;:0,&quot;rounded&quot;:0};" parent="1" vertex="1">
          <mxGeometry x="480" y="80" width="100" height="1400" as="geometry" />
        </mxCell>
        <mxCell id="BKERUurbVguedBVbvwuX-17" value=":TicketSystem" style="shape=umlLifeline;perimeter=lifelinePerimeter;whiteSpace=wrap;html=1;container=1;dropTarget=0;collapsible=0;recursiveResize=0;outlineConnect=0;portConstraint=eastwest;newEdgeStyle={&quot;curved&quot;:0,&quot;rounded&quot;:0};" parent="1" vertex="1">
          <mxGeometry x="640" y="80" width="100" height="1390" as="geometry" />
        </mxCell>
        <mxCell id="BKERUurbVguedBVbvwuX-18" value=":PaymentSystem" style="shape=umlLifeline;perimeter=lifelinePerimeter;whiteSpace=wrap;html=1;container=1;dropTarget=0;collapsible=0;recursiveResize=0;outlineConnect=0;portConstraint=eastwest;newEdgeStyle={&quot;curved&quot;:0,&quot;rounded&quot;:0};" parent="1" vertex="1">
          <mxGeometry x="800" y="80" width="100" height="1400" as="geometry" />
        </mxCell>
        <mxCell id="BKERUurbVguedBVbvwuX-19" value=":EmailService" style="shape=umlLifeline;perimeter=lifelinePerimeter;whiteSpace=wrap;html=1;container=1;dropTarget=0;collapsible=0;recursiveResize=0;outlineConnect=0;portConstraint=eastwest;newEdgeStyle={&quot;curved&quot;:0,&quot;rounded&quot;:0};" parent="1" vertex="1">
          <mxGeometry x="970" y="80" width="100" height="1400" as="geometry" />
        </mxCell>
        <mxCell id="e5zsYOAUZLcvhlNsk64J-1" value="&lt;b&gt;SD BookingSession&lt;br&gt;&lt;/b&gt;" style="shape=umlFrame;whiteSpace=wrap;html=1;pointerEvents=0;recursiveResize=0;container=1;collapsible=0;width=160;" parent="1" vertex="1">
          <mxGeometry x="-60" y="20" width="1140" height="1550" as="geometry" />
        </mxCell>
        <mxCell id="D0c-JWUj6j9eaH_hJ68N-26" value="" style="endArrow=open;endFill=1;endSize=12;html=1;rounded=0;entryX=0.5;entryY=0.514;entryDx=0;entryDy=0;entryPerimeter=0;" parent="e5zsYOAUZLcvhlNsk64J-1" edge="1">
          <mxGeometry width="160" relative="1" as="geometry">
            <mxPoint x="265" y="1030" as="sourcePoint" />
            <mxPoint x="105.5" y="1030" as="targetPoint" />
          </mxGeometry>
        </mxCell>
        <mxCell id="D0c-JWUj6j9eaH_hJ68N-35" value="" style="endArrow=open;endFill=1;endSize=12;html=1;rounded=0;" parent="e5zsYOAUZLcvhlNsk64J-1" edge="1">
          <mxGeometry width="160" relative="1" as="geometry">
            <mxPoint x="1080.3300000000002" y="1350" as="sourcePoint" />
            <mxPoint x="109.99666666666674" y="1350" as="targetPoint" />
          </mxGeometry>
        </mxCell>
        <mxCell id="D0c-JWUj6j9eaH_hJ68N-36" value="ticket confirmation sent " style="text;html=1;align=center;verticalAlign=middle;resizable=0;points=[];autosize=1;strokeColor=none;fillColor=none;" parent="e5zsYOAUZLcvhlNsk64J-1" vertex="1">
          <mxGeometry x="430" y="1310" width="150" height="30" as="geometry" />
        </mxCell>
        <mxCell id="rIQELBWPmtGbslqxHhUW-1" value="Ref" style="shape=umlFrame;whiteSpace=wrap;html=1;pointerEvents=0;recursiveResize=0;container=1;collapsible=0;width=50;" parent="e5zsYOAUZLcvhlNsk64J-1" vertex="1">
          <mxGeometry x="60" y="1090" width="930" height="120" as="geometry" />
        </mxCell>
        <mxCell id="Xn9owxOElDv1likoKHKq-1" value="&lt;font style=&quot;font-size: 18px;&quot;&gt;&lt;b&gt;&lt;font&gt;&amp;nbsp;PaymentProcessing&lt;/font&gt;&lt;/b&gt;&lt;/font&gt;" style="text;html=1;align=center;verticalAlign=middle;resizable=0;points=[];autosize=1;strokeColor=none;fillColor=none;" parent="rIQELBWPmtGbslqxHhUW-1" vertex="1">
          <mxGeometry x="240" y="45" width="200" height="40" as="geometry" />
        </mxCell>
        <mxCell id="D0c-JWUj6j9eaH_hJ68N-18" value="trigger email confirmation" style="text;html=1;align=center;verticalAlign=middle;resizable=0;points=[];autosize=1;strokeColor=none;fillColor=none;" parent="e5zsYOAUZLcvhlNsk64J-1" vertex="1">
          <mxGeometry x="750" y="1260" width="160" height="30" as="geometry" />
        </mxCell>
        <mxCell id="D0c-JWUj6j9eaH_hJ68N-16" value="" style="endArrow=open;endFill=1;endSize=12;html=1;rounded=0;exitX=0.012;exitY=0.979;exitDx=0;exitDy=0;exitPerimeter=0;" parent="e5zsYOAUZLcvhlNsk64J-1" edge="1">
          <mxGeometry width="160" relative="1" as="geometry">
            <mxPoint x="750.0000000000001" y="1300" as="sourcePoint" />
            <mxPoint x="1082.58" y="1300" as="targetPoint" />
          </mxGeometry>
        </mxCell>
        <mxCell id="D0c-JWUj6j9eaH_hJ68N-28" value="" style="endArrow=open;endFill=1;endSize=12;html=1;rounded=0;" parent="e5zsYOAUZLcvhlNsk64J-1" edge="1">
          <mxGeometry width="160" relative="1" as="geometry">
            <mxPoint x="105" y="1070" as="sourcePoint" />
            <mxPoint x="907.25" y="1070" as="targetPoint" />
          </mxGeometry>
        </mxCell>
        <mxCell id="D0c-JWUj6j9eaH_hJ68N-30" value="submit payment details" style="text;html=1;align=center;verticalAlign=middle;resizable=0;points=[];autosize=1;strokeColor=none;fillColor=none;" parent="e5zsYOAUZLcvhlNsk64J-1" vertex="1">
          <mxGeometry x="120" y="1040" width="150" height="30" as="geometry" />
        </mxCell>
        <mxCell id="D0c-JWUj6j9eaH_hJ68N-27" value="display payment option" style="text;html=1;align=center;verticalAlign=middle;resizable=0;points=[];autosize=1;strokeColor=none;fillColor=none;" parent="e5zsYOAUZLcvhlNsk64J-1" vertex="1">
          <mxGeometry x="120" y="1000" width="150" height="30" as="geometry" />
        </mxCell>
        <mxCell id="D0c-JWUj6j9eaH_hJ68N-14" value="" style="endArrow=open;endFill=1;endSize=12;html=1;rounded=0;" parent="e5zsYOAUZLcvhlNsk64J-1" edge="1">
          <mxGeometry width="160" relative="1" as="geometry">
            <mxPoint x="430" y="660" as="sourcePoint" />
            <mxPoint x="749.5" y="660" as="targetPoint" />
          </mxGeometry>
        </mxCell>
        <mxCell id="D0c-JWUj6j9eaH_hJ68N-15" value="confirm availablity" style="text;html=1;align=center;verticalAlign=middle;resizable=0;points=[];autosize=1;strokeColor=none;fillColor=none;" parent="e5zsYOAUZLcvhlNsk64J-1" vertex="1">
          <mxGeometry x="460" y="630" width="120" height="30" as="geometry" />
        </mxCell>
        <mxCell id="D0c-JWUj6j9eaH_hJ68N-12" value="" style="endArrow=open;endFill=1;endSize=12;html=1;rounded=0;" parent="e5zsYOAUZLcvhlNsk64J-1" edge="1">
          <mxGeometry width="160" relative="1" as="geometry">
            <mxPoint x="750" y="618.1800000000001" as="sourcePoint" />
            <mxPoint x="430" y="618.1800000000001" as="targetPoint" />
          </mxGeometry>
        </mxCell>
        <mxCell id="D0c-JWUj6j9eaH_hJ68N-13" value="validate ticket availablty" style="text;html=1;align=center;verticalAlign=middle;resizable=0;points=[];autosize=1;strokeColor=none;fillColor=none;" parent="e5zsYOAUZLcvhlNsk64J-1" vertex="1">
          <mxGeometry x="445" y="590" width="150" height="30" as="geometry" />
        </mxCell>
        <mxCell id="D0c-JWUj6j9eaH_hJ68N-11" value="" style="endArrow=open;endFill=1;endSize=12;html=1;rounded=0;" parent="e5zsYOAUZLcvhlNsk64J-1" edge="1">
          <mxGeometry width="160" relative="1" as="geometry">
            <mxPoint x="270" y="580" as="sourcePoint" />
            <mxPoint x="749.5" y="580" as="targetPoint" />
          </mxGeometry>
        </mxCell>
        <mxCell id="D0c-JWUj6j9eaH_hJ68N-24" value="send ticket booking request" style="text;html=1;align=center;verticalAlign=middle;resizable=0;points=[];autosize=1;strokeColor=none;fillColor=none;" parent="e5zsYOAUZLcvhlNsk64J-1" vertex="1">
          <mxGeometry x="410" y="550" width="170" height="30" as="geometry" />
        </mxCell>
        <mxCell id="D0c-JWUj6j9eaH_hJ68N-10" value="" style="endArrow=open;endFill=1;endSize=12;html=1;rounded=0;" parent="e5zsYOAUZLcvhlNsk64J-1" edge="1">
          <mxGeometry width="160" relative="1" as="geometry">
            <mxPoint x="589.91" y="540" as="sourcePoint" />
            <mxPoint x="270.00090909090903" y="540" as="targetPoint" />
          </mxGeometry>
        </mxCell>
        <mxCell id="D0c-JWUj6j9eaH_hJ68N-23" value="confirms selection" style="text;html=1;align=center;verticalAlign=middle;resizable=0;points=[];autosize=1;strokeColor=none;fillColor=none;" parent="e5zsYOAUZLcvhlNsk64J-1" vertex="1">
          <mxGeometry x="290" y="510" width="120" height="30" as="geometry" />
        </mxCell>
        <mxCell id="D0c-JWUj6j9eaH_hJ68N-9" value="" style="endArrow=open;endFill=1;endSize=12;html=1;rounded=0;" parent="e5zsYOAUZLcvhlNsk64J-1" edge="1">
          <mxGeometry width="160" relative="1" as="geometry">
            <mxPoint x="270" y="500" as="sourcePoint" />
            <mxPoint x="589.5" y="500" as="targetPoint" />
          </mxGeometry>
        </mxCell>
        <mxCell id="D0c-JWUj6j9eaH_hJ68N-22" value="send event selection for confirmation" style="text;html=1;align=center;verticalAlign=middle;resizable=0;points=[];autosize=1;strokeColor=none;fillColor=none;" parent="e5zsYOAUZLcvhlNsk64J-1" vertex="1">
          <mxGeometry x="290" y="470" width="220" height="30" as="geometry" />
        </mxCell>
        <mxCell id="Xn9owxOElDv1likoKHKq-3" value="Opt" style="shape=umlFrame;whiteSpace=wrap;html=1;pointerEvents=0;recursiveResize=0;container=1;collapsible=0;width=50;" parent="e5zsYOAUZLcvhlNsk64J-1" vertex="1">
          <mxGeometry x="60" y="280" width="420" height="110" as="geometry" />
        </mxCell>
        <mxCell id="0X0zc3NJvCH1A_uaoeNw-8" value="" style="endArrow=open;endFill=1;endSize=12;html=1;rounded=0;" parent="Xn9owxOElDv1likoKHKq-3" edge="1">
          <mxGeometry width="160" relative="1" as="geometry">
            <mxPoint x="50" y="40" as="sourcePoint" />
            <mxPoint x="210" y="40" as="targetPoint" />
          </mxGeometry>
        </mxCell>
        <mxCell id="0X0zc3NJvCH1A_uaoeNw-9" value="" style="endArrow=open;endFill=1;endSize=12;html=1;rounded=0;" parent="Xn9owxOElDv1likoKHKq-3" edge="1">
          <mxGeometry width="160" relative="1" as="geometry">
            <mxPoint x="210" y="50.00000000000003" as="sourcePoint" />
            <mxPoint x="370" y="50.00000000000003" as="targetPoint" />
          </mxGeometry>
        </mxCell>
        <mxCell id="0X0zc3NJvCH1A_uaoeNw-10" value="" style="endArrow=open;endFill=1;endSize=12;html=1;rounded=0;" parent="Xn9owxOElDv1likoKHKq-3" edge="1">
          <mxGeometry width="160" relative="1" as="geometry">
            <mxPoint x="370.40999999999957" y="90" as="sourcePoint" />
            <mxPoint x="209.59181818181847" y="90" as="targetPoint" />
          </mxGeometry>
        </mxCell>
        <mxCell id="0X0zc3NJvCH1A_uaoeNw-11" value="" style="endArrow=open;endFill=1;endSize=12;html=1;rounded=0;" parent="Xn9owxOElDv1likoKHKq-3" edge="1">
          <mxGeometry width="160" relative="1" as="geometry">
            <mxPoint x="210.81999999999954" y="100" as="sourcePoint" />
            <mxPoint x="50.001818181818464" y="100" as="targetPoint" />
          </mxGeometry>
        </mxCell>
        <mxCell id="0X0zc3NJvCH1A_uaoeNw-12" value="select extra service" style="text;html=1;align=center;verticalAlign=middle;resizable=0;points=[];autosize=1;strokeColor=none;fillColor=none;" parent="Xn9owxOElDv1likoKHKq-3" vertex="1">
          <mxGeometry x="50" y="10" width="130" height="30" as="geometry" />
        </mxCell>
        <mxCell id="0X0zc3NJvCH1A_uaoeNw-13" value="queries service availablity" style="text;html=1;align=center;verticalAlign=middle;resizable=0;points=[];autosize=1;strokeColor=none;fillColor=none;" parent="Xn9owxOElDv1likoKHKq-3" vertex="1">
          <mxGeometry x="210" y="20" width="160" height="30" as="geometry" />
        </mxCell>
        <mxCell id="0X0zc3NJvCH1A_uaoeNw-15" value="shows selected options" style="text;html=1;align=center;verticalAlign=middle;resizable=0;points=[];autosize=1;strokeColor=none;fillColor=none;" parent="Xn9owxOElDv1likoKHKq-3" vertex="1">
          <mxGeometry x="50" y="70" width="150" height="30" as="geometry" />
        </mxCell>
        <mxCell id="0X0zc3NJvCH1A_uaoeNw-14" value="send response" style="text;html=1;align=center;verticalAlign=middle;resizable=0;points=[];autosize=1;strokeColor=none;fillColor=none;" parent="Xn9owxOElDv1likoKHKq-3" vertex="1">
          <mxGeometry x="230" y="60" width="100" height="30" as="geometry" />
        </mxCell>
        <mxCell id="0X0zc3NJvCH1A_uaoeNw-6" value="Loop" style="shape=umlFrame;whiteSpace=wrap;html=1;pointerEvents=0;recursiveResize=0;container=1;collapsible=0;width=50;" parent="e5zsYOAUZLcvhlNsk64J-1" vertex="1">
          <mxGeometry x="60" y="400" width="810" height="330" as="geometry" />
        </mxCell>
        <mxCell id="D0c-JWUj6j9eaH_hJ68N-8" value="select event" style="text;html=1;align=center;verticalAlign=middle;resizable=0;points=[];autosize=1;strokeColor=none;fillColor=none;" parent="0X0zc3NJvCH1A_uaoeNw-6" vertex="1">
          <mxGeometry x="70" y="60" width="90" height="30" as="geometry" />
        </mxCell>
        <mxCell id="D0c-JWUj6j9eaH_hJ68N-7" value="" style="endArrow=open;endFill=1;endSize=12;html=1;rounded=0;" parent="0X0zc3NJvCH1A_uaoeNw-6" edge="1">
          <mxGeometry width="160" relative="1" as="geometry">
            <mxPoint x="50" y="84.47000000000003" as="sourcePoint" />
            <mxPoint x="210" y="84.47000000000003" as="targetPoint" />
          </mxGeometry>
        </mxCell>
        <mxCell id="0X0zc3NJvCH1A_uaoeNw-17" value="&lt;font style=&quot;font-size: 14px;&quot;&gt;&lt;b&gt;[While more tickets to select]&lt;/b&gt;&lt;/font&gt;" style="text;html=1;align=center;verticalAlign=middle;resizable=0;points=[];autosize=1;strokeColor=none;fillColor=none;" parent="0X0zc3NJvCH1A_uaoeNw-6" vertex="1">
          <mxGeometry x="50" width="220" height="30" as="geometry" />
        </mxCell>
        <mxCell id="0X0zc3NJvCH1A_uaoeNw-19" value="" style="endArrow=open;endFill=1;endSize=12;html=1;rounded=0;" parent="e5zsYOAUZLcvhlNsk64J-1" source="BKERUurbVguedBVbvwuX-14" edge="1">
          <mxGeometry width="160" relative="1" as="geometry">
            <mxPoint x="480" y="780" as="sourcePoint" />
            <mxPoint x="108.96153846153857" y="780" as="targetPoint" />
          </mxGeometry>
        </mxCell>
        <mxCell id="0X0zc3NJvCH1A_uaoeNw-20" value="shows summery selected tickets" style="text;html=1;align=center;verticalAlign=middle;resizable=0;points=[];autosize=1;strokeColor=none;fillColor=none;" parent="e5zsYOAUZLcvhlNsk64J-1" vertex="1">
          <mxGeometry x="105" y="750" width="200" height="30" as="geometry" />
        </mxCell>
        <mxCell id="0X0zc3NJvCH1A_uaoeNw-23" value="Alt" style="shape=umlFrame;whiteSpace=wrap;html=1;pointerEvents=0;recursiveResize=0;container=1;collapsible=0;width=50;" parent="e5zsYOAUZLcvhlNsk64J-1" vertex="1">
          <mxGeometry x="60" y="810" width="730" height="140" as="geometry" />
        </mxCell>
        <mxCell id="0X0zc3NJvCH1A_uaoeNw-26" value="" style="endArrow=none;startArrow=none;endFill=0;startFill=0;endSize=8;html=1;verticalAlign=bottom;dashed=1;labelBackgroundColor=none;dashPattern=10 10;rounded=0;" parent="0X0zc3NJvCH1A_uaoeNw-23" edge="1">
          <mxGeometry x="-0.0052" width="160" relative="1" as="geometry">
            <mxPoint y="88.32" as="sourcePoint" />
            <mxPoint x="730" y="90" as="targetPoint" />
            <mxPoint as="offset" />
          </mxGeometry>
        </mxCell>
        <mxCell id="0X0zc3NJvCH1A_uaoeNw-21" value="" style="endArrow=open;endFill=1;endSize=12;html=1;rounded=0;" parent="0X0zc3NJvCH1A_uaoeNw-23" edge="1">
          <mxGeometry width="160" relative="1" as="geometry">
            <mxPoint x="50" y="40" as="sourcePoint" />
            <mxPoint x="210" y="40" as="targetPoint" />
          </mxGeometry>
        </mxCell>
        <mxCell id="0X0zc3NJvCH1A_uaoeNw-27" value="cancels the order" style="text;html=1;align=center;verticalAlign=middle;resizable=0;points=[];autosize=1;strokeColor=none;fillColor=none;" parent="0X0zc3NJvCH1A_uaoeNw-23" vertex="1">
          <mxGeometry x="50" y="10" width="120" height="30" as="geometry" />
        </mxCell>
        <mxCell id="0X0zc3NJvCH1A_uaoeNw-29" value="" style="endArrow=open;endFill=1;endSize=12;html=1;rounded=0;" parent="0X0zc3NJvCH1A_uaoeNw-23" edge="1">
          <mxGeometry width="160" relative="1" as="geometry">
            <mxPoint x="50" y="120" as="sourcePoint" />
            <mxPoint x="210" y="120" as="targetPoint" />
          </mxGeometry>
        </mxCell>
        <mxCell id="0X0zc3NJvCH1A_uaoeNw-28" value="confirms booking" style="text;html=1;align=center;verticalAlign=middle;resizable=0;points=[];autosize=1;strokeColor=none;fillColor=none;" parent="0X0zc3NJvCH1A_uaoeNw-23" vertex="1">
          <mxGeometry x="55" y="90" width="110" height="30" as="geometry" />
        </mxCell>
        <mxCell id="0X0zc3NJvCH1A_uaoeNw-35" value="" style="endArrow=open;endFill=1;endSize=12;html=1;rounded=0;" parent="0X0zc3NJvCH1A_uaoeNw-23" edge="1">
          <mxGeometry width="160" relative="1" as="geometry">
            <mxPoint x="210" y="60" as="sourcePoint" />
            <mxPoint x="690" y="60" as="targetPoint" />
          </mxGeometry>
        </mxCell>
        <mxCell id="0X0zc3NJvCH1A_uaoeNw-33" value="" style="endArrow=open;endFill=1;endSize=12;html=1;rounded=0;" parent="e5zsYOAUZLcvhlNsk64J-1" target="BKERUurbVguedBVbvwuX-17" edge="1">
          <mxGeometry width="160" relative="1" as="geometry">
            <mxPoint x="270" y="980" as="sourcePoint" />
            <mxPoint x="430" y="980" as="targetPoint" />
          </mxGeometry>
        </mxCell>
        <mxCell id="0X0zc3NJvCH1A_uaoeNw-37" value="" style="shape=umlDestroy;whiteSpace=wrap;html=1;strokeWidth=3;targetShapes=umlLifeline;" parent="e5zsYOAUZLcvhlNsk64J-1" vertex="1">
          <mxGeometry x="220" y="1390" width="90" height="80" as="geometry" />
        </mxCell>
        <mxCell id="D0c-JWUj6j9eaH_hJ68N-5" value="" style="endArrow=open;endFill=1;endSize=12;html=1;rounded=0;" parent="e5zsYOAUZLcvhlNsk64J-1" edge="1">
          <mxGeometry width="160" relative="1" as="geometry">
            <mxPoint x="270" y="270" as="sourcePoint" />
            <mxPoint x="109.59090909090901" y="270.0000000000001" as="targetPoint" />
            <Array as="points">
              <mxPoint x="200" y="270" />
            </Array>
          </mxGeometry>
        </mxCell>
        <mxCell id="D0c-JWUj6j9eaH_hJ68N-6" value="display events" style="text;html=1;align=center;verticalAlign=middle;resizable=0;points=[];autosize=1;strokeColor=none;fillColor=none;" parent="e5zsYOAUZLcvhlNsk64J-1" vertex="1">
          <mxGeometry x="130" y="250" width="100" height="30" as="geometry" />
        </mxCell>
        <mxCell id="D0c-JWUj6j9eaH_hJ68N-4" value="return event details" style="text;html=1;align=center;verticalAlign=middle;resizable=0;points=[];autosize=1;strokeColor=none;fillColor=none;" parent="e5zsYOAUZLcvhlNsk64J-1" vertex="1">
          <mxGeometry x="285" y="240" width="130" height="30" as="geometry" />
        </mxCell>
        <mxCell id="D0c-JWUj6j9eaH_hJ68N-3" value="" style="endArrow=open;endFill=1;endSize=12;html=1;rounded=0;" parent="e5zsYOAUZLcvhlNsk64J-1" edge="1">
          <mxGeometry width="160" relative="1" as="geometry">
            <mxPoint x="430.05" y="260" as="sourcePoint" />
            <mxPoint x="269.9973684210525" y="260" as="targetPoint" />
            <Array as="points">
              <mxPoint x="340.55" y="260" />
            </Array>
          </mxGeometry>
        </mxCell>
        <mxCell id="D0c-JWUj6j9eaH_hJ68N-21" value="queries event details" style="text;html=1;align=center;verticalAlign=middle;resizable=0;points=[];autosize=1;strokeColor=none;fillColor=none;" parent="e5zsYOAUZLcvhlNsk64J-1" vertex="1">
          <mxGeometry x="285" y="220" width="130" height="30" as="geometry" />
        </mxCell>
        <mxCell id="D0c-JWUj6j9eaH_hJ68N-2" value="" style="endArrow=open;endFill=1;endSize=12;html=1;rounded=0;" parent="e5zsYOAUZLcvhlNsk64J-1" edge="1">
          <mxGeometry width="160" relative="1" as="geometry">
            <mxPoint x="270" y="238.95" as="sourcePoint" />
            <mxPoint x="430" y="238.95" as="targetPoint" />
          </mxGeometry>
        </mxCell>
        <mxCell id="D0c-JWUj6j9eaH_hJ68N-1" value="" style="endArrow=open;endFill=1;endSize=12;html=1;rounded=0;exitX=0.525;exitY=0.276;exitDx=0;exitDy=0;exitPerimeter=0;" parent="e5zsYOAUZLcvhlNsk64J-1" edge="1">
          <mxGeometry width="160" relative="1" as="geometry">
            <mxPoint x="113" y="220.00000000000006" as="sourcePoint" />
            <mxPoint x="270" y="220.00000000000006" as="targetPoint" />
          </mxGeometry>
        </mxCell>
        <mxCell id="D0c-JWUj6j9eaH_hJ68N-20" value="start serching event" style="edgeLabel;html=1;align=center;verticalAlign=middle;resizable=0;points=[];" parent="D0c-JWUj6j9eaH_hJ68N-1" connectable="0" vertex="1">
          <mxGeometry x="-0.3949" y="6" relative="1" as="geometry">
            <mxPoint x="20" y="-8" as="offset" />
          </mxGeometry>
        </mxCell>
        <mxCell id="05KsXVdhrsnlqszlkx4j-2" value="" style="endArrow=open;endFill=1;endSize=12;html=1;rounded=0;" parent="e5zsYOAUZLcvhlNsk64J-1" edge="1">
          <mxGeometry width="160" relative="1" as="geometry">
            <mxPoint x="110" y="130" as="sourcePoint" />
            <mxPoint x="270" y="130" as="targetPoint" />
          </mxGeometry>
        </mxCell>
        <mxCell id="05KsXVdhrsnlqszlkx4j-3" value="" style="endArrow=open;endFill=1;endSize=12;html=1;rounded=0;" parent="e5zsYOAUZLcvhlNsk64J-1" edge="1">
          <mxGeometry width="160" relative="1" as="geometry">
            <mxPoint x="270" y="140" as="sourcePoint" />
            <mxPoint x="430" y="140" as="targetPoint" />
          </mxGeometry>
        </mxCell>
        <mxCell id="05KsXVdhrsnlqszlkx4j-4" value="" style="endArrow=open;endFill=1;endSize=12;html=1;rounded=0;" parent="e5zsYOAUZLcvhlNsk64J-1" edge="1">
          <mxGeometry width="160" relative="1" as="geometry">
            <mxPoint x="430.28" y="170" as="sourcePoint" />
            <mxPoint x="269.72736842105246" y="170" as="targetPoint" />
            <Array as="points">
              <mxPoint x="310.28" y="170" />
            </Array>
          </mxGeometry>
        </mxCell>
        <mxCell id="05KsXVdhrsnlqszlkx4j-5" value="" style="endArrow=open;endFill=1;endSize=12;html=1;rounded=0;" parent="e5zsYOAUZLcvhlNsk64J-1" edge="1">
          <mxGeometry width="160" relative="1" as="geometry">
            <mxPoint x="110" y="180" as="sourcePoint" />
            <mxPoint x="109.44736842105249" y="180" as="targetPoint" />
            <Array as="points">
              <mxPoint x="270" y="180" />
              <mxPoint x="220" y="180" />
            </Array>
          </mxGeometry>
        </mxCell>
        <mxCell id="05KsXVdhrsnlqszlkx4j-6" value="initiates login(X)" style="text;html=1;align=center;verticalAlign=middle;resizable=0;points=[];autosize=1;strokeColor=none;fillColor=none;" parent="e5zsYOAUZLcvhlNsk64J-1" vertex="1">
          <mxGeometry x="110" y="108" width="110" height="30" as="geometry" />
        </mxCell>
        <mxCell id="KBnIn6xaHWOxKtZVQtG7-2" value="&lt;b&gt;&lt;font style=&quot;font-size: 12px;&quot;&gt;SD PaymentProcessing&lt;/font&gt;&lt;/b&gt;" style="shape=umlFrame;whiteSpace=wrap;html=1;pointerEvents=0;recursiveResize=0;container=1;collapsible=0;width=160;" parent="1" vertex="1">
          <mxGeometry x="92.5" y="1728" width="635" height="610" as="geometry" />
        </mxCell>
        <mxCell id="KBnIn6xaHWOxKtZVQtG7-3" value=":TicketBuyer" style="shape=umlLifeline;perimeter=lifelinePerimeter;whiteSpace=wrap;html=1;container=1;dropTarget=0;collapsible=0;recursiveResize=0;outlineConnect=0;portConstraint=eastwest;newEdgeStyle={&quot;curved&quot;:0,&quot;rounded&quot;:0};" parent="KBnIn6xaHWOxKtZVQtG7-2" vertex="1">
          <mxGeometry x="65" y="70" width="100" height="530" as="geometry" />
        </mxCell>
        <mxCell id="KBnIn6xaHWOxKtZVQtG7-4" value=":Frontend" style="shape=umlLifeline;perimeter=lifelinePerimeter;whiteSpace=wrap;html=1;container=1;dropTarget=0;collapsible=0;recursiveResize=0;outlineConnect=0;portConstraint=eastwest;newEdgeStyle={&quot;curved&quot;:0,&quot;rounded&quot;:0};" parent="KBnIn6xaHWOxKtZVQtG7-2" vertex="1">
          <mxGeometry x="224" y="70" width="100" height="530" as="geometry" />
        </mxCell>
        <mxCell id="KBnIn6xaHWOxKtZVQtG7-5" value=":PaymentSystem" style="shape=umlLifeline;perimeter=lifelinePerimeter;whiteSpace=wrap;html=1;container=1;dropTarget=0;collapsible=0;recursiveResize=0;outlineConnect=0;portConstraint=eastwest;newEdgeStyle={&quot;curved&quot;:0,&quot;rounded&quot;:0};" parent="KBnIn6xaHWOxKtZVQtG7-2" vertex="1">
          <mxGeometry x="414" y="70" width="100" height="540" as="geometry" />
        </mxCell>
        <mxCell id="KBnIn6xaHWOxKtZVQtG7-6" value="" style="endArrow=open;endFill=1;endSize=12;html=1;rounded=0;" parent="KBnIn6xaHWOxKtZVQtG7-2" edge="1">
          <mxGeometry width="160" relative="1" as="geometry">
            <mxPoint x="114" y="170" as="sourcePoint" />
            <mxPoint x="274" y="170" as="targetPoint" />
          </mxGeometry>
        </mxCell>
        <mxCell id="KBnIn6xaHWOxKtZVQtG7-7" value="" style="endArrow=open;endFill=1;endSize=12;html=1;rounded=0;" parent="KBnIn6xaHWOxKtZVQtG7-2" target="KBnIn6xaHWOxKtZVQtG7-5" edge="1">
          <mxGeometry width="160" relative="1" as="geometry">
            <mxPoint x="274" y="190" as="sourcePoint" />
            <mxPoint x="434" y="190" as="targetPoint" />
          </mxGeometry>
        </mxCell>
        <mxCell id="KBnIn6xaHWOxKtZVQtG7-12" value="enter payment detail" style="text;html=1;align=center;verticalAlign=middle;resizable=0;points=[];autosize=1;strokeColor=none;fillColor=none;" parent="KBnIn6xaHWOxKtZVQtG7-2" vertex="1">
          <mxGeometry x="114" y="140" width="130" height="30" as="geometry" />
        </mxCell>
        <mxCell id="KBnIn6xaHWOxKtZVQtG7-14" value="send payment requst" style="text;html=1;align=center;verticalAlign=middle;resizable=0;points=[];autosize=1;strokeColor=none;fillColor=none;" parent="KBnIn6xaHWOxKtZVQtG7-2" vertex="1">
          <mxGeometry x="274" y="160" width="140" height="30" as="geometry" />
        </mxCell>
        <mxCell id="KBnIn6xaHWOxKtZVQtG7-15" value="process payment" style="text;html=1;align=center;verticalAlign=middle;resizable=0;points=[];autosize=1;strokeColor=none;fillColor=none;" parent="KBnIn6xaHWOxKtZVQtG7-2" vertex="1">
          <mxGeometry x="464" y="190" width="110" height="30" as="geometry" />
        </mxCell>
        <mxCell id="KBnIn6xaHWOxKtZVQtG7-16" value="sucess" style="text;html=1;align=center;verticalAlign=middle;resizable=0;points=[];autosize=1;strokeColor=none;fillColor=none;" parent="KBnIn6xaHWOxKtZVQtG7-2" vertex="1">
          <mxGeometry x="149" y="540" width="60" height="30" as="geometry" />
        </mxCell>
        <mxCell id="32x0NpA17rET1ZFa6KW7-4" value="" style="html=1;verticalAlign=bottom;endArrow=open;dashed=1;endSize=8;curved=0;rounded=0;" parent="KBnIn6xaHWOxKtZVQtG7-2" edge="1">
          <mxGeometry x="-0.3712" y="21" relative="1" as="geometry">
            <mxPoint x="464" y="550" as="sourcePoint" />
            <mxPoint x="273.1666666666665" y="550" as="targetPoint" />
            <mxPoint as="offset" />
          </mxGeometry>
        </mxCell>
        <mxCell id="32x0NpA17rET1ZFa6KW7-8" value="" style="endArrow=open;endFill=1;endSize=12;html=1;rounded=0;entryX=1.008;entryY=0.656;entryDx=0;entryDy=0;entryPerimeter=0;" parent="KBnIn6xaHWOxKtZVQtG7-2" source="KBnIn6xaHWOxKtZVQtG7-5" target="32x0NpA17rET1ZFa6KW7-6" edge="1">
          <mxGeometry width="160" relative="1" as="geometry">
            <mxPoint x="304" y="250" as="sourcePoint" />
            <mxPoint x="464" y="250" as="targetPoint" />
          </mxGeometry>
        </mxCell>
        <mxCell id="32x0NpA17rET1ZFa6KW7-11" value="" style="endArrow=open;endFill=1;endSize=12;html=1;rounded=0;" parent="KBnIn6xaHWOxKtZVQtG7-2" edge="1">
          <mxGeometry width="160" relative="1" as="geometry">
            <mxPoint x="274" y="570" as="sourcePoint" />
            <mxPoint x="113.99666666666675" y="570" as="targetPoint" />
          </mxGeometry>
        </mxCell>
        <mxCell id="32x0NpA17rET1ZFa6KW7-17" value="Loop" style="shape=umlFrame;whiteSpace=wrap;html=1;pointerEvents=0;recursiveResize=0;container=1;collapsible=0;width=50;" parent="KBnIn6xaHWOxKtZVQtG7-2" vertex="1">
          <mxGeometry x="16" y="300" width="516" height="210" as="geometry" />
        </mxCell>
        <mxCell id="KBnIn6xaHWOxKtZVQtG7-17" value="Alt" style="shape=umlFrame;whiteSpace=wrap;html=1;pointerEvents=0;recursiveResize=0;container=1;collapsible=0;width=50;" parent="32x0NpA17rET1ZFa6KW7-17" vertex="1">
          <mxGeometry x="48" y="50" width="420" height="140" as="geometry" />
        </mxCell>
        <mxCell id="32x0NpA17rET1ZFa6KW7-5" value="" style="endArrow=open;endFill=1;endSize=12;html=1;rounded=0;" parent="KBnIn6xaHWOxKtZVQtG7-17" edge="1">
          <mxGeometry width="160" relative="1" as="geometry">
            <mxPoint x="204" y="69.33" as="sourcePoint" />
            <mxPoint x="43.996666666666755" y="69.33" as="targetPoint" />
          </mxGeometry>
        </mxCell>
        <mxCell id="32x0NpA17rET1ZFa6KW7-6" value="retry or cancel transaction" style="text;html=1;align=center;verticalAlign=middle;resizable=0;points=[];autosize=1;strokeColor=none;fillColor=none;" parent="KBnIn6xaHWOxKtZVQtG7-17" vertex="1">
          <mxGeometry x="44" y="30" width="160" height="30" as="geometry" />
        </mxCell>
        <mxCell id="32x0NpA17rET1ZFa6KW7-1" value="" style="endArrow=none;startArrow=none;endFill=0;startFill=0;endSize=8;html=1;verticalAlign=bottom;dashed=1;labelBackgroundColor=none;dashPattern=10 10;rounded=0;exitX=0.007;exitY=0.522;exitDx=0;exitDy=0;exitPerimeter=0;" parent="KBnIn6xaHWOxKtZVQtG7-17" edge="1">
          <mxGeometry width="160" relative="1" as="geometry">
            <mxPoint x="3.97199999999998" y="89.99999999999994" as="sourcePoint" />
            <mxPoint x="420" y="90" as="targetPoint" />
          </mxGeometry>
        </mxCell>
        <mxCell id="32x0NpA17rET1ZFa6KW7-9" value="payment failure" style="text;html=1;align=center;verticalAlign=middle;resizable=0;points=[];autosize=1;strokeColor=none;fillColor=none;" parent="KBnIn6xaHWOxKtZVQtG7-17" vertex="1">
          <mxGeometry x="234" y="20" width="110" height="30" as="geometry" />
        </mxCell>
        <mxCell id="32x0NpA17rET1ZFa6KW7-10" value="payment sucess" style="text;html=1;align=center;verticalAlign=middle;resizable=0;points=[];autosize=1;strokeColor=none;fillColor=none;" parent="KBnIn6xaHWOxKtZVQtG7-2" vertex="1">
          <mxGeometry x="304" y="520" width="110" height="30" as="geometry" />
        </mxCell>
        <mxCell id="KBnIn6xaHWOxKtZVQtG7-8" value="" style="html=1;points=[[0,0,0,0,5],[0,1,0,0,-5],[1,0,0,0,5],[1,1,0,0,-5]];perimeter=orthogonalPerimeter;outlineConnect=0;targetShapes=umlLifeline;portConstraint=eastwest;newEdgeStyle={&quot;curved&quot;:0,&quot;rounded&quot;:0};" parent="1" vertex="1">
          <mxGeometry x="559" y="1971" width="10" height="40" as="geometry" />
        </mxCell>
        <mxCell id="KBnIn6xaHWOxKtZVQtG7-9" value="self call" style="html=1;align=left;spacingLeft=2;endArrow=block;rounded=0;edgeStyle=orthogonalEdgeStyle;curved=0;rounded=0;" parent="1" edge="1">
          <mxGeometry relative="1" as="geometry">
            <mxPoint x="560" y="1948" as="sourcePoint" />
            <Array as="points">
              <mxPoint x="590" y="1978" />
            </Array>
            <mxPoint x="565" y="1978.066666666667" as="targetPoint" />
          </mxGeometry>
        </mxCell>
        <mxCell id="0X0zc3NJvCH1A_uaoeNw-34" value="sends final ticket booking confirmation" style="text;html=1;align=center;verticalAlign=middle;resizable=0;points=[];autosize=1;strokeColor=none;fillColor=none;" parent="1" vertex="1">
          <mxGeometry x="295" y="978" width="230" height="30" as="geometry" />
        </mxCell>
        <mxCell id="0X0zc3NJvCH1A_uaoeNw-36" value="cancellation" style="text;html=1;align=center;verticalAlign=middle;resizable=0;points=[];autosize=1;strokeColor=none;fillColor=none;" parent="1" vertex="1">
          <mxGeometry x="345" y="868" width="90" height="30" as="geometry" />
        </mxCell>
        <mxCell id="05KsXVdhrsnlqszlkx4j-7" value="verify login(credentials)" style="text;html=1;align=center;verticalAlign=middle;resizable=0;points=[];autosize=1;strokeColor=none;fillColor=none;" parent="1" vertex="1">
          <mxGeometry x="205" y="138" width="150" height="30" as="geometry" />
        </mxCell>
        <mxCell id="05KsXVdhrsnlqszlkx4j-8" value="success" style="text;html=1;align=center;verticalAlign=middle;resizable=0;points=[];autosize=1;strokeColor=none;fillColor=none;" parent="1" vertex="1">
          <mxGeometry x="235" y="168" width="70" height="30" as="geometry" />
        </mxCell>
        <mxCell id="05KsXVdhrsnlqszlkx4j-9" value="login success" style="text;html=1;align=center;verticalAlign=middle;resizable=0;points=[];autosize=1;strokeColor=none;fillColor=none;" parent="1" vertex="1">
          <mxGeometry x="60" y="178" width="100" height="30" as="geometry" />
        </mxCell>
      </root>
    </mxGraphModel>
  </diagram>
  <diagram id="DZtfx0B-PbVDx4SnkWmA" name="Task III-sm-oblig-1">
    <mxGraphModel dx="790" dy="1815" grid="0" gridSize="10" guides="1" tooltips="1" connect="1" arrows="1" fold="1" page="1" pageScale="1" pageWidth="827" pageHeight="1169" math="0" shadow="0">
      <root>
        <mxCell id="0" />
        <mxCell id="1" parent="0" />
        <mxCell id="kqFJLW5QLXSgW3Z4MbhH-8" value="&lt;font style=&quot;font-size: 14px;&quot;&gt;&lt;b&gt;Frontend&lt;/b&gt;&lt;/font&gt;" style="html=1;align=center;verticalAlign=top;rounded=1;absoluteArcSize=1;arcSize=10;dashed=0;whiteSpace=wrap;fillColor=#ffffff;movable=1;resizable=1;rotatable=1;deletable=1;editable=1;locked=0;connectable=1;" parent="1" vertex="1">
          <mxGeometry x="30" y="-20" width="790" height="660" as="geometry" />
        </mxCell>
        <mxCell id="FpAws6LRR97dmpmPVL3t-3" value="" style="html=1;verticalAlign=bottom;startArrow=circle;startFill=1;endArrow=open;startSize=6;endSize=8;curved=0;rounded=0;entryX=0.25;entryY=0;entryDx=0;entryDy=0;movable=0;resizable=0;rotatable=0;deletable=0;editable=0;locked=1;connectable=0;" parent="1" target="FpAws6LRR97dmpmPVL3t-8" edge="1">
          <mxGeometry width="80" relative="1" as="geometry">
            <mxPoint x="74" y="143" as="sourcePoint" />
            <mxPoint x="127" y="235" as="targetPoint" />
          </mxGeometry>
        </mxCell>
        <mxCell id="FpAws6LRR97dmpmPVL3t-40" value="init" style="edgeLabel;html=1;align=center;verticalAlign=middle;resizable=0;points=[];rounded=1;dashed=0;strokeColor=default;arcSize=10;fontFamily=Helvetica;fontSize=12;fontColor=default;fillColor=#ffffff;" parent="FpAws6LRR97dmpmPVL3t-3" vertex="1" connectable="0">
          <mxGeometry x="-0.3386" y="3" relative="1" as="geometry">
            <mxPoint x="9" y="-5" as="offset" />
          </mxGeometry>
        </mxCell>
        <mxCell id="FpAws6LRR97dmpmPVL3t-8" value="start" style="html=1;align=center;verticalAlign=top;rounded=1;absoluteArcSize=1;arcSize=10;dashed=0;whiteSpace=wrap;movable=0;resizable=0;rotatable=0;deletable=0;editable=0;locked=1;connectable=0;" parent="1" vertex="1">
          <mxGeometry x="124" y="237" width="87" height="40" as="geometry" />
        </mxCell>
        <mxCell id="FpAws6LRR97dmpmPVL3t-30" value="" style="line;strokeWidth=1;fillColor=none;align=left;verticalAlign=middle;spacingTop=-1;spacingLeft=3;spacingRight=3;rotatable=1;labelPosition=right;points=[];portConstraint=eastwest;strokeColor=inherit;movable=1;resizable=1;deletable=1;editable=1;locked=0;connectable=1;" parent="1" vertex="1">
          <mxGeometry x="30" width="780" height="8" as="geometry" />
        </mxCell>
        <mxCell id="FpAws6LRR97dmpmPVL3t-31" value="&lt;b&gt;Idle&lt;/b&gt;" style="html=1;align=center;verticalAlign=top;rounded=1;absoluteArcSize=1;arcSize=10;dashed=0;whiteSpace=wrap;movable=0;resizable=0;rotatable=0;deletable=0;editable=0;locked=1;connectable=0;" parent="1" vertex="1">
          <mxGeometry x="285" y="244" width="87" height="40" as="geometry" />
        </mxCell>
        <mxCell id="FpAws6LRR97dmpmPVL3t-32" value="&lt;b&gt;LoginFailure&lt;/b&gt;" style="html=1;align=center;verticalAlign=top;rounded=1;absoluteArcSize=1;arcSize=10;dashed=0;whiteSpace=wrap;movable=1;resizable=1;rotatable=1;deletable=1;editable=1;locked=0;connectable=1;" parent="1" vertex="1">
          <mxGeometry x="54" y="537" width="87" height="40" as="geometry" />
        </mxCell>
        <mxCell id="FpAws6LRR97dmpmPVL3t-33" value="&lt;b&gt;LoginAttempt&lt;/b&gt;" style="html=1;align=center;verticalAlign=top;rounded=1;absoluteArcSize=1;arcSize=10;dashed=0;whiteSpace=wrap;movable=1;resizable=1;rotatable=1;deletable=1;editable=1;locked=0;connectable=1;" parent="1" vertex="1">
          <mxGeometry x="239" y="537" width="87" height="40" as="geometry" />
        </mxCell>
        <mxCell id="FpAws6LRR97dmpmPVL3t-35" value="&lt;b&gt;SearchEvent&lt;/b&gt;" style="html=1;align=center;verticalAlign=top;rounded=1;absoluteArcSize=1;arcSize=10;dashed=0;whiteSpace=wrap;movable=1;resizable=1;rotatable=1;deletable=1;editable=1;locked=0;connectable=1;" parent="1" vertex="1">
          <mxGeometry x="496.5" y="310" width="87" height="40" as="geometry" />
        </mxCell>
        <mxCell id="FpAws6LRR97dmpmPVL3t-36" value="&lt;b&gt;LoginSuccesfull&lt;/b&gt;" style="html=1;align=center;verticalAlign=top;rounded=1;absoluteArcSize=1;arcSize=10;dashed=0;whiteSpace=wrap;movable=1;resizable=1;rotatable=1;deletable=1;editable=1;locked=0;connectable=1;" parent="1" vertex="1">
          <mxGeometry x="404" y="537" width="95" height="40" as="geometry" />
        </mxCell>
        <mxCell id="FpAws6LRR97dmpmPVL3t-37" value="&lt;b&gt;DisplayPaymentOption&lt;/b&gt;" style="html=1;align=center;verticalAlign=top;rounded=1;absoluteArcSize=1;arcSize=10;dashed=0;whiteSpace=wrap;movable=1;resizable=1;rotatable=1;deletable=1;editable=1;locked=0;connectable=1;" parent="1" vertex="1">
          <mxGeometry x="650" y="103" width="140" height="40" as="geometry" />
        </mxCell>
        <mxCell id="FpAws6LRR97dmpmPVL3t-38" value="&lt;b&gt;DisplayingEvent&lt;/b&gt;" style="html=1;align=center;verticalAlign=top;rounded=1;absoluteArcSize=1;arcSize=10;dashed=0;whiteSpace=wrap;movable=1;resizable=1;rotatable=1;deletable=1;editable=1;locked=0;connectable=1;" parent="1" vertex="1">
          <mxGeometry x="533" y="539" width="97" height="40" as="geometry" />
        </mxCell>
        <mxCell id="FpAws6LRR97dmpmPVL3t-39" value="" style="endArrow=open;endFill=1;endSize=12;html=1;rounded=0;exitX=0.667;exitY=1;exitDx=0;exitDy=0;entryX=0.425;entryY=0.05;entryDx=0;entryDy=0;entryPerimeter=0;exitPerimeter=0;movable=0;resizable=0;rotatable=0;deletable=0;editable=0;locked=1;connectable=0;" parent="1" source="FpAws6LRR97dmpmPVL3t-8" target="FpAws6LRR97dmpmPVL3t-33" edge="1">
          <mxGeometry width="160" relative="1" as="geometry">
            <mxPoint x="354" y="333" as="sourcePoint" />
            <mxPoint x="514" y="333" as="targetPoint" />
          </mxGeometry>
        </mxCell>
        <mxCell id="FpAws6LRR97dmpmPVL3t-41" value="" style="endArrow=open;endFill=1;endSize=12;html=1;rounded=0;fontFamily=Helvetica;fontSize=12;fontColor=default;resizable=0;" parent="1" edge="1">
          <mxGeometry width="160" relative="1" as="geometry">
            <mxPoint x="250" y="580" as="sourcePoint" />
            <mxPoint x="70" y="580" as="targetPoint" />
            <Array as="points">
              <mxPoint x="250" y="610" />
              <mxPoint x="70" y="610" />
            </Array>
          </mxGeometry>
        </mxCell>
        <mxCell id="FpAws6LRR97dmpmPVL3t-42" value="" style="endArrow=open;endFill=1;endSize=12;html=1;rounded=0;fontFamily=Helvetica;fontSize=12;fontColor=default;resizable=1;movable=1;rotatable=1;deletable=1;editable=1;locked=0;connectable=1;exitX=0.25;exitY=0;exitDx=0;exitDy=0;" parent="1" source="FpAws6LRR97dmpmPVL3t-32" edge="1">
          <mxGeometry width="160" relative="1" as="geometry">
            <mxPoint x="70" y="530" as="sourcePoint" />
            <mxPoint x="120" y="250" as="targetPoint" />
            <Array as="points">
              <mxPoint x="76" y="250" />
            </Array>
          </mxGeometry>
        </mxCell>
        <mxCell id="FpAws6LRR97dmpmPVL3t-43" value="" style="endArrow=open;endFill=1;endSize=12;html=1;rounded=0;fontFamily=Helvetica;fontSize=12;fontColor=default;resizable=0;exitX=0.383;exitY=1.067;exitDx=0;exitDy=0;exitPerimeter=0;" parent="1" source="FpAws6LRR97dmpmPVL3t-33" edge="1">
          <mxGeometry width="160" relative="1" as="geometry">
            <mxPoint x="280" y="600" as="sourcePoint" />
            <mxPoint x="470" y="580" as="targetPoint" />
            <Array as="points">
              <mxPoint x="272" y="610" />
              <mxPoint x="470" y="610" />
            </Array>
          </mxGeometry>
        </mxCell>
        <mxCell id="FpAws6LRR97dmpmPVL3t-44" value="" style="endArrow=open;endFill=1;endSize=12;html=1;rounded=0;fontFamily=Helvetica;fontSize=12;fontColor=default;resizable=0;exitX=0.25;exitY=0;exitDx=0;exitDy=0;entryX=0.5;entryY=1;entryDx=0;entryDy=0;movable=0;rotatable=0;deletable=0;editable=0;locked=1;connectable=0;" parent="1" source="FpAws6LRR97dmpmPVL3t-36" target="FpAws6LRR97dmpmPVL3t-31" edge="1">
          <mxGeometry width="160" relative="1" as="geometry">
            <mxPoint x="334" y="335" as="sourcePoint" />
            <mxPoint x="494" y="335" as="targetPoint" />
          </mxGeometry>
        </mxCell>
        <mxCell id="FpAws6LRR97dmpmPVL3t-45" value="" style="endArrow=open;endFill=1;endSize=12;html=1;rounded=0;fontFamily=Helvetica;fontSize=12;fontColor=default;resizable=1;movable=1;rotatable=1;deletable=1;editable=1;locked=0;connectable=1;entryX=0.848;entryY=-0.006;entryDx=0;entryDy=0;entryPerimeter=0;" parent="1" edge="1">
          <mxGeometry width="160" relative="1" as="geometry">
            <mxPoint x="372" y="270.24" as="sourcePoint" />
            <mxPoint x="572.2759999999998" y="309.9999999999998" as="targetPoint" />
            <Array as="points">
              <mxPoint x="412" y="270.24" />
              <mxPoint x="572" y="270.24" />
            </Array>
          </mxGeometry>
        </mxCell>
        <mxCell id="FpAws6LRR97dmpmPVL3t-46" value="&lt;b&gt;ProcessingTicket&lt;/b&gt;" style="html=1;align=center;verticalAlign=top;rounded=1;absoluteArcSize=1;arcSize=10;dashed=0;whiteSpace=wrap;movable=1;resizable=1;rotatable=1;deletable=1;editable=1;locked=0;connectable=1;" parent="1" vertex="1">
          <mxGeometry x="670" y="250" width="110" height="40" as="geometry" />
        </mxCell>
        <mxCell id="FpAws6LRR97dmpmPVL3t-47" value="&lt;b&gt;SelectingEvent&lt;/b&gt;" style="html=1;align=center;verticalAlign=top;rounded=1;absoluteArcSize=1;arcSize=10;dashed=0;whiteSpace=wrap;movable=1;resizable=1;rotatable=1;deletable=1;editable=1;locked=0;connectable=1;" parent="1" vertex="1">
          <mxGeometry x="680" y="396" width="90" height="40" as="geometry" />
        </mxCell>
        <mxCell id="FpAws6LRR97dmpmPVL3t-49" value="" style="endArrow=open;endFill=1;endSize=12;html=1;rounded=0;fontFamily=Helvetica;fontSize=12;fontColor=default;resizable=1;exitX=0.454;exitY=0.9;exitDx=0;exitDy=0;entryX=0.25;entryY=0;entryDx=0;entryDy=0;movable=1;rotatable=1;deletable=1;editable=1;locked=0;connectable=1;exitPerimeter=0;" parent="1" source="FpAws6LRR97dmpmPVL3t-35" target="FpAws6LRR97dmpmPVL3t-38" edge="1">
          <mxGeometry width="160" relative="1" as="geometry">
            <mxPoint x="448" y="355" as="sourcePoint" />
            <mxPoint x="608" y="355" as="targetPoint" />
          </mxGeometry>
        </mxCell>
        <mxCell id="FpAws6LRR97dmpmPVL3t-50" value="&lt;b&gt;ProcessingPayment&lt;/b&gt;" style="html=1;align=center;verticalAlign=top;rounded=1;absoluteArcSize=1;arcSize=10;dashed=0;whiteSpace=wrap;movable=1;resizable=1;rotatable=1;deletable=1;editable=1;locked=0;connectable=1;" parent="1" vertex="1">
          <mxGeometry x="377.5" y="103" width="119" height="40" as="geometry" />
        </mxCell>
        <mxCell id="FpAws6LRR97dmpmPVL3t-51" value="" style="endArrow=open;endFill=1;endSize=12;html=1;rounded=0;fontFamily=Helvetica;fontSize=12;fontColor=default;resizable=0;entryX=0.5;entryY=1;entryDx=0;entryDy=0;exitX=1;exitY=0.5;exitDx=0;exitDy=0;movable=0;rotatable=0;deletable=0;editable=0;locked=1;connectable=0;" parent="1" source="FpAws6LRR97dmpmPVL3t-38" target="FpAws6LRR97dmpmPVL3t-47" edge="1">
          <mxGeometry width="160" relative="1" as="geometry">
            <mxPoint x="390" y="424" as="sourcePoint" />
            <mxPoint x="550" y="424" as="targetPoint" />
            <Array as="points">
              <mxPoint x="724" y="559" />
            </Array>
          </mxGeometry>
        </mxCell>
        <mxCell id="FpAws6LRR97dmpmPVL3t-52" value="" style="endArrow=open;endFill=1;endSize=12;html=1;rounded=0;fontFamily=Helvetica;fontSize=12;fontColor=default;resizable=0;entryX=0.5;entryY=1;entryDx=0;entryDy=0;exitX=0.5;exitY=0;exitDx=0;exitDy=0;movable=0;rotatable=0;deletable=0;editable=0;locked=1;connectable=0;" parent="1" source="FpAws6LRR97dmpmPVL3t-47" target="FpAws6LRR97dmpmPVL3t-46" edge="1">
          <mxGeometry width="160" relative="1" as="geometry">
            <mxPoint x="390" y="424" as="sourcePoint" />
            <mxPoint x="550" y="424" as="targetPoint" />
          </mxGeometry>
        </mxCell>
        <mxCell id="FpAws6LRR97dmpmPVL3t-53" value="" style="endArrow=open;endFill=1;endSize=12;html=1;rounded=0;fontFamily=Helvetica;fontSize=12;fontColor=default;resizable=1;entryX=0.5;entryY=1;entryDx=0;entryDy=0;exitX=0.609;exitY=0;exitDx=0;exitDy=0;exitPerimeter=0;movable=1;rotatable=1;deletable=1;editable=1;locked=0;connectable=1;" parent="1" target="FpAws6LRR97dmpmPVL3t-37" edge="1">
          <mxGeometry width="160" relative="1" as="geometry">
            <mxPoint x="723.953" y="249" as="sourcePoint" />
            <mxPoint x="722.9970000000001" y="185" as="targetPoint" />
          </mxGeometry>
        </mxCell>
        <mxCell id="FpAws6LRR97dmpmPVL3t-54" value="" style="endArrow=open;endFill=1;endSize=12;html=1;rounded=0;fontFamily=Helvetica;fontSize=12;fontColor=default;resizable=1;exitX=0.5;exitY=0;exitDx=0;exitDy=0;entryX=0.439;entryY=0.019;entryDx=0;entryDy=0;movable=1;rotatable=1;deletable=1;editable=1;locked=0;connectable=1;entryPerimeter=0;" parent="1" source="FpAws6LRR97dmpmPVL3t-37" target="FpAws6LRR97dmpmPVL3t-50" edge="1">
          <mxGeometry width="160" relative="1" as="geometry">
            <mxPoint x="390" y="424" as="sourcePoint" />
            <mxPoint x="550" y="424" as="targetPoint" />
            <Array as="points">
              <mxPoint x="720" y="60" />
              <mxPoint x="570" y="60" />
              <mxPoint x="430" y="60" />
            </Array>
          </mxGeometry>
        </mxCell>
        <mxCell id="FpAws6LRR97dmpmPVL3t-55" value="" style="endArrow=open;endFill=1;endSize=12;html=1;rounded=0;fontFamily=Helvetica;fontSize=12;fontColor=default;resizable=1;exitX=0;exitY=0.5;exitDx=0;exitDy=0;movable=1;rotatable=1;deletable=1;editable=1;locked=0;connectable=1;" parent="1" source="FpAws6LRR97dmpmPVL3t-50" edge="1">
          <mxGeometry width="160" relative="1" as="geometry">
            <mxPoint x="390" y="424" as="sourcePoint" />
            <mxPoint x="330" y="242" as="targetPoint" />
            <Array as="points">
              <mxPoint x="330" y="123" />
            </Array>
          </mxGeometry>
        </mxCell>
        <mxCell id="L5FE4MAGF7EWM9vsqt-7-20" value="&lt;b&gt;&lt;font style=&quot;font-size: 14px;&quot;&gt;EventDatabase&lt;/font&gt;&lt;/b&gt;" style="html=1;align=center;verticalAlign=top;rounded=1;absoluteArcSize=1;arcSize=10;dashed=0;whiteSpace=wrap;fillColor=#ffffff;movable=1;resizable=1;rotatable=1;deletable=1;editable=1;locked=0;connectable=1;" parent="1" vertex="1">
          <mxGeometry x="118" y="800" width="672" height="520" as="geometry" />
        </mxCell>
        <mxCell id="L5FE4MAGF7EWM9vsqt-7-21" value="Idle" style="html=1;align=center;verticalAlign=top;rounded=1;absoluteArcSize=1;arcSize=10;dashed=0;whiteSpace=wrap;movable=1;resizable=1;rotatable=1;deletable=1;editable=1;locked=0;connectable=1;" parent="1" vertex="1">
          <mxGeometry x="253" y="940" width="87" height="40" as="geometry" />
        </mxCell>
        <mxCell id="L5FE4MAGF7EWM9vsqt-7-22" value="" style="html=1;verticalAlign=bottom;startArrow=circle;startFill=1;endArrow=open;startSize=6;endSize=8;curved=0;rounded=0;entryX=0.25;entryY=0;entryDx=0;entryDy=0;movable=0;resizable=0;rotatable=0;deletable=0;editable=0;locked=1;connectable=0;" parent="1" edge="1">
          <mxGeometry width="80" relative="1" as="geometry">
            <mxPoint x="190" y="846" as="sourcePoint" />
            <mxPoint x="262" y="940" as="targetPoint" />
          </mxGeometry>
        </mxCell>
        <mxCell id="L5FE4MAGF7EWM9vsqt-7-23" value="init" style="edgeLabel;html=1;align=center;verticalAlign=middle;resizable=0;points=[];rounded=1;dashed=0;strokeColor=default;arcSize=10;fontFamily=Helvetica;fontSize=12;fontColor=default;fillColor=#ffffff;" parent="L5FE4MAGF7EWM9vsqt-7-22" vertex="1" connectable="0">
          <mxGeometry x="-0.3386" y="3" relative="1" as="geometry">
            <mxPoint x="9" y="-5" as="offset" />
          </mxGeometry>
        </mxCell>
        <mxCell id="L5FE4MAGF7EWM9vsqt-7-24" value="&lt;b&gt;ProcessingEventQuery &lt;/b&gt;" style="html=1;align=center;verticalAlign=top;rounded=1;absoluteArcSize=1;arcSize=10;dashed=0;whiteSpace=wrap;movable=1;resizable=1;rotatable=1;deletable=1;editable=1;locked=0;connectable=1;" parent="1" vertex="1">
          <mxGeometry x="560" y="945" width="150" height="50" as="geometry" />
        </mxCell>
        <mxCell id="L5FE4MAGF7EWM9vsqt-7-25" value="&lt;b&gt;SendingAvailabiltyConfirmation&lt;/b&gt;" style="html=1;align=center;verticalAlign=top;rounded=1;absoluteArcSize=1;arcSize=10;dashed=0;whiteSpace=wrap;movable=1;resizable=1;rotatable=1;deletable=1;editable=1;locked=0;connectable=1;" parent="1" vertex="1">
          <mxGeometry x="140" y="1240" width="183" height="40" as="geometry" />
        </mxCell>
        <mxCell id="L5FE4MAGF7EWM9vsqt-7-26" value="&lt;b&gt;ProcessingTicketBookingRequest&lt;/b&gt;" style="html=1;align=center;verticalAlign=top;rounded=1;absoluteArcSize=1;arcSize=10;dashed=0;whiteSpace=wrap;movable=1;resizable=1;rotatable=1;deletable=1;editable=1;locked=0;connectable=1;" parent="1" vertex="1">
          <mxGeometry x="535" y="1190" width="200" height="40" as="geometry" />
        </mxCell>
        <mxCell id="L5FE4MAGF7EWM9vsqt-7-28" value="" style="endArrow=open;endFill=1;endSize=12;html=1;rounded=0;fontFamily=Helvetica;fontSize=12;fontColor=default;resizable=1;movable=1;rotatable=1;deletable=1;editable=1;locked=0;connectable=1;entryX=0;entryY=0.5;entryDx=0;entryDy=0;" parent="1" target="L5FE4MAGF7EWM9vsqt-7-24" edge="1">
          <mxGeometry width="160" relative="1" as="geometry">
            <mxPoint x="342" y="970" as="sourcePoint" />
            <mxPoint x="512" y="970" as="targetPoint" />
            <Array as="points">
              <mxPoint x="412" y="970" />
            </Array>
          </mxGeometry>
        </mxCell>
        <mxCell id="L5FE4MAGF7EWM9vsqt-7-29" value="" style="endArrow=open;endFill=1;endSize=12;html=1;rounded=0;fontFamily=Helvetica;fontSize=12;fontColor=default;resizable=1;entryX=0.75;entryY=0;entryDx=0;entryDy=0;movable=1;rotatable=1;deletable=1;editable=1;locked=0;connectable=1;exitX=0.5;exitY=0;exitDx=0;exitDy=0;" parent="1" source="L5FE4MAGF7EWM9vsqt-7-24" target="L5FE4MAGF7EWM9vsqt-7-21" edge="1">
          <mxGeometry width="160" relative="1" as="geometry">
            <mxPoint x="530" y="940" as="sourcePoint" />
            <mxPoint x="340" y="890" as="targetPoint" />
            <Array as="points">
              <mxPoint x="635" y="890" />
              <mxPoint x="450" y="890" />
              <mxPoint x="318" y="890" />
            </Array>
          </mxGeometry>
        </mxCell>
        <mxCell id="L5FE4MAGF7EWM9vsqt-7-30" value="" style="endArrow=open;endFill=1;endSize=12;html=1;rounded=0;fontFamily=Helvetica;fontSize=12;fontColor=default;resizable=1;exitX=0.348;exitY=0.962;exitDx=0;exitDy=0;movable=1;rotatable=1;deletable=1;editable=1;locked=0;connectable=1;exitPerimeter=0;entryX=0;entryY=0.5;entryDx=0;entryDy=0;" parent="1" source="L5FE4MAGF7EWM9vsqt-7-21" target="L5FE4MAGF7EWM9vsqt-7-26" edge="1">
          <mxGeometry width="160" relative="1" as="geometry">
            <mxPoint x="340" y="980" as="sourcePoint" />
            <mxPoint x="530" y="1190" as="targetPoint" />
            <Array as="points">
              <mxPoint x="283" y="1210" />
            </Array>
          </mxGeometry>
        </mxCell>
        <mxCell id="L5FE4MAGF7EWM9vsqt-7-31" value="" style="endArrow=open;endFill=1;endSize=12;html=1;rounded=0;fontFamily=Helvetica;fontSize=12;fontColor=default;resizable=1;movable=1;rotatable=1;deletable=1;editable=1;locked=0;connectable=1;exitX=0.92;exitY=1.087;exitDx=0;exitDy=0;exitPerimeter=0;" parent="1" source="L5FE4MAGF7EWM9vsqt-7-26" edge="1">
          <mxGeometry width="160" relative="1" as="geometry">
            <mxPoint x="670" y="1210" as="sourcePoint" />
            <mxPoint x="323" y="1270" as="targetPoint" />
            <Array as="points">
              <mxPoint x="720" y="1270" />
            </Array>
          </mxGeometry>
        </mxCell>
        <mxCell id="L5FE4MAGF7EWM9vsqt-7-32" value="" style="endArrow=open;endFill=1;endSize=12;html=1;rounded=0;fontFamily=Helvetica;fontSize=12;fontColor=default;resizable=1;entryX=0;entryY=0.5;entryDx=0;entryDy=0;movable=1;rotatable=1;deletable=1;editable=1;locked=0;connectable=1;exitX=0.1;exitY=0.025;exitDx=0;exitDy=0;exitPerimeter=0;" parent="1" source="L5FE4MAGF7EWM9vsqt-7-25" target="L5FE4MAGF7EWM9vsqt-7-21" edge="1">
          <mxGeometry width="160" relative="1" as="geometry">
            <mxPoint x="148" y="1230" as="sourcePoint" />
            <mxPoint x="280" y="980" as="targetPoint" />
            <Array as="points">
              <mxPoint x="158" y="960" />
            </Array>
          </mxGeometry>
        </mxCell>
        <mxCell id="L5FE4MAGF7EWM9vsqt-7-45" value="" style="endArrow=none;html=1;rounded=0;fontFamily=Helvetica;fontSize=12;fontColor=default;resizable=0;movable=0;rotatable=0;deletable=0;editable=0;locked=1;connectable=0;entryX=1.006;entryY=0.044;entryDx=0;entryDy=0;entryPerimeter=0;" parent="1" target="L5FE4MAGF7EWM9vsqt-7-20" edge="1">
          <mxGeometry width="50" height="50" relative="1" as="geometry">
            <mxPoint x="120" y="820" as="sourcePoint" />
            <mxPoint x="650" y="820" as="targetPoint" />
          </mxGeometry>
        </mxCell>
        <mxCell id="L5FE4MAGF7EWM9vsqt-7-46" value="event query" style="text;html=1;align=center;verticalAlign=middle;resizable=0;points=[];autosize=1;strokeColor=none;fillColor=none;fontFamily=Helvetica;fontSize=12;fontColor=default;" parent="1" vertex="1">
          <mxGeometry x="474.5" y="940" width="90" height="30" as="geometry" />
        </mxCell>
        <mxCell id="L5FE4MAGF7EWM9vsqt-7-47" value="event details (X)" style="text;html=1;align=center;verticalAlign=middle;resizable=0;points=[];autosize=1;strokeColor=none;fillColor=none;fontFamily=Helvetica;fontSize=12;fontColor=default;" parent="1" vertex="1">
          <mxGeometry x="423" y="890" width="110" height="30" as="geometry" />
        </mxCell>
        <mxCell id="L5FE4MAGF7EWM9vsqt-7-48" value="booking request" style="text;html=1;align=center;verticalAlign=middle;resizable=0;points=[];autosize=1;strokeColor=none;fillColor=none;fontFamily=Helvetica;fontSize=12;fontColor=default;" parent="1" vertex="1">
          <mxGeometry x="400.5" y="1160" width="110" height="30" as="geometry" />
        </mxCell>
        <mxCell id="L5FE4MAGF7EWM9vsqt-7-49" value="&amp;nbsp;sendes availability status" style="text;html=1;align=center;verticalAlign=middle;resizable=0;points=[];autosize=1;strokeColor=none;fillColor=none;fontFamily=Helvetica;fontSize=12;fontColor=default;" parent="1" vertex="1">
          <mxGeometry x="555" y="1245" width="160" height="30" as="geometry" />
        </mxCell>
        <mxCell id="L5FE4MAGF7EWM9vsqt-7-50" value="ticket availability" style="text;html=1;align=center;verticalAlign=middle;resizable=0;points=[];autosize=1;strokeColor=none;fillColor=none;fontFamily=Helvetica;fontSize=12;fontColor=default;" parent="1" vertex="1">
          <mxGeometry x="323" y="1270" width="110" height="30" as="geometry" />
        </mxCell>
        <mxCell id="L5FE4MAGF7EWM9vsqt-7-51" value="availability confirmation" style="text;html=1;align=center;verticalAlign=middle;resizable=0;points=[];autosize=1;strokeColor=none;fillColor=none;fontFamily=Helvetica;fontSize=12;fontColor=default;" parent="1" vertex="1">
          <mxGeometry x="118" y="1100" width="150" height="30" as="geometry" />
        </mxCell>
        <mxCell id="L5FE4MAGF7EWM9vsqt-7-52" value="serch event (X)" style="text;html=1;align=center;verticalAlign=middle;resizable=0;points=[];autosize=1;strokeColor=none;fillColor=none;fontFamily=Helvetica;fontSize=12;fontColor=default;" parent="1" vertex="1">
          <mxGeometry x="340" y="945" width="100" height="30" as="geometry" />
        </mxCell>
        <mxCell id="L5FE4MAGF7EWM9vsqt-7-56" value="credentials(username, pin)" style="text;html=1;align=center;verticalAlign=middle;resizable=0;points=[];autosize=1;strokeColor=none;fillColor=none;fontFamily=Helvetica;fontSize=12;fontColor=default;rotation=0;" parent="1" vertex="1">
          <mxGeometry x="170" y="480" width="170" height="30" as="geometry" />
        </mxCell>
        <mxCell id="L5FE4MAGF7EWM9vsqt-7-57" value="OK/success" style="text;html=1;align=center;verticalAlign=middle;resizable=0;points=[];autosize=1;strokeColor=none;fillColor=none;fontFamily=Helvetica;fontSize=12;fontColor=default;" parent="1" vertex="1">
          <mxGeometry x="389" y="579" width="90" height="30" as="geometry" />
        </mxCell>
        <mxCell id="L5FE4MAGF7EWM9vsqt-7-58" value="NOK/failure" style="text;html=1;align=center;verticalAlign=middle;resizable=0;points=[];autosize=1;strokeColor=none;fillColor=none;fontFamily=Helvetica;fontSize=12;fontColor=default;rotation=270;" parent="1" vertex="1">
          <mxGeometry x="50" y="440" width="90" height="30" as="geometry" />
        </mxCell>
        <mxCell id="L5FE4MAGF7EWM9vsqt-7-59" value="error(invalid credentials)" style="text;html=1;align=center;verticalAlign=middle;resizable=0;points=[];autosize=1;strokeColor=none;fillColor=none;fontFamily=Helvetica;fontSize=12;fontColor=default;" parent="1" vertex="1">
          <mxGeometry x="80" y="579" width="150" height="30" as="geometry" />
        </mxCell>
        <mxCell id="L5FE4MAGF7EWM9vsqt-7-60" value="&lt;font style=&quot;font-size: 14px;&quot;&gt;loged in&lt;/font&gt;" style="text;html=1;align=center;verticalAlign=middle;resizable=0;points=[];autosize=1;strokeColor=none;fillColor=none;fontFamily=Helvetica;fontSize=12;fontColor=default;rotation=0;" parent="1" vertex="1">
          <mxGeometry x="404.5" y="480" width="70" height="30" as="geometry" />
        </mxCell>
        <mxCell id="L5FE4MAGF7EWM9vsqt-7-61" value="search query" style="text;html=1;align=center;verticalAlign=middle;resizable=0;points=[];autosize=1;strokeColor=none;fillColor=none;fontFamily=Helvetica;fontSize=12;fontColor=default;" parent="1" vertex="1">
          <mxGeometry x="369" y="244" width="90" height="30" as="geometry" />
        </mxCell>
        <mxCell id="Ngai-gHBjCo3r--L5Kp5-1" value="event list (X)" style="text;html=1;align=center;verticalAlign=middle;resizable=0;points=[];autosize=1;strokeColor=none;fillColor=none;fontFamily=Helvetica;fontSize=12;fontColor=default;rotation=90;" parent="1" vertex="1">
          <mxGeometry x="510.5" y="380" width="90" height="30" as="geometry" />
        </mxCell>
        <mxCell id="Ngai-gHBjCo3r--L5Kp5-2" value="user credentials" style="text;html=1;align=center;verticalAlign=middle;resizable=0;points=[];autosize=1;strokeColor=none;fillColor=none;fontFamily=Helvetica;fontSize=12;fontColor=default;" parent="1" vertex="1">
          <mxGeometry x="148" y="284" width="110" height="30" as="geometry" />
        </mxCell>
        <mxCell id="Ngai-gHBjCo3r--L5Kp5-4" value="success(OK)" style="text;html=1;align=center;verticalAlign=middle;resizable=0;points=[];autosize=1;strokeColor=none;fillColor=none;fontFamily=Helvetica;fontSize=12;fontColor=default;" parent="1" vertex="1">
          <mxGeometry x="268" y="577" width="90" height="30" as="geometry" />
        </mxCell>
        <mxCell id="Ngai-gHBjCo3r--L5Kp5-5" value="logged in successfully" style="text;html=1;align=center;verticalAlign=middle;resizable=0;points=[];autosize=1;strokeColor=none;fillColor=none;fontFamily=Helvetica;fontSize=12;fontColor=default;" parent="1" vertex="1">
          <mxGeometry x="274" y="300" width="140" height="30" as="geometry" />
        </mxCell>
        <mxCell id="Ngai-gHBjCo3r--L5Kp5-6" value="requsting event list" style="text;html=1;align=center;verticalAlign=middle;resizable=0;points=[];autosize=1;strokeColor=none;fillColor=none;fontFamily=Helvetica;fontSize=12;fontColor=default;" parent="1" vertex="1">
          <mxGeometry x="495.5" y="242" width="120" height="30" as="geometry" />
        </mxCell>
        <mxCell id="Ngai-gHBjCo3r--L5Kp5-7" value="show available event list (X)" style="text;html=1;align=center;verticalAlign=middle;resizable=0;points=[];autosize=1;strokeColor=none;fillColor=none;fontFamily=Helvetica;fontSize=12;fontColor=default;" parent="1" vertex="1">
          <mxGeometry x="496.5" y="490" width="170" height="30" as="geometry" />
        </mxCell>
        <mxCell id="Ngai-gHBjCo3r--L5Kp5-8" value="selecting event " style="text;html=1;align=center;verticalAlign=middle;resizable=0;points=[];autosize=1;strokeColor=none;fillColor=none;fontFamily=Helvetica;fontSize=12;fontColor=default;" parent="1" vertex="1">
          <mxGeometry x="630" y="554" width="100" height="30" as="geometry" />
        </mxCell>
        <mxCell id="Ngai-gHBjCo3r--L5Kp5-9" value="selects an event" style="text;html=1;align=center;verticalAlign=middle;resizable=0;points=[];autosize=1;strokeColor=none;fillColor=none;fontFamily=Helvetica;fontSize=12;fontColor=default;" parent="1" vertex="1">
          <mxGeometry x="680" y="450" width="110" height="30" as="geometry" />
        </mxCell>
        <mxCell id="Ngai-gHBjCo3r--L5Kp5-10" value="process ticket for selected event" style="text;html=1;align=center;verticalAlign=middle;resizable=0;points=[];autosize=1;strokeColor=none;fillColor=none;fontFamily=Helvetica;fontSize=12;fontColor=default;" parent="1" vertex="1">
          <mxGeometry x="605" y="360" width="190" height="30" as="geometry" />
        </mxCell>
        <mxCell id="Ngai-gHBjCo3r--L5Kp5-11" value="event selection" style="text;html=1;align=center;verticalAlign=middle;resizable=0;points=[];autosize=1;strokeColor=none;fillColor=none;fontFamily=Helvetica;fontSize=12;fontColor=default;" parent="1" vertex="1">
          <mxGeometry x="670" y="300" width="100" height="30" as="geometry" />
        </mxCell>
        <mxCell id="Ngai-gHBjCo3r--L5Kp5-12" value="prepare payment " style="text;html=1;align=center;verticalAlign=middle;resizable=0;points=[];autosize=1;strokeColor=none;fillColor=none;fontFamily=Helvetica;fontSize=12;fontColor=default;" parent="1" vertex="1">
          <mxGeometry x="670" y="220" width="110" height="30" as="geometry" />
        </mxCell>
        <mxCell id="Ngai-gHBjCo3r--L5Kp5-13" value="request payment option" style="text;html=1;align=center;verticalAlign=middle;resizable=0;points=[];autosize=1;strokeColor=none;fillColor=none;fontFamily=Helvetica;fontSize=12;fontColor=default;" parent="1" vertex="1">
          <mxGeometry x="660" y="160" width="150" height="30" as="geometry" />
        </mxCell>
        <mxCell id="Ngai-gHBjCo3r--L5Kp5-14" value="select payment method" style="text;html=1;align=center;verticalAlign=middle;resizable=0;points=[];autosize=1;strokeColor=none;fillColor=none;fontFamily=Helvetica;fontSize=12;fontColor=default;" parent="1" vertex="1">
          <mxGeometry x="597.5" y="70" width="150" height="30" as="geometry" />
        </mxCell>
        <mxCell id="Ngai-gHBjCo3r--L5Kp5-16" value="payment details(confirmation, process payment)" style="text;html=1;align=center;verticalAlign=middle;resizable=0;points=[];autosize=1;strokeColor=none;fillColor=none;fontFamily=Helvetica;fontSize=12;fontColor=default;" parent="1" vertex="1">
          <mxGeometry x="309" y="60" width="280" height="30" as="geometry" />
        </mxCell>
        <mxCell id="Ngai-gHBjCo3r--L5Kp5-17" value="complete transaction" style="text;html=1;align=center;verticalAlign=middle;resizable=0;points=[];autosize=1;strokeColor=none;fillColor=none;fontFamily=Helvetica;fontSize=12;fontColor=default;" parent="1" vertex="1">
          <mxGeometry x="285" y="170" width="130" height="30" as="geometry" />
        </mxCell>
        <mxCell id="Ngai-gHBjCo3r--L5Kp5-19" value="&lt;b&gt;QueryFailed&lt;/b&gt;" style="html=1;align=center;verticalAlign=top;rounded=1;absoluteArcSize=1;arcSize=10;dashed=0;whiteSpace=wrap;movable=1;resizable=1;rotatable=1;deletable=1;editable=1;locked=0;connectable=1;" parent="1" vertex="1">
          <mxGeometry x="577.5" y="1030" width="115" height="35" as="geometry" />
        </mxCell>
        <mxCell id="Ngai-gHBjCo3r--L5Kp5-21" value="" style="endArrow=open;endFill=1;endSize=12;html=1;rounded=0;fontFamily=Helvetica;fontSize=12;fontColor=default;resizable=0;exitX=0.5;exitY=1;exitDx=0;exitDy=0;" parent="1" source="L5FE4MAGF7EWM9vsqt-7-24" target="Ngai-gHBjCo3r--L5Kp5-19" edge="1">
          <mxGeometry width="160" relative="1" as="geometry">
            <mxPoint x="390" y="1160" as="sourcePoint" />
            <mxPoint x="550" y="1160" as="targetPoint" />
          </mxGeometry>
        </mxCell>
        <mxCell id="Ngai-gHBjCo3r--L5Kp5-22" value="" style="endArrow=open;endFill=1;endSize=12;html=1;rounded=0;fontFamily=Helvetica;fontSize=12;fontColor=default;resizable=0;exitX=0;exitY=0.5;exitDx=0;exitDy=0;" parent="1" source="Ngai-gHBjCo3r--L5Kp5-19" edge="1">
          <mxGeometry width="160" relative="1" as="geometry">
            <mxPoint x="390" y="1160" as="sourcePoint" />
            <mxPoint x="340" y="980" as="targetPoint" />
          </mxGeometry>
        </mxCell>
        <mxCell id="Ngai-gHBjCo3r--L5Kp5-23" value="on failure" style="text;html=1;align=center;verticalAlign=middle;resizable=0;points=[];autosize=1;strokeColor=none;fillColor=none;fontFamily=Helvetica;fontSize=12;fontColor=default;" parent="1" vertex="1">
          <mxGeometry x="604" y="995" width="70" height="30" as="geometry" />
        </mxCell>
        <mxCell id="Ngai-gHBjCo3r--L5Kp5-24" value="retry" style="text;html=1;align=center;verticalAlign=middle;resizable=0;points=[];autosize=1;strokeColor=none;fillColor=none;fontFamily=Helvetica;fontSize=12;fontColor=default;" parent="1" vertex="1">
          <mxGeometry x="434" y="990" width="50" height="30" as="geometry" />
        </mxCell>
        <mxCell id="Ngai-gHBjCo3r--L5Kp5-26" value="" style="endArrow=open;endFill=1;endSize=12;html=1;rounded=0;fontFamily=Helvetica;fontSize=12;fontColor=default;resizable=0;exitX=0.5;exitY=0;exitDx=0;exitDy=0;" parent="1" source="L5FE4MAGF7EWM9vsqt-7-26" edge="1">
          <mxGeometry width="160" relative="1" as="geometry">
            <mxPoint x="390" y="1050" as="sourcePoint" />
            <mxPoint x="635" y="1150" as="targetPoint" />
          </mxGeometry>
        </mxCell>
        <mxCell id="Ngai-gHBjCo3r--L5Kp5-27" value="" style="endArrow=open;endFill=1;endSize=12;html=1;rounded=0;fontFamily=Helvetica;fontSize=12;fontColor=default;resizable=0;entryX=1;entryY=0.25;entryDx=0;entryDy=0;exitX=1;exitY=0.5;exitDx=0;exitDy=0;" parent="1" source="Ngai-gHBjCo3r--L5Kp5-32" target="L5FE4MAGF7EWM9vsqt-7-24" edge="1">
          <mxGeometry width="160" relative="1" as="geometry">
            <mxPoint x="692.4999999999998" y="1126.25" as="sourcePoint" />
            <mxPoint x="610" y="1040" as="targetPoint" />
            <Array as="points">
              <mxPoint x="740" y="1115" />
              <mxPoint x="740" y="960" />
            </Array>
          </mxGeometry>
        </mxCell>
        <mxCell id="Ngai-gHBjCo3r--L5Kp5-28" value="if booking failed" style="text;html=1;align=center;verticalAlign=middle;resizable=0;points=[];autosize=1;strokeColor=none;fillColor=none;fontFamily=Helvetica;fontSize=12;fontColor=default;" parent="1" vertex="1">
          <mxGeometry x="625" y="1160" width="110" height="30" as="geometry" />
        </mxCell>
        <mxCell id="Ngai-gHBjCo3r--L5Kp5-29" value="&lt;b&gt;new query&lt;/b&gt;" style="text;html=1;align=center;verticalAlign=middle;resizable=0;points=[];autosize=1;strokeColor=none;fillColor=none;fontFamily=Helvetica;fontSize=12;fontColor=default;rotation=270;" parent="1" vertex="1">
          <mxGeometry x="690" y="1045" width="80" height="30" as="geometry" />
        </mxCell>
        <mxCell id="Ngai-gHBjCo3r--L5Kp5-30" value="" style="endArrow=open;endFill=1;endSize=12;html=1;rounded=0;fontFamily=Helvetica;fontSize=12;fontColor=default;resizable=0;entryX=0.649;entryY=1.087;entryDx=0;entryDy=0;entryPerimeter=0;exitX=0;exitY=0.5;exitDx=0;exitDy=0;" parent="1" source="Ngai-gHBjCo3r--L5Kp5-32" target="L5FE4MAGF7EWM9vsqt-7-21" edge="1">
          <mxGeometry width="160" relative="1" as="geometry">
            <mxPoint x="595" y="1110" as="sourcePoint" />
            <mxPoint x="610" y="1020" as="targetPoint" />
            <Array as="points">
              <mxPoint x="310" y="1120" />
            </Array>
          </mxGeometry>
        </mxCell>
        <mxCell id="Ngai-gHBjCo3r--L5Kp5-31" value="restart" style="text;html=1;align=center;verticalAlign=middle;resizable=0;points=[];autosize=1;strokeColor=none;fillColor=none;fontFamily=Helvetica;fontSize=12;fontColor=default;" parent="1" vertex="1">
          <mxGeometry x="348" y="1090" width="60" height="30" as="geometry" />
        </mxCell>
        <mxCell id="Ngai-gHBjCo3r--L5Kp5-32" value="" style="rhombus;whiteSpace=wrap;html=1;rounded=1;dashed=0;strokeColor=default;align=center;verticalAlign=top;arcSize=10;fontFamily=Helvetica;fontSize=12;fontColor=default;resizable=0;fillColor=#ffffff;" parent="1" vertex="1">
          <mxGeometry x="595" y="1075" width="80" height="80" as="geometry" />
        </mxCell>
        <mxCell id="Ngai-gHBjCo3r--L5Kp5-34" value="" style="endArrow=open;endFill=1;endSize=12;html=1;rounded=0;fontFamily=Helvetica;fontSize=12;fontColor=default;resizable=0;" parent="1" edge="1">
          <mxGeometry width="160" relative="1" as="geometry">
            <mxPoint x="140" y="558.38" as="sourcePoint" />
            <mxPoint x="240" y="558" as="targetPoint" />
            <Array as="points">
              <mxPoint x="192" y="558.38" />
            </Array>
          </mxGeometry>
        </mxCell>
        <mxCell id="Ngai-gHBjCo3r--L5Kp5-35" value="retry login" style="text;html=1;align=center;verticalAlign=middle;resizable=0;points=[];autosize=1;strokeColor=none;fillColor=none;fontFamily=Helvetica;fontSize=12;fontColor=default;" parent="1" vertex="1">
          <mxGeometry x="141" y="530" width="80" height="30" as="geometry" />
        </mxCell>
        <mxCell id="Ngai-gHBjCo3r--L5Kp5-36" style="edgeStyle=orthogonalEdgeStyle;rounded=0;orthogonalLoop=1;jettySize=auto;html=1;exitX=0.5;exitY=1;exitDx=0;exitDy=0;fontFamily=Helvetica;fontSize=12;fontColor=default;resizable=0;" parent="1" source="FpAws6LRR97dmpmPVL3t-35" target="FpAws6LRR97dmpmPVL3t-35" edge="1">
          <mxGeometry relative="1" as="geometry" />
        </mxCell>
        <mxCell id="Ngai-gHBjCo3r--L5Kp5-38" value="&lt;b&gt;PaymentFailure&lt;/b&gt;" style="html=1;align=center;verticalAlign=top;rounded=1;absoluteArcSize=1;arcSize=10;dashed=0;whiteSpace=wrap;movable=1;resizable=1;rotatable=1;deletable=1;editable=1;locked=0;connectable=1;" parent="1" vertex="1">
          <mxGeometry x="502.5" y="190" width="98" height="40" as="geometry" />
        </mxCell>
        <mxCell id="Ngai-gHBjCo3r--L5Kp5-39" value="" style="endArrow=open;endFill=1;endSize=12;html=1;rounded=0;fontFamily=Helvetica;fontSize=12;fontColor=default;resizable=0;exitX=1;exitY=0.5;exitDx=0;exitDy=0;entryX=0.5;entryY=0;entryDx=0;entryDy=0;" parent="1" source="FpAws6LRR97dmpmPVL3t-50" target="Ngai-gHBjCo3r--L5Kp5-38" edge="1">
          <mxGeometry width="160" relative="1" as="geometry">
            <mxPoint x="450" y="260" as="sourcePoint" />
            <mxPoint x="610" y="260" as="targetPoint" />
          </mxGeometry>
        </mxCell>
        <mxCell id="Ngai-gHBjCo3r--L5Kp5-40" value="on failure" style="text;html=1;align=center;verticalAlign=middle;resizable=0;points=[];autosize=1;strokeColor=none;fillColor=none;fontFamily=Helvetica;fontSize=12;fontColor=default;" parent="1" vertex="1">
          <mxGeometry x="474.5" y="143" width="70" height="30" as="geometry" />
        </mxCell>
        <mxCell id="Ngai-gHBjCo3r--L5Kp5-41" value="" style="endArrow=open;endFill=1;endSize=12;html=1;rounded=0;fontFamily=Helvetica;fontSize=12;fontColor=default;resizable=0;entryX=0.1;entryY=1.044;entryDx=0;entryDy=0;entryPerimeter=0;exitX=1;exitY=0;exitDx=0;exitDy=0;" parent="1" source="Ngai-gHBjCo3r--L5Kp5-38" target="FpAws6LRR97dmpmPVL3t-37" edge="1">
          <mxGeometry width="160" relative="1" as="geometry">
            <mxPoint x="450" y="260" as="sourcePoint" />
            <mxPoint x="610" y="260" as="targetPoint" />
          </mxGeometry>
        </mxCell>
        <mxCell id="Ngai-gHBjCo3r--L5Kp5-42" value="retry payment" style="text;html=1;align=center;verticalAlign=middle;resizable=0;points=[];autosize=1;strokeColor=none;fillColor=none;fontFamily=Helvetica;fontSize=12;fontColor=default;" parent="1" vertex="1">
          <mxGeometry x="564.5" y="160" width="100" height="30" as="geometry" />
        </mxCell>
      </root>
    </mxGraphModel>
  </diagram>
  <diagram id="QmJooFeyUIafdFc0YsOk" name="TLCS-SM">
    <mxGraphModel dx="1204" dy="1110" grid="0" gridSize="10" guides="1" tooltips="1" connect="1" arrows="1" fold="1" page="0" pageScale="1" pageWidth="827" pageHeight="1169" math="0" shadow="0">
      <root>
        <mxCell id="0" />
        <mxCell id="1" parent="0" />
        <mxCell id="H8XR08lDCljVsCA_VocJ-1" value="cars-yelow-out" style="rounded=1;whiteSpace=wrap;html=1;" vertex="1" parent="1">
          <mxGeometry x="345" y="53" width="120" height="60" as="geometry" />
        </mxCell>
        <mxCell id="H8XR08lDCljVsCA_VocJ-2" value="green-car" style="rounded=1;whiteSpace=wrap;html=1;" vertex="1" parent="1">
          <mxGeometry x="-48" y="50" width="120" height="60" as="geometry" />
        </mxCell>
        <mxCell id="H8XR08lDCljVsCA_VocJ-3" value="" style="ellipse;html=1;shape=startState;fillColor=#000000;strokeColor=#ff0000;" vertex="1" parent="1">
          <mxGeometry x="-25" y="-126" width="30" height="30" as="geometry" />
        </mxCell>
        <mxCell id="H8XR08lDCljVsCA_VocJ-4" value="" style="edgeStyle=orthogonalEdgeStyle;html=1;verticalAlign=bottom;endArrow=open;endSize=8;strokeColor=#ff0000;rounded=0;fontSize=12;curved=1;entryX=0.358;entryY=0;entryDx=0;entryDy=0;entryPerimeter=0;" edge="1" source="H8XR08lDCljVsCA_VocJ-3" parent="1" target="H8XR08lDCljVsCA_VocJ-2">
          <mxGeometry relative="1" as="geometry">
            <mxPoint x="-10" y="-36" as="targetPoint" />
          </mxGeometry>
        </mxCell>
        <mxCell id="H8XR08lDCljVsCA_VocJ-5" value="/set(red,ped), set(green,car)" style="text;html=1;align=center;verticalAlign=middle;resizable=0;points=[];autosize=1;strokeColor=none;fillColor=none;fontSize=16;" vertex="1" parent="1">
          <mxGeometry x="-6" y="-55" width="217" height="31" as="geometry" />
        </mxCell>
        <mxCell id="H8XR08lDCljVsCA_VocJ-6" value="" style="endArrow=open;endFill=1;endSize=12;html=1;rounded=0;fontSize=12;curved=1;entryX=0;entryY=0.5;entryDx=0;entryDy=0;" edge="1" parent="1" target="H8XR08lDCljVsCA_VocJ-1">
          <mxGeometry width="160" relative="1" as="geometry">
            <mxPoint x="72" y="82" as="sourcePoint" />
            <mxPoint x="232" y="82" as="targetPoint" />
          </mxGeometry>
        </mxCell>
        <mxCell id="H8XR08lDCljVsCA_VocJ-7" value="req/set(yel,car)" style="text;html=1;align=center;verticalAlign=middle;resizable=0;points=[];autosize=1;strokeColor=none;fillColor=none;fontSize=16;" vertex="1" parent="1">
          <mxGeometry x="126" y="44" width="125" height="31" as="geometry" />
        </mxCell>
        <mxCell id="H8XR08lDCljVsCA_VocJ-8" value="" style="endArrow=open;endFill=1;endSize=12;html=1;rounded=0;fontSize=12;curved=1;exitX=0.5;exitY=1;exitDx=0;exitDy=0;entryX=0.558;entryY=0.05;entryDx=0;entryDy=0;entryPerimeter=0;" edge="1" parent="1" source="H8XR08lDCljVsCA_VocJ-1" target="H8XR08lDCljVsCA_VocJ-9">
          <mxGeometry width="160" relative="1" as="geometry">
            <mxPoint x="158" y="189" as="sourcePoint" />
            <mxPoint x="318" y="189" as="targetPoint" />
          </mxGeometry>
        </mxCell>
        <mxCell id="H8XR08lDCljVsCA_VocJ-9" value="cars-red" style="rounded=1;whiteSpace=wrap;html=1;" vertex="1" parent="1">
          <mxGeometry x="340" y="304" width="120" height="60" as="geometry" />
        </mxCell>
        <mxCell id="H8XR08lDCljVsCA_VocJ-10" value="ped-green" style="rounded=1;whiteSpace=wrap;html=1;" vertex="1" parent="1">
          <mxGeometry x="340" y="559" width="120" height="60" as="geometry" />
        </mxCell>
        <mxCell id="H8XR08lDCljVsCA_VocJ-11" value="ped-red" style="rounded=1;whiteSpace=wrap;html=1;" vertex="1" parent="1">
          <mxGeometry x="-65" y="561" width="120" height="60" as="geometry" />
        </mxCell>
        <mxCell id="H8XR08lDCljVsCA_VocJ-12" value="cars-yelow-back" style="rounded=1;whiteSpace=wrap;html=1;" vertex="1" parent="1">
          <mxGeometry x="-65" y="292" width="120" height="60" as="geometry" />
        </mxCell>
        <mxCell id="H8XR08lDCljVsCA_VocJ-13" value="ack(yel,car),set(red,car)" style="text;html=1;align=center;verticalAlign=middle;resizable=0;points=[];autosize=1;strokeColor=none;fillColor=none;fontSize=16;" vertex="1" parent="1">
          <mxGeometry x="317" y="170" width="187" height="31" as="geometry" />
        </mxCell>
        <mxCell id="H8XR08lDCljVsCA_VocJ-14" value="" style="endArrow=open;endFill=1;endSize=12;html=1;rounded=0;fontSize=12;curved=1;entryX=0.5;entryY=0;entryDx=0;entryDy=0;exitX=0.5;exitY=1;exitDx=0;exitDy=0;" edge="1" parent="1" source="H8XR08lDCljVsCA_VocJ-9" target="H8XR08lDCljVsCA_VocJ-10">
          <mxGeometry width="160" relative="1" as="geometry">
            <mxPoint x="158" y="351" as="sourcePoint" />
            <mxPoint x="318" y="351" as="targetPoint" />
          </mxGeometry>
        </mxCell>
        <mxCell id="H8XR08lDCljVsCA_VocJ-15" value="ack(car,red),set(green,red)" style="text;html=1;align=center;verticalAlign=middle;resizable=0;points=[];autosize=1;strokeColor=none;fillColor=none;fontSize=16;" vertex="1" parent="1">
          <mxGeometry x="305" y="419" width="207" height="31" as="geometry" />
        </mxCell>
        <mxCell id="H8XR08lDCljVsCA_VocJ-16" value="" style="endArrow=open;endFill=1;endSize=12;html=1;rounded=0;fontSize=12;curved=1;exitX=0.017;exitY=0.617;exitDx=0;exitDy=0;exitPerimeter=0;" edge="1" parent="1" source="H8XR08lDCljVsCA_VocJ-10">
          <mxGeometry width="160" relative="1" as="geometry">
            <mxPoint x="156" y="400" as="sourcePoint" />
            <mxPoint x="56" y="592" as="targetPoint" />
          </mxGeometry>
        </mxCell>
        <mxCell id="H8XR08lDCljVsCA_VocJ-17" value="ack(green,ped),set(red,ped)" style="text;html=1;align=center;verticalAlign=middle;resizable=0;points=[];autosize=1;strokeColor=none;fillColor=none;fontSize=16;" vertex="1" parent="1">
          <mxGeometry x="108" y="555" width="216" height="31" as="geometry" />
        </mxCell>
        <mxCell id="H8XR08lDCljVsCA_VocJ-18" value="" style="endArrow=open;endFill=1;endSize=12;html=1;rounded=0;fontSize=12;curved=1;exitX=0.5;exitY=0;exitDx=0;exitDy=0;entryX=0.5;entryY=1;entryDx=0;entryDy=0;" edge="1" parent="1" source="H8XR08lDCljVsCA_VocJ-11" target="H8XR08lDCljVsCA_VocJ-12">
          <mxGeometry width="160" relative="1" as="geometry">
            <mxPoint x="156" y="400" as="sourcePoint" />
            <mxPoint x="316" y="400" as="targetPoint" />
          </mxGeometry>
        </mxCell>
        <mxCell id="H8XR08lDCljVsCA_VocJ-19" value="ack(red,ped),set(yelow,car)" style="text;html=1;align=center;verticalAlign=middle;resizable=0;points=[];autosize=1;strokeColor=none;fillColor=none;fontSize=16;" vertex="1" parent="1">
          <mxGeometry x="-72" y="391" width="211" height="31" as="geometry" />
        </mxCell>
        <mxCell id="H8XR08lDCljVsCA_VocJ-20" value="" style="endArrow=open;endFill=1;endSize=12;html=1;rounded=0;fontSize=12;curved=1;entryX=0.442;entryY=1.017;entryDx=0;entryDy=0;entryPerimeter=0;" edge="1" parent="1" target="H8XR08lDCljVsCA_VocJ-2">
          <mxGeometry width="160" relative="1" as="geometry">
            <mxPoint y="289" as="sourcePoint" />
            <mxPoint x="316" y="400" as="targetPoint" />
          </mxGeometry>
        </mxCell>
        <mxCell id="H8XR08lDCljVsCA_VocJ-21" value="ack(yolow,car),set(green,car)" style="text;html=1;align=center;verticalAlign=middle;resizable=0;points=[];autosize=1;strokeColor=none;fillColor=none;fontSize=16;" vertex="1" parent="1">
          <mxGeometry x="-69" y="170" width="224" height="31" as="geometry" />
        </mxCell>
        <mxCell id="H8XR08lDCljVsCA_VocJ-22" value="" style="endArrow=open;endFill=1;endSize=12;html=1;rounded=0;fontSize=12;curved=1;entryX=1;entryY=0.25;entryDx=0;entryDy=0;" edge="1" parent="1" target="H8XR08lDCljVsCA_VocJ-12">
          <mxGeometry width="160" relative="1" as="geometry">
            <mxPoint x="55" y="340" as="sourcePoint" />
            <mxPoint x="215" y="340" as="targetPoint" />
            <Array as="points">
              <mxPoint x="134" y="315" />
            </Array>
          </mxGeometry>
        </mxCell>
        <mxCell id="H8XR08lDCljVsCA_VocJ-23" value="" style="endArrow=open;endFill=1;endSize=12;html=1;rounded=0;fontSize=12;curved=1;" edge="1" parent="1">
          <mxGeometry width="160" relative="1" as="geometry">
            <mxPoint x="55" y="576" as="sourcePoint" />
            <mxPoint x="37" y="559" as="targetPoint" />
            <Array as="points">
              <mxPoint x="134" y="551" />
            </Array>
          </mxGeometry>
        </mxCell>
        <mxCell id="H8XR08lDCljVsCA_VocJ-24" value="" style="endArrow=open;endFill=1;endSize=12;html=1;rounded=0;fontSize=12;curved=1;entryX=1;entryY=0.25;entryDx=0;entryDy=0;" edge="1" parent="1">
          <mxGeometry width="160" relative="1" as="geometry">
            <mxPoint x="458" y="352" as="sourcePoint" />
            <mxPoint x="458" y="319" as="targetPoint" />
            <Array as="points">
              <mxPoint x="537" y="327" />
            </Array>
          </mxGeometry>
        </mxCell>
        <mxCell id="H8XR08lDCljVsCA_VocJ-25" value="" style="endArrow=open;endFill=1;endSize=12;html=1;rounded=0;fontSize=12;curved=1;entryX=1;entryY=0.25;entryDx=0;entryDy=0;" edge="1" parent="1">
          <mxGeometry width="160" relative="1" as="geometry">
            <mxPoint x="458" y="607.5" as="sourcePoint" />
            <mxPoint x="458" y="574.5" as="targetPoint" />
            <Array as="points">
              <mxPoint x="537" y="582.5" />
            </Array>
          </mxGeometry>
        </mxCell>
        <mxCell id="H8XR08lDCljVsCA_VocJ-26" value="" style="endArrow=open;endFill=1;endSize=12;html=1;rounded=0;fontSize=12;curved=1;entryX=1;entryY=0.25;entryDx=0;entryDy=0;" edge="1" parent="1">
          <mxGeometry width="160" relative="1" as="geometry">
            <mxPoint x="465" y="99.5" as="sourcePoint" />
            <mxPoint x="465" y="66.5" as="targetPoint" />
            <Array as="points">
              <mxPoint x="544" y="74.5" />
            </Array>
          </mxGeometry>
        </mxCell>
      </root>
    </mxGraphModel>
  </diagram>
</mxfile>
